<?xml version="1.0" encoding="utf-8"?>
<svg version="1.1" xmlns:xlink="http://www.w3.org/1999/xlink" width="16px" height="20px" xmlns="http://www.w3.org/2000/svg">
  <g transform="matrix(1 0 0 1 -21 -53 )">
    <path d="M 15.0361111132813 7.13611111328125  C 15.0361111132813 3.25  11.8861111132813 0.100000000000001  8 0.100000000000001  C 4.11388888671875 0.100000000000001  0.96388888671875 3.25  0.96388888671875 7.13611111328125  C 0.96388888671875 11.2222222363281  6.05555556640625 17.6416666796875  7.5777777734375 19.4666666699219  C 7.79722220703125 19.730555546875  8.205555546875 19.730555546875  8.42500000976563 19.4666666699219  C 9.94444443359375 17.6444444335938  15.0361111132813 11.2222222363281  15.0361111132813 7.13611111328125  Z M 13.9555555566406 7.16111110351563  C 13.9555555566406 10.4722222363281  10.0083333300781 15.7111111035156  8.30277778320313 17.819444453125  C 8.14722221679688 18.0111111132812  7.85277778320313 18.0111111132812  7.69722221679688 17.819444453125  C 5.99166666992187 15.7111111035156  2.04444444335937 10.4722222363281  2.04444444335937 7.16111110351563  C 2.04444444335937 3.8777777734375  4.71666666992188 1.205555546875  8 1.205555546875  C 11.2833333300781 1.205555546875  13.9555555566406 3.8777777734375  13.9555555566406 7.16111110351563  Z " fill-rule="nonzero" fill="#666666" stroke="none" transform="matrix(1 0 0 1 21 53 )" />
  </g>
</svg>