<?xml version="1.0" encoding="utf-8"?>
<svg version="1.1" xmlns:xlink="http://www.w3.org/1999/xlink" width="8px" height="8px" xmlns="http://www.w3.org/2000/svg">
  <g transform="matrix(1 0 0 1 -25 -56 )">
    <path d="M 7.30555553710937 4.01388888671875  C 7.28888889648438 2.219444453125  5.82222223632813 0.752777763671876  4.0277777734375 0.736111123046875  C 2.180555546875 0.719444453125  0.677777763671873 2.22222223632813  0.694444433593748 4.06944446289062  C 0.708333320312498 5.86388889648437  2.17777776367187 7.3305555859375  3.97222219726562 7.3472222265625  C 5.81944442382812 7.36388889648438  7.32222220703125 5.86111111328125  7.30555553710937 4.01388888671875  Z M 6.194444453125 4.04166666015625  C 6.194444453125 5.25277779296875  5.21111110351562 6.23611111328125  4 6.23611111328125  C 2.78888889648438 6.23611111328125  1.805555546875 5.25277779296875  1.805555546875 4.04166666015625  C 1.805555546875 2.83055552734375  2.7888888671875 1.84722220703125  4 1.84722220703125  C 5.2111111328125 1.84722220703125  6.194444453125 2.83055552734375  6.194444453125 4.04166666015625  Z " fill-rule="nonzero" fill="#666666" stroke="none" transform="matrix(1 0 0 1 25 56 )" />
  </g>
</svg>