<?xml version="1.0" encoding="utf-8"?>
<svg version="1.1" xmlns:xlink="http://www.w3.org/1999/xlink" width="33px" height="33px" xmlns="http://www.w3.org/2000/svg">
  <defs>
    <filter x="306px" y="419px" width="33px" height="33px" filterUnits="userSpaceOnUse" id="filter1">
      <feOffset dx="1" dy="0" in="SourceAlpha" result="shadowOffsetInner" />
      <feGaussianBlur stdDeviation="1" in="shadowOffsetInner" result="shadowGaussian" />
      <feComposite in2="shadowGaussian" operator="atop" in="SourceAlpha" result="shadowComposite" />
      <feColorMatrix type="matrix" values="0 0 0 0 0.788235294117647  0 0 0 0 0.788235294117647  0 0 0 0 0.788235294117647  0 0 0 0.349019607843137 0  " in="shadowComposite" />
    </filter>
    <g id="widget2">
      <path d="M 321.5 421  C 329.62 421  336 427.38  336 435.5  C 336 443.62  329.62 450  321.5 450  C 313.38 450  307 443.62  307 435.5  C 307 427.38  313.38 421  321.5 421  Z " fill-rule="nonzero" fill="#ffffff" stroke="none" />
      <path d="M 321.5 421.5  C 329.34 421.5  335.5 427.66  335.5 435.5  C 335.5 443.34  329.34 449.5  321.5 449.5  C 313.66 449.5  307.5 443.34  307.5 435.5  C 307.5 427.66  313.66 421.5  321.5 421.5  Z " stroke-width="1" stroke="#d7d7d7" fill="none" />
    </g>
  </defs>
  <g transform="matrix(1 0 0 1 -306 -419 )">
    <use xlink:href="#widget2" filter="url(#filter1)" />
    <use xlink:href="#widget2" />
  </g>
</svg>