<?xml version="1.0" encoding="utf-8"?>
<svg version="1.1" xmlns:xlink="http://www.w3.org/1999/xlink" width="80px" height="24px" xmlns="http://www.w3.org/2000/svg">
  <g transform="matrix(1 0 0 1 -217 -536 )">
    <path d="M 287.528302565584 536.5  C 287.528302565584 536.5  289.523702232064 536.799309949972  289.523702232064 536.799309949972  C 289.523702232064 536.799309949972  296.451964118679 548  296.451964118679 548  C 296.451964118679 548  289.523702232064 559.200690050028  289.523702232064 559.200690050028  C 289.523702232064 559.200690050028  287.528302565584 559.5  287.528302565584 559.5  C 287.528302565584 559.5  217.5 559.5  217.5 559.5  C 217.5 559.5  217.5 536.5  217.5 536.5  C 217.5 536.5  287.528302565584 536.5  287.528302565584 536.5  Z " fill-rule="nonzero" fill="#ffffff" stroke="none" />
    <path d="M 287.528302565584 536.5  C 287.528302565584 536.5  289.523702232064 536.799309949972  289.523702232064 536.799309949972  C 289.523702232064 536.799309949972  296.451964118679 548  296.451964118679 548  C 296.451964118679 548  289.523702232064 559.200690050028  289.523702232064 559.200690050028  C 289.523702232064 559.200690050028  287.528302565584 559.5  287.528302565584 559.5  C 287.528302565584 559.5  217.5 559.5  217.5 559.5  C 217.5 559.5  217.5 536.5  217.5 536.5  C 217.5 536.5  287.528302565584 536.5  287.528302565584 536.5  Z " stroke-width="1" stroke="#fc4024" fill="none" />
  </g>
</svg>