<?xml version="1.0" encoding="utf-8"?>
<svg version="1.1" xmlns:xlink="http://www.w3.org/1999/xlink" width="120px" height="24px" xmlns="http://www.w3.org/2000/svg">
  <g transform="matrix(1 0 0 1 -172 -679 )">
    <path d="M 282.70425724725 679.5  C 282.70425724725 679.5  284.537950953879 679.683369370663  284.537950953879 679.683369370663  C 284.537950953879 679.683369370663  291.466500318779 691  291.466500318779 691  C 291.466500318779 691  284.537950953879 702.316630629337  284.537950953879 702.316630629337  C 284.537950953879 702.316630629337  282.70425724725 702.5  282.70425724725 702.5  C 282.70425724725 702.5  172.5 702.5  172.5 702.5  C 172.5 702.5  172.5 679.5  172.5 679.5  C 172.5 679.5  282.70425724725 679.5  282.70425724725 679.5  Z " fill-rule="nonzero" fill="#ffffff" stroke="none" />
    <path d="M 282.70425724725 679.5  C 282.70425724725 679.5  284.537950953879 679.683369370663  284.537950953879 679.683369370663  C 284.537950953879 679.683369370663  291.466500318779 691  291.466500318779 691  C 291.466500318779 691  284.537950953879 702.316630629337  284.537950953879 702.316630629337  C 284.537950953879 702.316630629337  282.70425724725 702.5  282.70425724725 702.5  C 282.70425724725 702.5  172.5 702.5  172.5 702.5  C 172.5 702.5  172.5 679.5  172.5 679.5  C 172.5 679.5  282.70425724725 679.5  282.70425724725 679.5  Z " stroke-width="1" stroke="#fc4024" fill="none" />
  </g>
</svg>