<?xml version="1.0" encoding="utf-8"?>
<svg version="1.1" xmlns:xlink="http://www.w3.org/1999/xlink" width="28px" height="28px" xmlns="http://www.w3.org/2000/svg">
  <g transform="matrix(1 0 0 1 -20 -802 )">
    <path d="M 27.125 14  C 27.125 21.2374848828125  21.2374848828125 27.125  14 27.125  C 6.7625151171875 27.125  0.875 21.2374848828125  0.875 14  C 0.875 6.7625151171875  6.7625151171875 0.875  14 0.875  C 21.2374848828125 0.875  27.125 6.7625151171875  27.125 14  Z M 25.25 14  C 25.25 7.79654952148437  20.2034504785156 2.75  14 2.75  C 7.79654952148437 2.75  2.75 7.79654952148437  2.75 14  C 2.75 20.2034504785156  7.79654952148437 25.25  14 25.25  C 20.2034504785156 25.25  25.25 20.2034504785156  25.25 14  Z " fill-rule="nonzero" fill="#999999" stroke="none" transform="matrix(1 0 0 1 20 802 )" />
  </g>
</svg>