<?xml version="1.0" encoding="utf-8"?>
<svg version="1.1" xmlns:xlink="http://www.w3.org/1999/xlink" width="28px" height="28px" xmlns="http://www.w3.org/2000/svg">
  <g transform="matrix(1 0 0 1 -20 -802 )">
    <path d="M 27.0668929003906 14  C 27.0668929003906 6.79532322265625  21.2056343164063 0.933107099609375  14 0.933107099609375  C 6.79532322265625 0.933107099609375  0.933107099609375 6.79527280273437  0.933107099609375 14  C 0.933107099609375 21.2056343164063  6.79436565429688 27.0668929003906  14 27.0668929003906  C 21.2056343457031 27.0668929003906  27.0668929003906 21.2056343164063  27.0668929003906 14  Z M 20.2989517285156 10.5181595117188  C 20.6656363378906 10.8828282617187  20.6693656835937 11.476246484375  20.3056040820312 11.8446949414062  L 12.7990525390625 19.4327879199219  C 12.7971878808594 19.434652578125  12.7934081445313 19.4356101171875  12.7915434570312 19.4384323144531  C 12.7887212597656 19.4402969726562  12.7887212597656 19.4440767089844  12.7858990625 19.4459413964844  C 12.7258768847656 19.5040484960938  12.6518445019531 19.5396787988281  12.5824485839844 19.5790888085938  C 12.5477758203125 19.598793828125  12.5196545996094 19.6287797070312  12.4830667871094 19.6428403320313  C 12.3705819042969 19.687844375  12.2514950878906 19.7112787109375  12.1324586621094 19.7112787109375  C 12.0124646972656 19.7112787109375  11.8915132226563 19.687844375  11.7780708007813 19.6409756738281  C 11.7405758398438 19.625050390625  11.7105899609375 19.5931494335938  11.6749596582031 19.5734948339844  C 11.6055637402344 19.5341352148438  11.533396015625 19.4994120605469  11.4733738378906 19.440347421875  C 11.4715091796875 19.4384827636719  11.470551640625 19.4347030273438  11.4686869824219 19.4328383398438  C 11.4668223242188 19.4300161425781  11.4630425878906 19.4300161425781  11.4611779003906 19.4271939453125  L 7.769285 15.6331474414063  C 7.40834559570313 15.2618767871094  7.41676182617188 14.6684585644531  7.78803248046875 14.3075191601562  C 8.15930313476563 13.9475372949219  8.75176384765625 13.9540888378906  9.11366076171875 14.326266640625  L 12.1389597851563 17.4350221777344  L 18.9733234472656 10.52566859375  C 19.3370850488281 10.1572201367188  19.93146078125 10.1534907910156  20.2989517285156 10.5181595117188  Z " fill-rule="nonzero" fill="#2ab795" stroke="none" transform="matrix(1 0 0 1 20 802 )" />
  </g>
</svg>