<?xml version="1.0" encoding="utf-8"?>
<svg version="1.1" xmlns:xlink="http://www.w3.org/1999/xlink" width="327px" height="585px" xmlns="http://www.w3.org/2000/svg">
  <defs>
    <mask fill="white" id="clip10">
      <path d="M 326.5 4.5  L 326.50005730194 144.864595424422  C 325.543941267096 144.626265340117  324.539188634473 144.5  323.5 144.5  C 316.78 144.5  311.5 149.78  311.5 156.5  C 311.5 163.22  316.78 168.5  323.5 168.5  C 324.539175222441 168.5  325.543915331905 168.373737919087  326.5 168.135337618026  L 326.5 579.5  C 325.5 581.74  323.74 583.5  321.5 584.5  L 4.5 584.5  C 2.26 583.5  0.5 581.74  0.5 579.5  L 0.500018764202039 168.340455893461  C 6.23858274457933 167.412022321974  10.5 162.537113513999  10.5 156.5  C 10.5 150.462895805909  6.2385959018561 145.587992729494  0.5 144.659828400511  L 0.5 4.5  C 0.5 2.25999999999999  2.26 0.5  4.5 0.5  L 321.5 0.5  C 323.74 0.5  325.5 2.25999999999999  326.5 4.5  Z " fill-rule="evenodd" />
    </mask>
  </defs>
  <g transform="matrix(1 0 0 1 -57 -159 )">
    <path d="M 326.5 4.5  L 326.50005730194 144.864595424422  C 325.543941267096 144.626265340117  324.539188634473 144.5  323.5 144.5  C 316.78 144.5  311.5 149.78  311.5 156.5  C 311.5 163.22  316.78 168.5  323.5 168.5  C 324.539175222441 168.5  325.543915331905 168.373737919087  326.5 168.135337618026  L 326.5 579.5  C 325.5 581.74  323.74 583.5  321.5 584.5  L 4.5 584.5  C 2.26 583.5  0.5 581.74  0.5 579.5  L 0.500018764202039 168.340455893461  C 6.23858274457933 167.412022321974  10.5 162.537113513999  10.5 156.5  C 10.5 150.462895805909  6.2385959018561 145.587992729494  0.5 144.659828400511  L 0.5 4.5  C 0.5 2.25999999999999  2.26 0.5  4.5 0.5  L 321.5 0.5  C 323.74 0.5  325.5 2.25999999999999  326.5 4.5  Z " fill-rule="nonzero" fill="#ffffff" stroke="none" transform="matrix(1 0 0 1 57 159 )" />
    <path d="M 326.5 4.5  L 326.50005730194 144.864595424422  C 325.543941267096 144.626265340117  324.539188634473 144.5  323.5 144.5  C 316.78 144.5  311.5 149.78  311.5 156.5  C 311.5 163.22  316.78 168.5  323.5 168.5  C 324.539175222441 168.5  325.543915331905 168.373737919087  326.5 168.135337618026  L 326.5 579.5  C 325.5 581.74  323.74 583.5  321.5 584.5  L 4.5 584.5  C 2.26 583.5  0.5 581.74  0.5 579.5  L 0.500018764202039 168.340455893461  C 6.23858274457933 167.412022321974  10.5 162.537113513999  10.5 156.5  C 10.5 150.462895805909  6.2385959018561 145.587992729494  0.5 144.659828400511  L 0.5 4.5  C 0.5 2.25999999999999  2.26 0.5  4.5 0.5  L 321.5 0.5  C 323.74 0.5  325.5 2.25999999999999  326.5 4.5  Z " stroke-width="2" stroke="#cccccc" fill="none" transform="matrix(1 0 0 1 57 159 )" mask="url(#clip10)" />
  </g>
</svg>