<?xml version="1.0" encoding="utf-8"?>
<svg version="1.1" xmlns:xlink="http://www.w3.org/1999/xlink" width="22px" height="22px" xmlns="http://www.w3.org/2000/svg">
  <g transform="matrix(1 0 0 1 -377 -116 )">
    <path d="M 21.33275 11.1361953125  C 21.33275 5.3504609375  16.62565625 0.643625000000004  10.8401796875 0.643625  C 5.053859375 0.643625  0.347468749999999 5.350484375  0.347468749999999 11.1361953125  C 0.347468749999999 16.9223046875  5.053859375 21.62928125  10.8401796875 21.62928125  C 16.625703125 21.62928125  21.33275 16.922328125  21.33275 11.1361953125  Z M 19.82740625 11.136265625  C 19.82740625 16.0913515625  15.79465625 20.1235859375  10.8401796875 20.1235859375  C 5.8840859375 20.1235859375  1.852953125 16.09128125  1.852953125 11.136265625  C 1.852953125 6.1808515625  5.8840859375 2.149484375  10.8401796875 2.149484375  C 15.79465625 2.149484375  19.82740625 6.1808046875  19.82740625 11.136265625  Z " fill-rule="nonzero" fill="#ffffff" stroke="none" transform="matrix(1 0 0 1 377 116 )" />
  </g>
</svg>