<?xml version="1.0" encoding="utf-8"?>
<svg version="1.1" xmlns:xlink="http://www.w3.org/1999/xlink" width="24px" height="24px" xmlns="http://www.w3.org/2000/svg">
  <g transform="matrix(1 0 0 1 -81 -340 )">
    <path d="M 11.7 14.35897434375  C 15.5107647421875 14.35897434375  18.6 11.2565372578125  18.6 7.429487203125  C 18.6 3.602437078125  15.5107647421875 0.4999999921875  11.7 0.4999999921875  C 7.8892352578125 0.4999999921875  4.8 3.602437078125  4.8 7.429487203125  C 4.8 11.2565372578125  7.8892352578125 14.35897434375  11.7 14.35897434375  Z M 11.7 13.1538461484375  C 8.551976953125 13.1538461484375  6 10.5909633515625  6 7.429487203125  C 6 4.2680110078125  8.551976953125 1.7051282109375  11.7 1.7051282109375  C 14.848023046875 1.7051282109375  17.4 4.2680110078125  17.4 7.429487203125  C 17.4 10.5909633515625  14.848023046875 13.1538461484375  11.7 13.1538461484375  Z M 5.91430125 14.5654713515625  C 2.2870690546875 16.3890949921875  0 19.7155240078125  0 23.397435890625  L 0 24  L 0.6 24  L 11.4 24  L 23.4 24  L 24 24  L 24 23.397435890625  C 24 17.9874063515625  18.4474435078125 13.1538461484375  12 13.1538461484375  C 11.6120635546875 13.1538461484375  11.226306703125 13.16955215625  10.843606359375 13.200763546875  C 10.5133227890625 13.2277000546875  11.3731781015625 13.51842834375  11.4 13.85012334375  C 11.7503914453125 13.8215469609375  11.644481859375 14.35897434375  12 14.35897434375  C 17.81978540625 14.35897434375  22.8 18.6943047421875  22.8 23.397435890625  L 23.4 22.7948718046875  L 11.4 22.7948718046875  L 0.6 22.7948718046875  L 1.2 23.397435890625  C 1.2 20.1974396953125  3.211263421875 17.272156359375  6.45148940625 15.6431035546875  C 6.7478029921875 15.494129203125  6.867759 15.1321254609375  6.7194185390625 14.834545546875  C 6.5710781484375 14.536965609375  6.210614859375 14.416497  5.91430125 14.5654713515625  Z " fill-rule="nonzero" fill="#666666" stroke="none" transform="matrix(1 0 0 1 81 340 )" />
  </g>
</svg>