<?xml version="1.0" encoding="utf-8"?>
<svg version="1.1" xmlns:xlink="http://www.w3.org/1999/xlink" width="20px" height="20px" xmlns="http://www.w3.org/2000/svg">
  <g transform="matrix(1 0 0 1 -370 -121 )">
    <path d="M 19.7571555625 1.25262221875  L 11.0076444375 10.00213334375  L 19.77991109375 18.77368890625  C 20.05795553125 19.05102225  20.05795553125 19.5011555625  19.77991109375 19.77920003125  C 19.50186665625 20.0572445  19.0524444375 20.05724446875  18.77439996875 19.77920003125  L 10.00213334375 11.0083555625  L 1.26613334375 19.7443555625  C 0.9888 20.02168890625  0.54008890625 20.02168890625  0.2634666875 19.7443555625  C -0.0131555312499998 19.46773334375  -0.0131555312499998 19.01902221875  0.2634666875 18.7424  L 9.0001778125 10.005688875  L 0.220088875 1.2256  C -0.0579555625000001 0.9475555625  -0.0579555625000001 0.49742221875  0.220088875 0.220088875  C 0.49742221875 -0.0579555625000001  0.94755553125 -0.0579555625000001  1.2256 0.220088875  L 10.005688875 9.00017775  L 18.755911125 0.2499555625  C 19.03253334375 -0.0266666562499998  19.48124446875 -0.0266666562499998  19.7571555625 0.2499555625  C 20.03448890625 0.52657778125  20.03448890625 0.976  19.7571555625 1.25262221875  Z " fill-rule="nonzero" fill="#2ab795" stroke="none" transform="matrix(1 0 0 1 370 121 )" />
  </g>
</svg>