<?xml version="1.0" encoding="utf-8"?>
<svg version="1.1" xmlns:xlink="http://www.w3.org/1999/xlink" width="17px" height="22px" xmlns="http://www.w3.org/2000/svg">
  <g transform="matrix(1 0 0 1 -85 -409 )">
    <path d="M 16.39376 11.27984  C 16.39376 9.9704  15.33104 8.90768  14.0216 8.90768  L 4.72016 8.90768  C 4.88 7.55984  3.71984 2.08016  8.0048 1.94672  C 12.07904 1.79216  11.44496 6.94688  11.44496 6.94688  L 13.44032 6.96032  C 13.44032 6.96032  14.02016 0.0603199999999999  8.0048 0.0267199999999996  C 1.43984 0.35984  2.98016 7.84016  2.78 8.90768  C 2.82656 8.90768  2.88704 8.90768  2.95088 8.90768  C 1.64096 8.90768  0.578720000000001 9.9704  0.578720000000001 11.27984  L 0.578720000000001 19.18736  C 0.578720000000001 20.49728  1.64144 21.55952  2.95088 21.55952  L 14.0216 21.55952  C 15.33152 21.55952  16.39376 20.4968  16.39376 19.18736  L 16.39376 11.27984  Z M 10.06832 14.44304  C 10.06784 15.02672  9.74816 15.5312  9.2768 15.80528  L 9.2768 17.60624  C 9.2768 18.0416  8.9216 18.3968  8.48624 18.3968  C 8.05088 18.3968  7.69568 18.0416  7.69568 17.60624  L 7.69568 15.80528  C 7.2248 15.5312  6.90512 15.02672  6.90512 14.44304  C 6.90512 13.56944  7.61312 12.86144  8.48672 12.86144  C 9.36032 12.86144  10.06832 13.56944  10.06832 14.44304  Z " fill-rule="nonzero" fill="#666666" stroke="none" transform="matrix(1 0 0 1 85 409 )" />
  </g>
</svg>