<?xml version="1.0" encoding="utf-8"?>
<svg version="1.1" xmlns:xlink="http://www.w3.org/1999/xlink" width="32px" height="27px" xmlns="http://www.w3.org/2000/svg">
  <g transform="matrix(1 0 0 1 -96 -654 )">
    <path d="M 12.121561625 17.393632  C 12.12162240625 12.49925759375  16.3248 8.5277408125  21.6468511875 8.5277408125  C 22.00994878125 8.5277408125  22.369270375 8.553737625  22.7255231875 8.593616  C 21.7560928125 4.07968640625  16.930304 0.72586240625  11.4215231875 0.72586240625  C 5.26266240625 0.72586240625  0.21803840625 4.92298559375  0.21803840625 10.2533568125  C 0.21803840625 13.33127040625  1.89639359375 15.85669440625  4.701136 17.81689921875  L 3.58060159375 21.18690240625  L 7.49714559375 19.22324159375  C 8.89849278125 19.50017278125  10.022992 19.78580478125  11.42146240625 19.78580478125  C 11.77304640625 19.78580478125  12.12152959375 19.76824959375  12.4673888125 19.74116159375  C 12.248585625 18.99261440625  12.121561625 18.20821759375  12.121561625 17.393632  Z M 13.8118111875 6.99479678125  C 13.8118111875 6.038198375  14.5873151875 5.2626911875  15.5439231875 5.2626911875  C 16.5005311875 5.2626911875  17.2759711875 6.038166375  17.2759711875 6.99479678125  C 17.2759711875 7.9514271875  16.500528 8.726870375  15.5439231875 8.726870375  C 14.5872511875 8.726870375  13.8118111875 7.9513951875  13.8118111875 6.99479678125  Z M 9.4373791875 7.02971840625  C 9.4373791875 7.9862848125  8.6619071875 8.761792  7.7052351875 8.761792  C 6.7486271875 8.761792  5.9731231875 7.9863168125  5.9731231875 7.02971840625  C 5.9731231875 6.07312  6.748630375 5.2976448125  7.7052351875 5.2976448125  C 8.6619071875 5.2976448125  9.4373791875 6.07312  9.4373791875 7.02971840625  Z M 27.868902375 23.7463808125  C 30.117808 22.05930240625  31.7931231875 19.8221631875  31.7931231875 17.29549440625  C 31.7931231875 12.81641921875  27.31114559375 9.165328  22.277008 9.165328  C 16.9463551875 9.165328  12.74810240625 12.8164191875  12.74810240625 17.29549440625  C 12.74810240625 21.78230721875  16.94635521875 25.4254368125  22.277008 25.4254368125  C 23.39255359375 25.4254368125  24.5180128125 25.1438368125  25.6385471875 24.862969625  L 28.71169278125 26.54614721875  L 27.868902375 23.7463808125  Z M 20.58295040625 14.80639678125  C 20.58301759375 15.4876  20.03072959375 16.03986559375  19.34952959375 16.03986559375  C 18.66830078125 16.03986559375  18.11610878125 15.487568  18.11610878125 14.80639678125  C 18.11610878125 14.12516159375  18.66833278125 13.57299196875  19.34952959375 13.57299196875  C 20.03072640625 13.57299196875  20.58295040625 14.1251935625  20.58295040625 14.80639678125  Z M 26.74187521875 14.87642878125  C 26.74191040625 15.557568  26.18965440625 16.10983359375  25.50845440625 16.10983359375  C 24.82716159375 16.10983359375  24.27500159375 15.557568  24.27500159375 14.87642878125  C 24.27500159375 14.19516159375  24.82719359375 13.64302396875  25.50845440625 13.64302396875  C 26.18965121875 13.64302396875  26.74187521875 14.1951935625  26.74187521875 14.87642878125  Z " fill-rule="nonzero" fill="#2ab795" stroke="none" transform="matrix(1 0 0 1 96 654 )" />
  </g>
</svg>