<?xml version="1.0" encoding="utf-8"?>
<svg version="1.1" xmlns:xlink="http://www.w3.org/1999/xlink" width="24px" height="20px" xmlns="http://www.w3.org/2000/svg">
  <g transform="matrix(1 0 0 1 -98 -721 )">
    <path d="M 13.5375 3.046875  C 13.51875 3.021875  13.90625 0.365625000000001  11.58125 0.168749999999999  C 9.6125 0.00312499999999893  5.04375 1.496875  0.775 8.453125  C 0.775 8.453125  -2.35625 14.08125  4.015625 17.45625  C 4.015625 17.45625  9.334375 20.61875  16.846875 18.396875  C 16.846875 18.396875  24.46875 15.875  23.771875 10.5875  C 23.771875 10.5875  23.19375 8.396875  20.5 7.75625  C 20.5 7.75625  19.66875 7.646875  20.1375 6.815625  C 20.1375 6.815625  21.33125 4.38125  19 3.378125  C 19 3.378125  16.921875 2.88125  14.4 4.153125  C 14.4 4.153125  12.740625 5.09375  13.5375 3.046875  Z M 11.428125 6.7375  C 15.984375 6.7375  19.171875 8.70625  19.171875 11.584375  C 19.171875 14.4625  15.45625 17.625  10.909375 17.625  C 5.565625 17.625  2.646875 15.29375  2.646875 12.390625  C 2.646875 9.5125  6.859375 6.7375  11.428125 6.7375  Z " fill-rule="nonzero" fill="#2ab795" stroke="none" transform="matrix(1 0 0 1 98 721 )" />
  </g>
</svg>