<?xml version="1.0" encoding="utf-8"?>
<svg version="1.1" xmlns:xlink="http://www.w3.org/1999/xlink" width="6px" height="6px" xmlns="http://www.w3.org/2000/svg">
  <g transform="matrix(1 0 0 1 -116 -721 )">
    <path d="M 1.09375000000001 0.975000000000001  C 0.253125000000008 1.28125  0.671875000000007 2.721875  1.58125 2.46875  C 1.659375 2.44375  1.715625 2.44375  1.803125 2.4125  C 2.05625 2.35625  1.66875 2.4125  1.88125 2.4125  C 1.990625 2.4125  2.134375 2.3875  2.24375 2.3875  C 2.6875 2.3875  3.184375 2.496875  3.546875 2.83125  C 3.603125 2.8875  3.65625 2.940625  3.7375 2.996875  C 3.7375 2.996875  3.903125 3.1875  3.815625 3.10625  C 3.871875 3.1625  3.89375 3.240625  3.925 3.296875  C 3.95625 3.353125  3.98125 3.375  3.98125 3.43125  C 3.95625 3.375  3.95625 3.375  3.98125 3.45625  C 4.0375 3.590625  4.059375 3.734375  4.090625 3.875  C 4.146875 4.096875  4.090625 3.740625  4.090625 3.93125  L 4.090625 4.515625  C 4.090625 4.571875  4.090625 4.625  4.065625 4.65  C 4.090625 4.396875  4.065625 4.625  4.065625 4.65  C 4.04062500000001 4.728125  4.04062500000001 4.815625  4.00937500000001 4.903125  C 3.90000000000001 5.290625  4.14375 5.734375  4.53125000000001 5.81875  C 4.95000000000001 5.928125  5.33750000000001 5.684375  5.44687500000001 5.296875  C 5.834375 4.046875  5.52500000000001 2.578125  4.53125000000001 1.725  C 3.64687500000001 0.918750000000001  2.25312500000001 0.640625000000002  1.09375000000001 0.975000000000001  Z " fill-rule="nonzero" fill="#2ab795" stroke="none" transform="matrix(1 0 0 1 116 721 )" />
  </g>
</svg>