<?xml version="1.0" encoding="utf-8"?>
<svg version="1.1" xmlns:xlink="http://www.w3.org/1999/xlink" width="23px" height="21px" xmlns="http://www.w3.org/2000/svg">
  <g transform="matrix(1 0 0 1 -103 -717 )">
    <path d="M 5.3 12.759375  C 7.65625 12.7625  9.734375 14.034375  9.56875 16.5875  C 9.434375 18.690625  7.65625 20.328125  5.3 20.4125  C 2.446875 20.521875  0.565625000000001 19.21875  0.896875000000001 16.640625  C 1.15 14.5375  2.975 12.759375  5.3 12.759375  Z M 6.21875 16.578125  C 6.51875 16.609375  6.771875 16.365625  6.771875 16.025  C 6.771875 15.715625  6.51875 15.471875  6.21875 15.471875  C 5.91875 15.471875  5.665625 15.725  5.665625 16.025  C 5.665625 16.325  5.91875 16.578125  6.21875 16.578125  Z M 3.71875 18.853125  C 4.525 18.8875  5.278125 18.1125  5.278125 17.3625  C 5.278125 16.6125  4.58125 16.003125  3.80625 16.1125  C 3.03125 16.221875  2.28125 16.809375  2.28125 17.55  C 2.28125 18.3  2.921875 18.853125  3.71875 18.853125  Z M 12.671875 2.484375  C 12.75625 3.09375  13.41875 3.534375  14.003125 3.315625  C 14.1375 3.259375  14.25625 3.2375  14.390625 3.20625  C 14.525 3.18125  14.66875 3.15  14.834375 3.128125  C 14.359375 3.184375  14.75625 3.153125  14.834375 3.128125  C 14.94375 3.128125  15.05625 3.103125  15.196875 3.103125  L 15.89375 3.103125  C 16.028125 3.103125  16.146875 3.128125  16.28125 3.128125  C 15.91875 3.071875  16.171875 3.103125  16.25625 3.128125  C 16.34375 3.153125  16.421875 3.153125  16.534375 3.184375  C 16.8125 3.240625  17.0875 3.31875  17.365625 3.4375  C 17.44375 3.4625  17.5 3.49375  17.5875 3.515625  C 17.309375 3.40625  17.5625 3.515625  17.6125 3.515625  C 17.778125 3.59375  17.94375 3.68125  18.134375 3.79375  C 18.26875 3.871875  18.44375 3.984375  18.578125 4.071875  C 18.65625 4.128125  18.7125 4.18125  18.8 4.2375  C 18.578125 4.071875  18.825 4.2625  18.85625 4.29375  C 19.165625 4.546875  19.434375 4.815625  19.71875 5.125  C 19.74375 5.15  19.940625 5.403125  19.74375 5.15  C 19.8 5.20625  19.821875 5.284375  19.878125 5.340625  C 19.95625 5.475  20.04375 5.61875  20.13125 5.728125  C 20.209375 5.8625  20.265625 6.00625  20.321875 6.146875  C 20.43125 6.4  20.24375 5.89375  20.321875 6.146875  C 20.346875 6.225  20.378125 6.3125  20.43125 6.425  C 20.509375 6.678125  20.565625 6.946875  20.621875 7.23125  C 20.621875 7.2875  20.646875 7.365625  20.646875 7.421875  C 20.590625 7.059375  20.621875 7.2875  20.646875 7.365625  C 20.671875 7.5  20.671875 7.64375  20.671875 7.809375  C 20.671875 8.03125  20.671875 8.284375  20.646875 8.50625  C 20.646875 8.615625  20.621875 8.728125  20.621875 8.8375  C 20.678125 8.39375  20.621875 8.8375  20.596875 8.915625  C 20.540625 9.225  20.4625 9.49375  20.375 9.778125  C 20.31875 9.94375  20.121875 10.35625  20.35 9.85625  C 20.096875 10.409375  20.184375 11.075  20.76875 11.40625  C 21.265625 11.684375  22.071875 11.571875  22.31875 10.9875  C 23.015625 9.4625  23.15 7.634375  22.68125 6  C 21.85 3.059375  18.965625 1.065625  16 0.821875  C 15.16875 0.765625  14.253125 0.821875  13.478125 1.1  C 12.9 1.290625  12.50625 1.875  12.671875 2.484375  Z " fill-rule="nonzero" fill="#2ab795" stroke="none" transform="matrix(1 0 0 1 103 717 )" />
  </g>
</svg>