<?xml version="1.0" encoding="utf-8"?>
<svg version="1.1" xmlns:xlink="http://www.w3.org/1999/xlink" width="16px" height="6px" xmlns="http://www.w3.org/2000/svg">
  <g transform="matrix(1 0 0 1 -85 -355 )">
    <path d="M 15.8680412421875 1.0824742265625  C 15.8680412421875 1.6268041171875  15.4226804140625 2.0721649453125  14.8783505234375 2  L 1.0226804140625 2  C 0.478350523437499 2.0721649453125  0.0329896953124988 1.6268041171875  0.0329896953124988 1.0824742265625  C 0.0329896953124988 0.538144335937499  0.478350523437499 0.0927835078124986  1.0226804140625 0  L 14.8783505234375 0  C 15.4226804140625 0.0927835078124986  15.8680412421875 0.538144335937499  15.8680412421875 1.0824742265625  Z M 9.435051546875 4.2989690625  C 9.435051546875 5.1402061640625  8.7917525703125 5.783505140625  7.95051546875 5.7835051640625  C 7.10927834375 5.7835051640625  6.465979390625 5.1402061875  6.465979390625 4.2989690625  C 6.465979390625 3.5072164921875  7.1092783671875 2.814432984375  7.95051546875 2.814432984375  C 8.7422680390625 2.814432984375  9.435051546875 3.4577319609375  9.435051546875 4.2989690625  Z " fill-rule="nonzero" fill="#666666" stroke="none" transform="matrix(1 0 0 1 85 355 )" />
  </g>
</svg>