<?xml version="1.0" encoding="utf-8"?>
<svg version="1.1" xmlns:xlink="http://www.w3.org/1999/xlink" width="18px" height="24px" xmlns="http://www.w3.org/2000/svg">
  <g transform="matrix(1 0 0 1 -84 -340 )">
    <path d="M 17.8577319609375 20.536082484375  C 17.8577319609375 22.465979390625  16.3237113515625 24  14.393814421875 24  L 3.5072164921875 24  C 1.5773195859375 24  0.0432989765624998 22.465979390625  0 20.536082484375  L 0 3.7113401953125  C 0.0432989765624998 1.7814432890625  1.5773195859375 0.247422679687499  3.5072164921875 0.247422679687499  L 14.393814421875 0.247422679687499  C 16.323711328125 0.247422679687499  17.8577319375 1.7814432890625  17.8577319609375 3.7113401953125  L 17.8577319609375 20.536082484375  Z M 14.393814421875 2.2268041171875  L 3.5072164921875 2.2268041171875  C 2.6659793671875 2.2268041171875  2.0226804140625 2.87010309375  2 3.7113401953125  L 2 20.536082484375  C 2.0226804140625 21.377319609375  2.665979390625 22.0206185625  3.5072164921875 22  L 14.393814421875 22  C 15.235051546875 22.0206185625  15.8783505 21.3773195859375  15.8783505234375 20.536082484375  L 15.8783505234375 3.7113401953125  C 15.8783505234375 2.8701030703125  15.235051546875 2.2268041171875  14.393814421875 2.2268041171875  Z " fill-rule="nonzero" fill="#666666" stroke="none" transform="matrix(1 0 0 1 84 340 )" />
  </g>
</svg>