<?xml version="1.0" encoding="utf-8"?>
<svg version="1.1" xmlns:xlink="http://www.w3.org/1999/xlink" width="25px" height="24px" xmlns="http://www.w3.org/2000/svg">
  <g transform="matrix(1 0 0 1 -81 -398 )">
    <path d="M 6.50158757424999 20.2520146593407  L 12.1694712474519 17.251282043956  L 21.0066286313444 17.251282043956  C 21.007128789815 17.2512827965074  21.0076289487796 17.2512831727832  21.0081291078164 17.2512831727832  C 21.5586965985797 17.2512831727832  22.0050969462756 16.8051061333944  22 16.2545387032967  L 22 3.74448448351648  C 22.0034464072491 3.19401750786785  21.5570983539887 2.74856348291225  21.0066286313444 3  L 2.99923257185361 3  C 2.99873240605726 2.74774039028378  2.99823223976612 2.74774001399694  2.9977320734036 2.74774001399694  C 2.44716458262732 2.74774001399694  2.00076423492614 3.19391705340582  2 3.74448448351648  L 2 16.2545387032967  C 2.00241477401891 16.8050056875066  2.4487628406299 17.2504597159835  2.99923257185361 17.251282043956  L 6.50158757424999 17.251282043956  L 6.50158757424999 20.2520146593407  Z M 21.0021275325108 19.2517704615385  L 12.6595909104279 19.2517704615385  L 6.25052628131357 22.7876336923077  C 5.2842904057009 23.3207638681319  4.50109920866054 22.8581509230769  4.50109920866054 21.7543814505495  L 4.50109920866054 19.2517704615385  L 3.00373367068717 19.2517704615385  C 1.34493196303883 19.2514943464698  0.000276490159799112 17.9068388534158  0 16.2480371208791  L 0 3.75098608791209  C 0 3.75048583837625  0 3.74998558878877  0 3.74948533919043  C 0 2.09139785605886  1.3441454637341 0.747252372157461  3.00223292198803 0.747252372157461  C 3.00273317157887 0.747252372157461  3.00323342115884 0.747252497189226  3.00373367068717 1  L 21.0021275325108 1  C 22.6609292401591 0.747528862321405  24.0055847130382 2.09218435537539  24 3.75098608791209  L 24 16.2480371208791  C 24.0058610781662 16.2485373704114  24.005861203198 16.249037620006  24.005861203198 16.2495378696008  C 24.005861203198 17.9076253527323  22.6617157394639 19.2517708366337  21.0036282812099 19.2517708366337  C 21.0031280316173 19.2517708366337  21.0026277820409 19.251770711602  21.0021275325108 19.2517704615385  Z M 8.00177226900176 10.2495726483516  C 8.00177226900176 11.0781311646638  7.33014607206203 11.7498386640115  6.50158757424999 11.7499389450549  C 5.67277656536037 11.749938956044  5.00103969864507 11.07820207925  5.00103969864507 10.2495726483516  C 5.00103969864507 9.42094321745325  5.67277656536037 8.74920634065934  6.50140598382617 8.74920634065934  C 7.33014607206203 8.74930663269184  8.00177226900176 9.42101413203953  8.00177226900176 10.2495726483516  Z M 13.5031152853617 10.2495726483516  C 13.5031152853617 11.0781311646638  12.831489088422 11.7498386640115  12.00293059061 11.7499389450549  C 11.1741195817204 11.749938956044  10.5023827150051 11.07820207925  10.5023827150051 10.2495726483516  C 10.5023827150051 9.42094321745325  11.1741195817204 8.74920634065934  12.0027490001862 8.74920634065934  C 12.831489088422 8.74930663269184  13.5031152853617 9.42101413203953  13.5031152853617 10.2495726483516  Z M 19.0044583017217 10.2495726483516  C 19.0044583017217 11.0781311646638  18.332832104782 11.7498386640115  17.50427360697 11.7499389450549  C 16.6754625980803 11.749938956044  16.003725731365 11.07820207925  16.003725731365 10.2495726483516  C 16.003725731365 9.42094321745325  16.6754625980803 8.74920634065934  17.5040920165461 8.74920634065934  C 18.332832104782 8.74930663269184  19.0044583017217 9.42101413203953  19.0044583017217 10.2495726483516  Z " fill-rule="nonzero" fill="#666666" stroke="none" transform="matrix(1 0 0 1 81 398 )" />
  </g>
</svg>