<?xml version="1.0" encoding="utf-8"?>
<svg version="1.1" xmlns:xlink="http://www.w3.org/1999/xlink" width="54px" height="54px" xmlns="http://www.w3.org/2000/svg">
  <g transform="matrix(1 0 0 1 -36 -18 )">
    <path d="M 36 18  L 90 18  L 90 72  L 36 72  L 36 18  " fill-rule="nonzero" fill="#cccccc" stroke="none" />
    <path d="M 40 22  L 86 22  L 86 68  L 40 68  L 40 22  " fill-rule="nonzero" fill="#ffffff" stroke="none" />
    <path d="M 68.13 34.2  C 65.862 34.2  64.08 32.418  64.08 30.15  C 64.08 27.882  65.862 26.1  68.13 26.1  C 70.398 26.1  72.18 27.882  72.18 30.15  C 72.18 32.418  70.398 34.2  68.13 34.2  " fill-rule="nonzero" fill="#cccccc" stroke="none" />
    <path d="M 42 67  L 42 43.35  L 52.75 32.6  L 67.8 41.2  L 76.4 39.05  L 85 41.2  L 85 67  L 42 67  " fill-rule="nonzero" fill="#169bd5" stroke="none" />
  </g>
</svg>