<?xml version="1.0" encoding="utf-8"?>
<svg version="1.1" xmlns:xlink="http://www.w3.org/1999/xlink" width="13px" height="13px" xmlns="http://www.w3.org/2000/svg">
  <g transform="matrix(1 0 0 1 -90 -299 )">
    <path d="M 12.0439022226562 6.483384296875  C 12.0439022226562 3.36732094140625  9.508773046875 0.832227765624999  6.3927097265625 0.832227765624999  C 3.27664640625 0.832227765624999  0.741553195312498 3.3673209765625  0.741553195312498 6.483384296875  C 0.741553195312498 9.5994476171875  3.27664640625 12.134540828125  6.3927097265625 12.134540828125  C 9.508773046875 12.134540828125  12.0439022226562 9.5994476171875  12.0439022226562 6.483384296875  Z M 9.7054876640625 6.48338426171875  C 9.7054876640625 8.3100458125  8.21937127734375 9.796126234375  6.3927097265625 9.796126234375  C 4.5660482109375 9.796126234375  3.07996775390625 8.3100098125  3.07996775390625 6.48338426171875  C 3.07996775390625 4.6567587109375  4.56604817578125 3.1706422890625  6.3927097265625 3.1706422890625  C 8.2193712421875 3.1706422890625  9.7054876640625 4.6567227109375  9.7054876640625 6.48338426171875  Z " fill-rule="nonzero" fill="#666666" stroke="none" transform="matrix(1 0 0 1 90 299 )" />
  </g>
</svg>