<?xml version="1.0" encoding="utf-8"?>
<svg version="1.1" xmlns:xlink="http://www.w3.org/1999/xlink" width="32px" height="35px" xmlns="http://www.w3.org/2000/svg">
  <g transform="matrix(1 0 0 1 -80 -291 )">
    <path d="M 31.7492940273438 29.2611569414062  C 32.024831171875 28.9978874296875  32.0348323867187 28.5610356210938  31.771562875 28.2854264765625  L 26.7143276992187 22.991148  C 27.4903215859375 22.0196626523437  28.1277374101563 20.9507913632812  28.6153508007813 19.7979889570313  C 29.3275958945312 18.11404265625  29.6887190664063 16.325946984375  29.6887190664063 14.483348296875  C 29.6887190664063 12.640749609375  29.3275958945313 10.8526539023437  28.6153508007813 9.16870763671875  C 27.927641078125 7.54282599609375  26.9433843789063 6.08286385546875  25.6899222460938 4.82936572265625  C 24.436460078125 3.5759035546875  22.9764979375 2.591646890625  21.350616296875 1.9039731328125  C 19.6666699960937 1.19176396875  17.8785743242188 0.83064083203125  16.0359756015625 0.83064083203125  C 14.1933768789062 0.83064083203125  12.4052812070313 1.19176396875  10.7213349414063 1.90400909765625  C 9.09545330078125 2.5917188203125  7.63549116015625 3.57597551953125  6.38199302734375 4.8294016875  C 5.128530859375 6.08286385546875  4.1442741953125 7.54282599609375  3.4566004375 9.1687436015625  C 2.74435534375 10.8526899023437  2.383232171875 12.6407855742188  2.383232171875 14.4833842617187  C 2.383232171875 16.3259829492187  2.74439130859375 18.11407865625  3.4566004375 19.798024921875  C 3.96353275 20.9965163554688  4.6321034453125 22.1044931367188  5.4503686796875 23.1064138476562  L 0.503254796875 28.2854264765625  C 0.23998528515625 28.5610356210938  0.2499865 28.9978874296875  0.52559564453125 29.2611569414062  L 0.83919501953125 29.56072584375  C 0.889021234375 29.6339002382812  0.94827305078125 29.7029374101562  1.0177419765625 29.765858765625  L 1.04922063671875 29.7943514648437  C 1.09973039453125 29.8400764570312  1.15376576171875 29.8799014570312  1.2100316171875 29.9149416914062  L 1.21848588671875 29.9230002421875  C 1.40775356640625 30.1038136523437  1.67303770703125 30.1556904609375  1.90594378515625 30.0812209804687  C 2.05581818359375 30.0685935585937  2.204865109375 30.0272935429687  2.344270609375 29.9555581640625  C 2.5488638828125 29.85029353125  2.78184192578125 29.772082546875  3.02640412890625 29.772082546875  C 4.2851547109375 29.772082546875  5.30927233984375 30.7961642109375  5.30927233984375 32.0549507578125  C 5.30927233984375 32.3184001289062  5.2657418359375 32.573790984375  5.18098331640625 32.8144677890625  C 5.02679187109375 33.2523628945313  5.14698637890625 33.7714549453125  5.49551805859375 34.075233  C 5.5290833125 34.1302756640625  5.56944792578125 34.1822604375  5.61830280859375 34.2288848320313  L 6.2165412109375 34.7643817734375  C 6.51826863671875 35.0526183398438  6.99656435546875 35.077657359375  7.28476495703125 34.77589396875  L 13.8915415585938 27.9690929648438  C 14.5959439609375 28.0800777304688  15.3117506640625 28.1361277265625  16.0360116015625 28.1361277265625  C 16.820315828125 28.1361277265625  17.5947268046875 28.0704362695313  18.3554670273437 27.9403484765625  L 24.9901247148438 34.77589396875  C 25.27836128125 35.0776213945312  25.7566210351563 35.0526183398438  26.0583484609375 34.7643817734375  L 26.6565868632813 34.2288848320313  C 26.70540578125 34.1822604375  26.745806359375 34.1302396992188  26.7793716132812 34.075233  C 27.1279032929687 33.7714549453125  27.2480978007813 33.2523628945313  27.0939063554688 32.8144677890625  C 27.0091838007813 32.5738269492188  26.9656173320313 32.3184001289063  26.9656173320313 32.0549507578125  C 26.9656173320313 30.7961642109375  27.9896989960938 29.772082546875  29.2484855429688 29.772082546875  C 29.4930117460938 29.772082546875  29.7260257539063 29.85029353125  29.9306190625 29.9555581640625  C 30.0700245625 30.0272935429687  30.219107453125 30.0686294882813  30.3689458867188 30.0812209804687  C 30.6018519648438 30.1556904960937  30.8671721054688 30.1038136523437  31.0564037851563 29.9230002421875  L 31.0648580546875 29.9149416914062  C 31.1211239101563 29.8798654570312  31.1751952421875 29.8400764570312  31.2256690351563 29.7943514648437  L 31.2571476953125 29.765858765625  C 31.3266165859375 29.7029374101562  31.3858684375 29.633936203125  31.4356946523438 29.56072584375  L 31.7492940273438 29.2611569414062  Z M 11.2927355195313 27.2891899335938  L 7.55627284375 31.1387599335938  C 7.21860578125 29.4666136523437  5.97543265234375 28.1188594335937  4.36239429296875 27.6308143242188  L 7.07866066796875 24.7872302578125  C 8.16645516015625 25.735007671875  9.3880069140625 26.4987698203125  10.72137090625 27.0627594609375  C 10.91053065625 27.1427692148438  11.1010214921875 27.2180661679688  11.2927355195313 27.2891899335938  Z M 16.0359756015625 25.7977131328125  C 13.0138086132813 25.7977131328125  10.1725270351563 24.620807109375  8.03553989453125 22.48381996875  C 5.8985527890625 20.3468328632813  4.72164673046875 17.50555125  4.72164673046875 14.4833842617187  C 4.72164673046875 11.4612172734375  5.8985527890625 8.6199356953125  8.03553989453125 6.4829485546875  C 10.172527 4.34596144921875  13.0138086132812 3.169055390625  16.0359756015625 3.169055390625  C 19.0581425898438 3.169055390625  21.899388203125 4.34596144921875  24.0364113085938 6.4829485546875  C 26.1733984140625 8.61993566015625  27.3503044726563 11.4612172734375  27.3503044726563 14.4833842617187  C 27.3503044726563 17.50555125  26.1733984140625 20.346832828125  24.0364113085938 22.48381996875  C 21.899424203125 24.620807109375  19.0581425898438 25.7977131328125  16.0359756015625 25.7977131328125  Z M 27.9124233789063 27.6308143242187  C 26.2993850195313 28.1188593984375  25.0561759257813 29.4666136523437  24.7185088632813 31.1387599335938  L 20.92768703125 27.2331759023437  C 21.0693230195313 27.1787448164063  21.2103473945312 27.1220832070312  21.350580296875 27.0627594609375  C 22.7291296328125 26.4796667929688  23.98780825 25.6826271796875  25.103088109375 24.6898083164062  L 27.9124233789063 27.6308143242187  Z " fill-rule="nonzero" fill="#666666" stroke="none" transform="matrix(1 0 0 1 80 291 )" />
  </g>
</svg>