<?xml version="1.0" encoding="utf-8"?>
<svg version="1.1" xmlns:xlink="http://www.w3.org/1999/xlink" width="29px" height="28px" xmlns="http://www.w3.org/2000/svg">
  <g transform="matrix(1 0 0 1 -163 -294 )">
    <path d="M 17.7165224731504 3.64169421082308  C 17.7133013153958 5.20115447773197  16.4551459911277 6.4673065504941  14.8957374324693 6.48040796673605  C 14.8897612688577 6.4804457116714  14.88378500095 6.48046458428023  14.8778087181427 6.48046458428023  C 13.3100304018052 6.48046458428023  12.0390949625703 5.20952914504537  12.0390949625703 3.64175082870785  C 12.0390949625703 2.07397251237033  13.3100304018052 0.803037073135477  14.8778087181427 0.803037073135477  C 16.4455649238665 0.803037073135477  17.7164912043971 2.07393800541107  17.7165224731504 3.64169421082308  Z M 16.2403913221192 3.64169421116367  C 16.2403913221192 2.89906237405425  15.6383692695787 2.29704032136123  14.8957374324693 2.29704032117313  C 14.1531055948862 2.29704032117313  13.5510835421381 2.89906237392124  13.5510835421381 3.64169421116367  C 13.5510835421381 4.3843260484061  14.1531055948862 4.98634810115421  14.8957374321287 4.98634810115421  C 15.6383692693711 4.98634810115421  16.2403913221192 4.3843260484061  16.2403913221192 3.64169421116367  Z M 26.226687536878 26.9848857227625  C 26.1586482066145 27.4234120284784  25.7799951774902 27.7461565593768  25.3362278577105 27.7438681408893  L 4.67039164007569 27.7438681408893  C 4.2425034135086 27.7433832217572  3.87460928167741 27.44055879213  3.79188444658467 27.0207431525449  L 2.99106834187323 22.9867814829139  C 2.97981969503184 22.929696739093  2.97415529507309 22.8716524586556  2.97415529507309 22.8134699867859  C 2.97415529507309 22.318778697446  3.37488456424057 21.9175951301706  3.86957553604541 22  L 21.7504841427815 22  C 22.2455125449093 21.9171187456539  22.6467677495774 22.3184421399778  22.6467677495774 22.8134705492526  C 22.6467677495774 23.3084989585274  22.2455125449093 23.7098223528513  21.7504841427815 23.7099064712583  L 4.96322738894986 23.7099064712583  L 5.4054691140965 26  L 24.571269183122 26  L 26.7167391771429 12.3072415069442  L 21.0632166104447 15.1997414075307  C 20.7042342808104 15.3840287444233  20.2663673318023 15.3057508558424  19.9934697282119 15.0085017456954  L 14.8957374324693 9.4565752394702  L 9.55895555909177 15.2774325235572  C 9.28273557912622 15.5784686900891  8.83791167514681 15.6546540035244  8.47725621774834 15.4626959561779  L 3.09864065812677 12.6120297149291  L 4.20424497082308 19.0783208451088  C 4.2131397475707 19.129636863783  4.21761177462774 19.1816218824395  4.21761177462774 19.2337030769915  C 4.21761177462774 19.736173255147  3.81027921368999 20.1435058160847  3.30780903553453 20.1435058160847  C 2.86528963261842 20.1435058160847  2.48694954063461 19.8251032254962  2.41137310024597 19.3890853088742  L 0.983051864673605 11.1179698224409  C 0.972771813803604 11.0633243790401  0.967598343969688 11.0078409835148  0.967598343969688 10.9522369914786  C 0.967598343969688 10.4571490954065  1.36894638284558 10.0558010565307  1.86403427891765 10.0558010565307  C 2.01577522754707 10.0558010565307  2.16503297587167 10.0943194631643  2.29782455443709 10.1677477421381  L 8.71032953960265 13.5502993095553  L 14.2383511007001 7.51429741884579  C 14.4083635952218 7.32761877489338  14.6492198273068 7.22129484405112  14.9017136620246 7.22146166997162  C 15.1542075057535 7.22129483675879  15.3950637486461 7.32761876822321  15.5650762492337 7.51429741884579  L 20.8600244632734 13.2873447612488  L 27.4757215959508 9.91076944961211  C 27.6013168599237 9.84712243427282  27.7401386042785 9.81395542573364  27.8809402835796 9.81395542573364  C 28.3760281796517 9.81395542573364  28.7773762185276 10.2153034646095  28.7773762185276 10.7103913606816  C 28.7773762185276 10.7568168517699  28.77376973437 10.8031721964732  28.7665893140208 10.8490390449196  L 26.226687536878 26.9848857227625  Z " fill-rule="nonzero" fill="#fd994b" stroke="none" transform="matrix(1 0 0 1 163 294 )" />
  </g>
</svg>