<?xml version="1.0" encoding="utf-8"?>
<svg version="1.1" xmlns:xlink="http://www.w3.org/1999/xlink" width="32px" height="30px" xmlns="http://www.w3.org/2000/svg">
  <g transform="matrix(1 0 0 1 -244 -294 )">
    <path d="M 27.6250000117188 29.625  L 27.6250000117187 27.375  L 23.425 27.375  C 32.2 17.3249999882812  32.65 10.8750000117188  30.1000000117187 7.87499998828125  C 27.475 4.72499998828125  22.4500000117187 4.7999999765625  18.475 7.125  L 13.525 7.125  C 9.47499999999999 4.875  4.3 4.57500001171875  1.89999998828124 7.87499998828125  C -0.425000000000006 11.0999999765625  -0.200000000000006 17.3249999882812  8.57499999999999 27.375  L 4.37499998828125 27.375  L 4.37499998828125 29.625  L 27.6250000117188 29.625  Z M 13.3 27.375  L 11.5749999882812 27.375  C 5.27499998828125 20.6999999882812  0.925 12.5999999882813  3.625 9.22499998828125  C 5.425 6.97499998828125  9.17500001171875 7.2749999765625  12.175 8.925  C 10.8999999882812 14.3999999882812  11.6500000117187 22.3500000117188  13.3 27.375  Z M 17.6499999882812 9.375  C 18.925 14.6249999882813  18.025 22.875  16.2999999882813 27.375  L 15.7000000117187 27.375  C 13.9000000117187 22.9499999882812  13.075 14.6249999882812  14.3500000117187 9.375  L 17.6499999882812 9.375  Z M 18.6250000117187 27.3000000117188  L 18.6250000117187 27.375  C 20.3500000234375 22.3500000117188  21.1000000117187 14.3999999882813  19.7500000117187 8.925  C 22.75 7.27500001171875  26.5000000117187 6.97499998828125  28.3000000117188 9.22499998828125  C 30.9250000234375 12.5999999882813  26.6500000234375 20.6999999882812  20.3499999882813 27.3000000117188  L 18.6250000117187 27.3000000117188  Z M 13.75 2.625  C 13.75 3.82499998828125  14.7249999882813 4.875  16 4.875  C 17.1999999882812 4.875  18.25 3.82499998828125  18.25 2.625  C 18.25 1.42500001171875  17.2750000117187 0.375  16 0.375  C 14.8000000117188 0.375  13.75 1.34999998828125  13.75 2.625  Z " fill-rule="nonzero" fill="#666666" stroke="none" transform="matrix(1 0 0 1 244 294 )" />
  </g>
</svg>