<?xml version="1.0" encoding="utf-8"?>
<svg version="1.1" xmlns:xlink="http://www.w3.org/1999/xlink" width="22px" height="15px" xmlns="http://www.w3.org/2000/svg">
  <g transform="matrix(1 0 0 1 -331 -304 )">
    <path d="M 11 12.4091796875  L 1.993671875 1.2836328125  C 1.80826822253 1.05445182365686  1.52925806972281 0.921287977886905  1.23447265625 0.921287977886905  C 0.695153054851134 0.921287977886905  0.257948134136905 1.35849289860113  0.257948134136905 1.8978125  C 0.257948134136905 2.12138056258636  0.334661543272144 2.33817914480678  0.4752734375 2.5119921875  L 10.2409765625 14.575859375  C 10.4263313179247 14.8051196924483  10.705359434154 14.9383431916715  11.00017578125 14.9383431916715  C 11.294992128346 14.9383431916715  11.5740202445753 14.8051196924483  11.759375 14.575859375  L 21.5247265625 2.5119921875  C 21.6653384567278 2.33817914480678  21.7420518658631 2.12138056258636  21.7420518658631 1.8978125  C 21.7420518658631 1.35849289860113  21.3048469451489 0.921287977886905  20.76552734375 0.921287977886905  C 20.4707419302772 0.921287977886905  20.19173177747 1.05445182365686  20.006328125 1.2836328125  L 11 12.4091796875  Z " fill-rule="nonzero" fill="#666666" stroke="none" transform="matrix(1 0 0 1 331 304 )" />
  </g>
</svg>