<?xml version="1.0" encoding="utf-8"?>
<svg version="1.1" xmlns:xlink="http://www.w3.org/1999/xlink" width="36px" height="36px" xmlns="http://www.w3.org/2000/svg">
  <g transform="matrix(1 0 0 1 -324 -291 )">
    <path d="M 35.3605078125 14.7065625  C 35.6205976565268 14.3848280264909  35.6497525394844 13.9341245218331  35.43328125 13.5815625  L 27.6205078125 0.8862890625  C 27.4428274562326 0.597587323747273  27.1280595381836 0.42176981011398  26.7890625 1  L 9.2109375 1  C 8.87194046181641 0.42176981011398  8.5571725437674 0.597587323747272  8.3794921875 0.8862890625  L 0.56671875 13.5815625  C 0.350148081152887 13.9340515435655  0.379161879581307 14.3847513249779  0.639140625 14.7065625  L 17.240625 35.2142578125  C 17.4259797554247 35.4435181299483  17.705007871654 35.5767416291716  17.99982421875 35.5767416291716  C 18.294640565846 35.5767416291716  18.5736686820753 35.4435181299483  18.7590234375 35.2142578125  L 35.3605078125 14.7065625  Z M 33.407578125 14.0164453125  L 18 33.0500390625  L 2.592421875 14.0164453125  L 9.7565625 3  L 26.24484375 3  L 33.407578125 14.0164453125  Z " fill-rule="nonzero" fill="#666666" stroke="none" transform="matrix(1 0 0 1 324 291 )" />
  </g>
</svg>