<?xml version="1.0" encoding="utf-8"?>
<svg version="1.1" xmlns:xlink="http://www.w3.org/1999/xlink" width="16px" height="16px" xmlns="http://www.w3.org/2000/svg">
  <g transform="matrix(1 0 0 1 -105 -4 )">
    <path d="M 15.157894734375 15.157894734375  C 15.157894734375 15.62273684375  14.781052625 16  14.31578946875 16  L 1.68421053125 16  C 1.218947375 16  0.842105265625 15.62273684375  0.842105265625 15.157894734375  L 0.842105265625 7.578947375  C 0.842105265625 7.113684203125  1.218947375 6.736842109375  1.68421053125 6.736842109375  L 2.947368421875 6.736842109375  L 2.947368421875 5.052631578125  C 2.947368421875 2.261894734375  5.209684203125 0  8 0  C 10.790315796875 0  13.052631578125 2.261894734375  13.052631578125 5.052631578125  L 13.052631578125 6.736842109375  L 14.31578946875 6.736842109375  C 14.781052625 6.736842109375  15.157894734375 7.113684203125  15.157894734375 7.578947375  L 15.157894734375 15.157894734375  Z M 12.2105263125 6.736842109375  L 12.2105263125 5.052631578125  C 12.2105263125 2.727157890625  10.3254736875 0.842105265625  8 0.842105265625  C 5.6745263125 0.842105265625  3.7894736875 2.727157890625  3.7894736875 5.052631578125  L 3.7894736875 6.736842109375  L 12.2105263125 6.736842109375  Z M 14.31578946875 15  L 14.31578946875 7.578947375  L 13.052631578125 7.578947375  L 2.947368421875 7.578947375  L 1.68421053125 7.578947375  L 1.68421053125 15  L 14.31578946875 15  Z M 7.578947375 9.68421053125  C 7.578947375 9.45178946875  7.767578953125 9.263157890625  8 9.263157890625  C 8.232421046875 9.263157890625  8.421052625 9.45178946875  8.421052625 9.68421053125  L 8.421052625 13.052631578125  C 8.421052625 13.285052625  8.232421046875 13.473684203125  8 13.473684203125  C 7.767578953125 13.473684203125  7.578947375 13.285052625  7.578947375 13.052631578125  L 7.578947375 9.68421053125  Z " fill-rule="nonzero" fill="#ffffff" stroke="none" transform="matrix(1 0 0 1 105 4 )" />
  </g>
</svg>