<?xml version="1.0" encoding="utf-8"?>
<svg version="1.1" xmlns:xlink="http://www.w3.org/1999/xlink" width="42px" height="42px" xmlns="http://www.w3.org/2000/svg">
  <g transform="matrix(1 0 0 1 -16 -59 )">
    <path d="M 8.712 33.312  C 15.5062850109742 40.1022468025872  26.5177149890258 40.1022468025872  33.312 33.312  C 36.5773706387802 30.0485701463177  38.412 25.6212444071495  38.412 21.0046851019404  C 38.412 11.3949304548846  30.6217546470558 3.60468510194039  21.012 3.60468510194039  C 11.4022453529442 3.60468510194039  3.612 11.3949304548846  3.612 21.0046851019404  C 3.612 25.6212444071495  5.4466293612198 30.0485701463177  8.712 33.312  Z M 35.4 6.6  C 43.3334486739323 14.5609477119292  43.3334486739323 27.4390522880708  35.4 35.4  C 31.5722487106061 39.2410190979443  26.372734165424 41.4  20.9500865054493 41.4  C 9.68347760890107 41.4  0.550086505449252 32.2666088965482  0.550086505449252 21  C 0.550086505449252 9.73339110345182  9.68347760890107 0.600000000000005  20.9500865054493 0.600000000000005  C 26.372734165424 0.600000000000005  31.5722487106061 2.75898090205575  35.4 6.6  Z " fill-rule="nonzero" fill="#2ab795" stroke="none" transform="matrix(1 0 0 1 16 59 )" />
  </g>
</svg>