<?xml version="1.0" encoding="utf-8"?>
<svg version="1.1" xmlns:xlink="http://www.w3.org/1999/xlink" width="23px" height="16px" xmlns="http://www.w3.org/2000/svg">
  <g transform="matrix(1 0 0 1 -26 -72 )">
    <path d="M 8.6 12.008  L 19.544 1.184  C 19.8284955283279 0.792511682140137  20.2831976785327 0.560859340673794  20.7671406593262 0.560859340673794  C 21.6021952010704 0.560859340673794  22.2791406593262 1.23780479892963  22.2791406593262 2.07285934067379  C 22.2791406593262 2.55680232146734  22.0474883178599 3.01150447167205  21.656 3.296  L 9.94400000000001 15.008  C 9.26960054085384 15.6419729731875  8.21839945914617 15.6419729731875  7.544 15.008  L 0.872000000000003 8.38399999999999  C 0.48051168214014 8.09950447167205  0.248859340673794 7.64480232146733  0.248859340673794 7.16085934067378  C 0.248859340673794 6.32580479892962  0.925804798929635 5.64885934067378  1.76085934067379 5.64885934067378  C 2.24480232146735 5.64885934067378  2.69950447167205 5.88051168214013  2.984 6.27199999999999  L 8.6 12.008  Z " fill-rule="nonzero" fill="#2ab795" stroke="none" transform="matrix(1 0 0 1 26 72 )" />
  </g>
</svg>