<?xml version="1.0" encoding="utf-8"?>
<svg version="1.1" xmlns:xlink="http://www.w3.org/1999/xlink" width="44px" height="42px" xmlns="http://www.w3.org/2000/svg">
  <g transform="matrix(1 0 0 1 -105 -183 )">
    <path d="M 9.5546875 4  L 34.33984375 4  C 37.8284107883866 3.92936915331781  40.6526620966822 6.7536204616134  40 10.2421875  L 40 25.11328125  C 40.6526620966822 28.6018482883866  37.8284107883866 31.4260995966822  34.33984375 31.44140625  L 28.75 31.44140625  L 28.75 35.23828125  L 23.001953125 31  L 9.5546875 31  C 6.06612046161341 31.4260995966822  3.24186915331781 28.6018482883866  4 25.11328125  L 4 10.2421875  C 3.24186915331781 6.7536204616134  6.06612046161341 3.92936915331781  9.5546875 4  Z M 43 10.2421875  C 43.83203125 5.021484375  39.560546875 0.75  34.33984375 1  L 9.5546875 1  C 4.333984375 0.75  0.0625 5.021484375  0 10.2421875  L 0 25.11328125  C 0.0625 30.333984375  4.333984375 34.60546875  9.5546875 34  L 22 34  L 32.125 41.197265625  L 32.125 34.60546875  L 34.33984375 34.60546875  C 39.560546875 34.60546875  43.83203125 30.333984375  43 25.11328125  L 43 10.2421875  Z " fill-rule="nonzero" fill="#666666" stroke="none" transform="matrix(1 0 0 1 105 183 )" />
  </g>
</svg>