<?xml version="1.0" encoding="utf-8"?>
<svg version="1.1" xmlns:xlink="http://www.w3.org/1999/xlink" width="38px" height="38px" xmlns="http://www.w3.org/2000/svg">
  <g transform="matrix(1 0 0 1 -296 -184 )">
    <path d="M 10.0979999648438 14.8489999589844  C 8.60639999414062 16.3519999941406  11.7480000234375 20.1289999882813  15.0323999941406 23.3894000175781  C 18.3162000058594 26.6492000351562  22.1171999941406 29.7632  23.6093999765625 28.2596000058594  C 25.7459999941406 26.1074  27.0612 24.2348000234375  31.8024 28.0159999941406  C 36.5436 31.799  32.9225999941406 34.3447999941406  30.8532000234375 36.4304000175781  C 28.4652 38.8364000234375  19.5210000175781 36.5990000410156  10.6554000410156 27.8006000058594  C 1.7904000234375 19.0003999882812  -0.515399976562501 10.0735999765625  1.8743999765625 7.6664  C 3.94439995898438 5.5807999765625  6.463199953125 1.94179998828125  10.2791999707031 6.6553999765625  C 14.0969999707031 11.3665999707031  12.2345999824219 12.6961999941406  10.0979999648438 14.8489999589844  Z M 26.9160000117188 11.4865999941406  C 24.8549999941406 9.42619998828125  22.2690000058594 8.2267999765625  19.7940000234375 7.8379999765625  C 19.7940000234375 7.8379999765625  18.8034000292969 7.68319995898437  18.1098000351563 8.37739996484375  C 17.3958000117187 9.09139998828125  17.3646000351563 10.3213999648437  18.1170000175781 11.0731999882812  C 18.5616 11.5177999707031  19.1886000117187 11.6125999765625  19.1886000117187 11.6125999765625  C 20.4107999941406 11.8417999707031  22.2528000058594 12.2299999589844  24.2130000058594 14.1896  C 26.1725999941406 16.1491999882812  26.5607999824219 17.9912  26.7900000292969 19.2139999941406  C 26.7900000292969 19.2139999941406  26.8848000351562 19.8410000058594  27.3294000175781 20.2855999882812  C 28.0812000410156 21.0374000117187  29.3112000175781 21.0067999941406  30.0252000410156 20.2927999707031  C 30.7188000351562 19.5991999765625  30.5646000292969 18.6085999824219  30.5646000292969 18.6085999824219  C 30.1764000410156 16.1329999882812  28.9764000175781 13.547  26.9160000117188 11.4865999941406  Z M 18.1115999648437 4.69039998828125  C 21.4158000058594 4.19180000585938  25.4934000175781 5.7236000234375  29.0862 9.31640000585937  C 32.6789999824219 12.9091999882812  34.2108 16.9868  33.7122000175781 20.2909999882812  C 33.7122000175781 20.2909999882812  33.5381999941406 21.3373999648437  34.2216 22.0207999707031  C 34.9907999941406 22.7899999648437  36.2100000234375 22.7455999941406  36.9300000058594 22.0261999707031  C 37.3926000234375 21.563599953125  37.4933999882812 20.8105999589844  37.4933999882812 20.8105999589844  C 37.9055999707031 17.9551999824219  37.3871999707031 12.210799953125  31.7892000058594 6.61339994726562  C 26.1912000410156 1.01599994140624  20.4474000234375 0.497599994140626  17.5919999941406 0.909200017578125  C 17.5919999941406 0.909200017578125  16.8396000117187 1.0094000234375  16.3763999824219 1.4726  C 15.6564 2.19259998242187  15.6125999882813 3.41180001171875  16.3817999824219 4.18100000585937  C 17.0651999882813 4.86440001171875  18.1115999648437 4.69039998828125  18.1115999648437 4.69039998828125  Z " fill-rule="nonzero" fill="#666666" stroke="none" transform="matrix(1 0 0 1 296 184 )" />
  </g>
</svg>