<?xml version="1.0" encoding="utf-8"?>
<svg version="1.1" xmlns:xlink="http://www.w3.org/1999/xlink" width="32px" height="26px" xmlns="http://www.w3.org/2000/svg">
  <g transform="matrix(1 0 0 1 -22 -9 )">
    <path d="M 3.625 23  L 28.375 23  C 28.9963203435596 23.125  29.5 22.6213203435596  29 22  L 29 4  C 29.5 3.37867965644036  28.9963203435596 2.875  28.375 3  L 3.625 3  C 3.00367965644036 2.875  2.5 3.37867965644036  3 4  L 3 22  C 2.5 22.6213203435596  3.00367965644036 23.125  3.625 23  Z M 31.75 22  C 31.75 23.8639610306789  30.2389610306789 25.375  28.375 25  L 3.625 25  C 1.76103896932107 25.375  0.25 23.8639610306789  0.25 22  L 0.25 4  C 0.25 2.13603896932107  1.76103896932107 0.625  3.625 1  L 28.375 1  C 30.2389610306789 0.625  31.75 2.13603896932107  31.75 4  L 31.75 22  Z " fill-rule="nonzero" fill="#666666" stroke="none" transform="matrix(1 0 0 1 22 9 )" />
  </g>
</svg>