<?xml version="1.0" encoding="utf-8"?>
<svg version="1.1" xmlns:xlink="http://www.w3.org/1999/xlink" width="22px" height="17px" xmlns="http://www.w3.org/2000/svg">
  <g transform="matrix(1 0 0 1 -27 -15 )">
    <path d="M 4.8125 5.875  C 5.74448051533946 5.875  6.5 5.11948051533946  6.5 4.1875  C 6.5 3.25551948466054  5.74448051533946 2.5  4.8125 2.5  C 3.88051948466054 2.5  3.125 3.25551948466054  3.125 4.1875  C 3.125 5.11948051533946  3.88051948466054 5.875  4.8125 5.875  Z M 4.8125 0.249999999999998  C 6.98712120245875 0.249999999999998  8.75 2.01287879754125  8.75 4.1875  C 8.75 6.36212120245875  6.98712120245875 8.125  4.8125 8.125  C 2.63787879754125 8.125  0.875 6.36212120245875  0.875 4.1875  C 0.875 2.01287879754125  2.63787879754125 0.249999999999998  4.8125 0.249999999999998  Z M 16.02875 9.79  L 10.7075 15.62875  C 10.4939696993412 15.8946490245761  10.1713534706015 16.049337780992  9.83032930639912 16.049337780992  C 9.20900896283948 16.049337780992  8.70532930639912 15.5456581245517  8.70532930639912 14.924337780992  C 8.70532930639912 14.6222286266079  8.82683762630067 14.3328148404936  9.0425 14.12125  L 15.19625 7.37125  C 15.4094650299626 7.13667148246816  15.7117520033353 7.00293272743601  16.02875 7.00293272743601  C 16.3457479966646 7.00293272743601  16.6480349700374 7.13667148246816  16.86125 7.37125  L 20.8325 11.73625  C 21.0481623736993 11.9478148404936  21.1696706936009 12.2372286266079  21.1696706936009 12.539337780992  C 21.1696706936009 13.1606581245517  20.6659910371605 13.664337780992  20.0446706936009 13.664337780992  C 19.7036465293985 13.664337780992  19.3810303006588 13.509649024576  19.1675 13.24375  L 16.02875 9.79  Z M 6.86 11.91625  L 2.765 15.69625  C 2.56460158080117 15.858749632009  2.31443805235362 15.9474305586202  2.05643484148126 15.9474305586202  C 1.43511449792162 15.9474305586202  0.931434841481257 15.4437509021798  0.931434841481257 14.8224305586202  C 0.931434841481257 14.5369696669134  1.03995267759872 14.2621833531807  1.235 14.05375  L 6.10625 9.55375  C 6.53612272926374 9.16047659225303  7.19512727073625 9.16047659225303  7.625 9.55375  L 9.515 11.28625  C 9.74545440436541 11.4994595169639  9.87647559477558 11.7991703366879  9.87647559477558 12.113125  C 9.87647559477558 12.7352602920511  9.37213529205112 13.2396005947756  8.75 13.2396005947756  C 8.46637625823768 13.2396005947756  8.19319037940759 13.1326115074791  7.985 12.94  L 6.86 11.91625  Z " fill-rule="nonzero" fill="#666666" stroke="none" transform="matrix(1 0 0 1 27 15 )" />
  </g>
</svg>