<?xml version="1.0" encoding="utf-8"?>
<svg version="1.1" xmlns:xlink="http://www.w3.org/1999/xlink" width="64px" height="79px" xmlns="http://www.w3.org/2000/svg">
  <g transform="matrix(1 0 0 1 -156 -26 )">
    <path d="M 63.396875 76.05  C 63.378125 67.640625  60.134375 59.775  54.228125 53.821875  C 55.11875 49.771875  55.68125 45.759375  55.90625 41.840625  C 57.35 16.546875  35.103125 1.125  34.15625 0.478124999999999  C 33.246875 -0.140625000000001  32.05625 -0.131250000000001  31.15625 0.515625  C 30.25625 1.1625  9.096875 16.546875  9.453125 41.728125  C 9.509375 45.675  10.0625 49.490625  10.840625 53.04375  C 10.8125 53.071875  10.775 53.090625  10.746875 53.11875  C 4.30625 59.08125  0.603125000000002 67.528125  0.603125000000002 76.303125  C 0.603125000000002 77.746875  1.775 78.928125  3.228125 78.928125  C 4.68125 78.928125  5.853125 77.75625  5.853125 76.303125  C 5.853125 69.91875  8.20625 63.73125  12.378125 58.959375  C 12.921875 60.76875  13.484375 62.465625  14.028125 64.03125  C 14.39375 65.08125  15.3875 65.79375  16.503125 65  L 30.10625 65  L 30.10625 74.8125  C 30.10625 76.25625  31.278125 77.4375  32.73125 77.4375  C 34.184375 77.4375  35.35625 76.265625  35.35625 74.8125  L 35.35625 65  L 48.875 65  C 49.990625 65.79375  50.984375 65.090625  51.35 64.03125  C 51.81875 62.68125  52.240625 61.33125  52.64375 59.98125  C 56.196875 64.565625  58.146875 70.14375  58.146875 76.05  C 58.146875 77.49375  59.31875 78.675  60.771875 78.675  C 62.225 78.675  63.396875 77.503125  63.396875 76.05  Z M 50.665625 41.540625  C 50.328125 47.690625  49.08125 54.075  46.98125 60  L 35.346875 60  L 35.346875 57.76875  C 35.346875 56.325  34.175 55.14375  32.721875 55.14375  C 31.26875 55.14375  30.096875 56.315625  30.096875 57.76875  L 30.096875 60  L 18.36875 60  C 16.596875 55.2375  14.7875 48.590625  14.69375 41.653125  C 14.421875 22.93125  28.109375 9.83437500000001  32.7125 5.96250000000001  C 37.465625 9.78750000000001  51.725 22.85625  50.665625 41.540625  Z " fill-rule="nonzero" fill="#666666" stroke="none" transform="matrix(1 0 0 1 156 26 )" />
  </g>
</svg>