<?xml version="1.0" encoding="utf-8"?>
<svg version="1.1" xmlns:xlink="http://www.w3.org/1999/xlink" width="27px" height="64px" xmlns="http://www.w3.org/2000/svg">
  <g transform="matrix(1 0 0 1 -175 -46 )">
    <path d="M 26.096875 12.90625  C 26.096875 5.96875  20.453125 0.325000000000003  13.515625 0.325000000000003  C 6.578125 0.325000000000003  0.934375000000003 5.96875  0.934375000000003 12.90625  C 0.934375000000003 19.84375  6.578125 25.4875  13.515625 25.4875  C 20.453125 25.4875  26.096875 19.84375  26.096875 12.90625  Z M 20.85625 12.896875  C 20.85625 16.946875  17.565625 20.2375  13.515625 20.2375  C 9.465625 20.2375  6.175 16.946875  6.175 12.896875  C 6.175 8.846875  9.465625 5.55625  13.515625 5.55625  C 17.565625 5.55625  20.85625 8.846875  20.85625 12.896875  Z M 6 50.875  C 5.86562499999999 49.421875  4.684375 48.25  3.24062499999999 48.25  C 1.796875 48.25  0.615624999999994 49.421875  1 50.875  L 1 61.35625  C 0.615624999999994 62.8  1.78749999999999 63.98125  3.24062499999999 63.98125  C 4.684375 63.98125  5.86562499999999 62.809375  6 61.35625  L 6 50.875  Z M 26.8375 50.875  C 26.828125 49.421875  25.65625 48.25  24.2125 48.25  C 22.76875 48.25  21.5875 49.421875  21.5875 50.875  L 21.5875 61.35625  C 21.5875 62.8  22.759375 63.98125  24.2125 63.98125  C 25.665625 63.98125  26.8375 62.809375  26.8375 61.35625  L 26.8375 50.875  Z " fill-rule="nonzero" fill="#666666" stroke="none" transform="matrix(1 0 0 1 175 46 )" />
  </g>
</svg>