<?xml version="1.0" encoding="utf-8"?>
<svg version="1.1" xmlns:xlink="http://www.w3.org/1999/xlink" width="22px" height="22px" xmlns="http://www.w3.org/2000/svg">
  <g transform="matrix(1 0 0 1 -9 -4 )">
    <path d="M 21.4535143203125 11  C 21.4535143203125 5.236258578125  16.764507453125 0.5464856796875  11 0.5464856796875  C 5.236258578125 0.5464856796875  0.5464856796875 5.2362182421875  0.5464856796875 11  C 0.5464856796875 16.764507453125  5.2354925234375 21.4535143203125  11 21.4535143203125  C 16.7645074765625 21.4535143203125  21.4535143203125 16.764507453125  21.4535143203125 11  Z M 16.0391613828125 8.214527609375  C 16.3325090703125 8.506262609375  16.335492546875 8.9809971875  16.044483265625 9.275755953125  L 10.03924203125 15.3462303359375  C 10.0377503046875 15.3477220625  10.034726515625 15.34848809375  10.033234765625 15.3507458515625  C 10.0309770078125 15.352237578125  10.0309770078125 15.3552613671875  10.02871925 15.3567531171875  C 9.9807015078125 15.403238796875  9.9214756015625 15.4317430390625  9.8659588671875 15.463271046875  C 9.83822065625 15.4790350625  9.8157236796875 15.503023765625  9.7864534296875 15.514272265625  C 9.6964655234375 15.5502755  9.6011960703125 15.56902296875  9.5059669296875 15.56902296875  C 9.4099717578125 15.56902296875  9.313210578125 15.5502755  9.222456640625 15.5127805390625  C 9.192460671875 15.5000403125  9.16847196875 15.474519546875  9.1399677265625 15.4587958671875  C 9.0844509921875 15.427308171875  9.0267168125 15.3995296484375  8.9786990703125 15.3522779375  C 8.97720734375 15.3507862109375  8.9764413125 15.347762421875  8.9749495859375 15.346270671875  C 8.973457859375 15.3440129140625  8.9704340703125 15.3440129140625  8.9689423203125 15.34175515625  L 6.015428 12.306517953125  C 5.7266764765625 12.0095014296875  5.7334094609375 11.5347668515625  6.030425984375 11.246015328125  C 6.3274425078125 10.9580298359375  6.801411078125 10.9632710703125  7.090928609375 11.2610133125  L 9.511167828125 13.7480177421875  L 14.9786587578125 8.220534875  C 15.2696680390625 7.925776109375  15.745168625 7.9227926328125  16.0391613828125 8.214527609375  Z " fill-rule="nonzero" fill="#2ab795" stroke="none" transform="matrix(1 0 0 1 9 4 )" />
  </g>
</svg>