<?xml version="1.0" encoding="utf-8"?>
<svg version="1.1" xmlns:xlink="http://www.w3.org/1999/xlink" width="22px" height="22px" xmlns="http://www.w3.org/2000/svg">
  <g transform="matrix(1 0 0 1 -9 -4 )">
    <path d="M 21.5 11  C 21.5 16.78998790625  16.78998790625 21.5  11 21.5  C 5.21001209375 21.5  0.5 16.78998790625  0.5 11  C 0.5 5.21001209375  5.21001209375 0.5  11 0.5  C 16.78998790625 0.5  21.5 5.21001209375  21.5 11  Z M 20 11  C 20 6.0372396171875  15.9627603828125 2  11 2  C 6.0372396171875 2  2 6.0372396171875  2 11  C 2 15.9627603828125  6.0372396171875 20  11 20  C 15.9627603828125 20  20 15.9627603828125  20 11  Z " fill-rule="nonzero" fill="#666666" stroke="none" transform="matrix(1 0 0 1 9 4 )" />
  </g>
</svg>