<?xml version="1.0" encoding="utf-8"?>
<svg version="1.1" xmlns:xlink="http://www.w3.org/1999/xlink" width="36px" height="36px" xmlns="http://www.w3.org/2000/svg">
  <g transform="matrix(1 0 0 1 -163 -209 )">
    <path d="M 35.5 18  C 35.5 27.64997984375  27.64997984375 35.5  18 35.5  C 8.35002015625 35.5  0.5 27.64997984375  0.5 18  C 0.5 8.35002015625  8.35002015625 0.5  18 0.5  C 27.64997984375 0.5  35.5 8.35002015625  35.5 18  Z M 32.9887783984375 18  C 32.9887783984375 9.734981875  26.2637414453125 3.0112216015625  18 3.0112216015625  C 9.734981875 3.0112216015625  3.0112216015625 9.7349818359375  3.0112216015625 18  C 3.0112216015625 26.2637414453125  9.7349818359375 32.9887783984375  18 32.9887783984375  C 26.2637414453125 32.9887783984375  32.9887783984375 26.2638086328125  32.9887783984375 18  Z M 26.40639703125 15.1274022265625  C 26.892487578125 14.6349953125  26.8875151171875 13.843771015625  26.3975272265625 13.358755546875  C 25.9075393359375 12.8725305859375  25.1150383203125 12.8775030078125  24.6300228515625 13.36876765625  L 15.51753796875 22.5812391015625  L 11.4838059375 18.43623171875  C 11.00127671875 17.9399946484375  10.210052421875 17.9312592578125  9.7163015625 18.411235078125  C 9.22127402343749 18.8924876171875  9.210052421875 19.68498859375  9.691304921875 20.178739453125  L 14.6138287890625 25.237468125  C 14.616315 25.2412310546875  14.6213546484375 25.2412310546875  14.6238408984375 25.244993984375  C 14.626327109375 25.2474801953125  14.627603828125 25.25251984375  14.6300900390625 25.25500609375  C 14.708842890625 25.3324822265625  14.8063432421875 25.379989296875  14.8988711328125 25.4325359765625  C 14.9475876953125 25.4588093359375  14.986359375 25.5025534375  15.03635265625 25.5225104296875  C 15.18760921875 25.58500203125  15.3488778515625 25.6162478125  15.5088698046875 25.6162478125  C 15.6676522265625 25.6162478125  15.8263674609375 25.58500203125  15.9763473046875 25.524996640625  C 16.0250638671875 25.5049724609375  16.062626015625 25.46499125  16.1088563671875 25.439994609375  C 16.20259375 25.3875151171875  16.3000941015625 25.341217578125  16.380123671875 25.2624647265625  C 16.3826098828125 25.259978515625  16.3838866015625 25.2549388671875  16.38764953125 25.2524526171875  C 16.3901357421875 25.2486896875  16.393898671875 25.24748015625  16.397661640625 25.2449267578125  L 26.40639703125 15.1274022265625  Z " fill-rule="nonzero" fill="#ffffff" stroke="none" transform="matrix(1 0 0 1 163 209 )" />
  </g>
</svg>