<?xml version="1.0" encoding="utf-8"?>
<svg version="1.1" xmlns:xlink="http://www.w3.org/1999/xlink" width="24px" height="23px" xmlns="http://www.w3.org/2000/svg">
  <g transform="matrix(1 0 0 1 -369 -116 )">
    <path d="M 3.1718181796875 20.5345454609375  L 7.32327271875 19.66072728125  L 7.5769091015625 19.785636359375  C 8.95171394074287 20.4668760302253  10.4656690881147 20.8203002648559  12 20.8181818203125  C 17.413636359375 20.8181818203125  21.8181818203125 16.5358181796875  21.8181818203125 11.27272728125  C 21.8181818203125 6.009636359375  17.413636359375 1.72727271875  12 1.72727271875  C 6.586363640625 1.72727271875  2.1818181796875 6.009636359375  2.1818181796875 11.27272728125  C 2.1818181796875 13.3012727421875  2.838 15.2458181796875  4.08 16.8958181796875  L 4.3450908984375 17.247636359375  L 3.1718181796875 20.5345454609375  Z M 23.4545454609375 11.27272728125  C 23.4545454609375 17.4385454609375  18.3158181796875 22.4545454609375  12 22.4545454609375  C 10.29927271875 22.4545454609375  8.656363640625 22.092363640625  7.1121818203125 21.37672728125  L 3.031636359375 22.236363640625  C 2.93940020880061 22.2557501494897  2.84540266323977 22.2655217579542  2.75115116882858 22.2655217579542  C 1.99803560323099 22.2655217579542  1.38751480945358 21.6550009641768  1.38751480945358 20.9018853985792  C 1.38751480945358 20.7452678230513  1.41449531725413 20.5898207898433  1.46727271875 20.442363640625  L 2.51127271875 17.517636359375  C 1.2234545390625 15.662  0.5454545390625 13.512363640625  0.5454545390625 11.27272728125  C 0.5454545390625 5.1069091015625  5.6841818203125 0.0909091015624999  12 0.0909091015624999  C 18.3158181796875 0.0909091015624999  23.4545454609375 5.1069091015625  23.4545454609375 11.27272728125  Z M 6.54545455078125 10.1819780802265  C 7.14788456692862 10.1819780802265  7.63627533914857 10.670297271574  7.636363640625 11.27272728125  C 7.63636365234375 11.8753796420336  7.14794701102583 12.3637962833515  6.54545455078125 12.3637962833515  C 5.94296209053667 12.3637962833515  5.45454544921875 11.8753796420336  5.45454544921875 11.272887181789  C 5.45463376241393 10.670297271574  5.94302453463388 10.1819780802265  6.54545455078125 10.1819780802265  Z M 13.0909091015625 11.2727273272284  C 13.0909091015625 11.875219787473  12.6024924602446 12.3636364287909  12 12.3636364287909  C 11.3975075397554 12.3636364287909  10.9090908984375 11.875219787473  10.9090908984375 11.2727273272284  C 10.9090909238307 10.6702348389611  11.3975075577111 10.1818182256659  12 10.1818182256659  C 12.6024924602446 10.1818182256659  13.0909091015625 10.6702348669838  13.0909091015625 11.2727273272284  Z M 17.4545454492187 10.1819780802265  C 18.0569754653661 10.1819780802265  18.5453662375861 10.670297271574  18.5454545390625 11.27272728125  C 18.5454545507813 11.8753796420468  18.0570379094633 12.3637962833648  17.4545454492187 12.3637962833648  C 16.8520529889742 12.3637962833648  16.3636363476562 11.8753796420468  16.3636363476562 11.2728871818023  C 16.3637246608514 10.670297271574  16.8521154330714 10.1819780802265  17.4545454492187 10.1819780802265  Z " fill-rule="nonzero" fill="#666666" stroke="none" transform="matrix(1 0 0 1 369 116 )" />
  </g>
</svg>