<?xml version="1.0" encoding="utf-8"?>
<svg version="1.1" xmlns:xlink="http://www.w3.org/1999/xlink" width="22px" height="22px" xmlns="http://www.w3.org/2000/svg">
  <g transform="matrix(1 0 0 1 -48 -668 )">
    <path d="M 21.4535143203125 11  C 21.4535143203125 16.7645074765625  16.764507453125 21.4535143203125  11 21.4535143203125  C 5.236258578125 21.4535143203125  0.5464856796875 16.7645074765625  0.5464856796875 11  C 0.5464856796875 5.236258578125  5.2362182421875 0.5464856796875  11 0.5464856796875  C 16.764507453125 0.5464856796875  21.4535143203125 5.2354925234375  21.4535143203125 11  Z M 19.9535143203125 11  C 19.9535143203125 6.062720046875  15.9365138984375 2.0464856796875  11 2.0464856796875  C 6.0627603828125 2.0464856796875  2.0464856796875 6.062720046875  2.0464856796875 11  C 2.0464856796875 15.9365138984375  6.062720046875 19.9535143203125  11 19.9535143203125  C 15.9365138984375 19.9535143203125  19.9535143203125 15.937279953125  19.9535143203125 11  Z " fill-rule="nonzero" fill="#666666" stroke="none" transform="matrix(1 0 0 1 48 668 )" />
  </g>
</svg>