<?xml version="1.0" encoding="utf-8"?>
<svg version="1.1" xmlns:xlink="http://www.w3.org/1999/xlink" width="24px" height="24px" xmlns="http://www.w3.org/2000/svg">
  <g transform="matrix(1 0 0 1 -44 -195 )">
    <path d="M 23.14246875 11.9902265625  C 23.14246875 5.8348359375  18.1443046875 0.844898437499999  11.978484375 0.8448984375  C 5.8128046875 0.8448984375  0.8145 5.8348125  0.8145 11.9902265625  C 0.8145 18.145640625  5.8128046875 23.1355546875  11.978484375 23.1355546875  C 18.1442578125 23.1355546875  23.14246875 18.145640625  23.14246875 11.9902265625  Z M 18.11690625 9.31875  L 10.930265625 16.66115625  C 10.59965625 16.9989609375  10.0633125 16.9989609375  9.73275 16.66115625  L 5.8400859375 12.68390625  C 5.509265625 12.346078125  5.509265625 11.79825  5.8400859375 11.460328125  C 6.170671875 11.1223828125  6.7070390625 11.1223828125  7.0376015625 11.460328125  L 10.33153125 14.8256015625  L 16.91915625 8.095078125  C 17.2499765625 7.75715625  17.7863671875 7.75715625  18.1169296875 8.095078125  C 18.44775 8.4329765625  18.44775 8.980828125  18.1169296875 9.31875  Z " fill-rule="nonzero" fill="#2ab795" stroke="none" transform="matrix(1 0 0 1 44 195 )" />
  </g>
</svg>