<?xml version="1.0" encoding="utf-8"?>
<svg version="1.1" xmlns:xlink="http://www.w3.org/1999/xlink" width="30px" height="20px" xmlns="http://www.w3.org/2000/svg">
  <g transform="matrix(1 0 0 1 -57 -47 )">
    <path d="M 26.9975656960227 0.241938413149342  L 2.91238536487927 0.241938413149342  C 1.37593439275568 0.241938413149342  0.130947709517045 1.18169465300323  0.130947709517045 2.34056184050326  L 0.130947709517045 17.7204334922889  C 0.130947709517045 18.879278612013  1.37596335671165 19.8190569196429  2.91238536487927 19.8190569196429  L 26.9975946599787 19.8190569196429  C 28.5341035600142 19.8190569196429  29.7790323153409 18.8793006797889  29.7790323153409 17.7204334922889  L 29.7790323153409 2.34056184050326  C 29.7790033513849 1.18023817978897  28.5340166681463 0.241938413149342  26.9975656960227 0.241938413149342  Z M 2.90937311345881 1.64057198660714  L 2.90943104137074 2  L 26.9985215065696 2  C 27.5109807794744 1.64057198660714  27.9250205300071 1.95234552556818  27.9250205300071 2.33910536728897  L 27.9250205300071 10.5745786830357  C 26.4319575639205 9.64965198863635  23.8445494495739 8.40253576501621  20.7388023792614 8.40253576501621  C 17.8762946111506 8.40253576501621  15.0523957963423 10.0775682325487  12.3230642977628 11.696658887987  C 10.2316639293324 12.9364265422078  8.06886740944603 14.2202856128247  6.55170643199574 14.2202856128247  C 4.42271084872158 14.2202856128247  2.60151522549717 13.0393506493507  2 12.587888088474  L 2 2.33912743506491  C 1.98287409002131 1.95380199878247  2.39789861505682 1.64057198660714  2.90937311345881 1.64057198660714  Z M 26.9985504705256 18.4189889407467  L 2.90946000532671 18.4189889407467  C 2.39795654296876 18.4189889407467  1.98296098188921 18.1057368607954  1.98296098188921 17.7204334922889  L 1.98296098188921 14.4011751724838  C 3.09381558504971 14.9938052962662  4.70067793412642 15.6188750507305  6.55179332386363 15.6188750507305  C 8.70978182705966 15.6188750507305  11.0212213689631 14.2467669439935  13.4687335759943 12.7967154525162  C 15.9510025301847 11.3246182528409  18.5172379927202 9.80260374391233  20.7388892711293 9.80260374391233  C 24.7199850186435 9.80260374391233  27.8787361283736 12.4481990665584  27.9115812544389 12.4746362621753  L 27.9260632324219 12.4643306107954  L 27.9260632324219 17.720411424513  C 27.9260632324219 18.1071712662338  27.5110387073864 18.420445413961  26.9986083984375 18.420445413961  L 26.9986083984375 18.4189889407467  Z M 9.38626398259942 10.0363897625812  C 11.4361300381747 10.0363897625812  13.0980818314986 8.78342557832792  13.0980818314986 7.23779854910714  C 13.0980818314986 5.69067091112012  11.4361879660866 4.43620611810067  9.38626398259942 4.43620611810067  C 7.33735373757104 4.43620611810067  5.67543090820313 5.69067091112012  5.67543090820313 7.23779854910714  C 5.67543090820313 8.78340351055195  7.33735373757104 10.0363897625812  9.38626398259942 10.0363897625812  Z M 9.39981911399148 5.8347955560065  C 10.4199296431108 5.8347955560065  11.2479801802202 6.45834263392859  11.2479801802202 7.22897143871754  C 11.2479801802202 7.99960024350648  10.4199296431108 8.62314732142858  9.39981911399148 8.62314732142858  C 8.37875277432528 8.62314732142858  7.55165804776277 7.99960024350648  7.55165804776277 7.22897143871754  C 7.55165804776277 6.4598432426948  8.37970858487216 5.8347955560065  9.39981911399148 5.8347955560065  Z " fill-rule="nonzero" fill="#ffffff" stroke="none" transform="matrix(1 0 0 1 57 47 )" />
  </g>
</svg>