<?xml version="1.0" encoding="utf-8"?>
<svg version="1.1" xmlns:xlink="http://www.w3.org/1999/xlink" width="24px" height="24px" xmlns="http://www.w3.org/2000/svg">
  <g transform="matrix(1 0 0 1 -20 -18 )">
    <path d="M 15.630166734375 5.7772990078125  C 15.6301667578125 6.3470327109375  16.0912301484375 6.8085997734375  16.6604362265625 6.8085997734375  C 17.2291626328125 6.8085997734375  17.7232276640625 6.3470327109375  17.7232276640625 5.777298984375  L 17.723227640625 1.090516640625  C 17.723227640625 0.5207829140625  17.2291386328125 0.0587122031249999  16.660436203125 0.0587122031249999  C 16.091230125 0.0587122031249999  15.630166734375 0.5207829140625  15.630166734375 1.090516640625  L 15.630166734375 5.7772990078125  Z M 14.603422875 4.2143506640625  L 14.603422875 2.6564868984375  L 9.3870555703125 2.6564868984375  L 9.3870555703125 4.2143506640625  L 14.603422875 4.2143506640625  Z M 23 5.389865671875  C 23.435218921875 3.8863250625  22.20686775 2.6564868984375  20.70644503125 2.6564868984375  L 18.7677434765625 2.6564868984375  L 18.7677434765625 4.2057165234375  L 20.7806027578125 4.2057165234375  C 21.37266534375 4.2057165234375  21.872318578125 4.706377078125  21.872318578125 5.2989672890625  L 21.872318578125 9  L 2.118711515625 9  L 2.118711515625 5.2989672890625  C 2.118711515625 4.7064010546875  2.61836475 4.2057165234375  3.2104273359375 4.2057165234375  L 5.2364776640625 4.2057165234375  L 5.2364776640625 2.6564868984375  L 3.3008460234375 2.6564868984375  C 1.799847703125 2.6564868984375  0.57204815625 3.8863250625  1 5.389865671875  L 1 21.2416541484375  C 0.57204815625 22.7447150625  1.754638359375 23.9745052734375  3.2556366796875 24  L 20.70644503125 24  C 22.2068917265625 23.974505296875  23.435218921875 22.7447150859375  23 21.241654171875  L 23 5.389865671875  Z M 21.872294578125 10.4564785078125  L 21.872294578125 21.32190375  C 21.872294578125 21.914469984375  21.37264134375 22.4151305390625  20.7805787578125 22  L 3.2104273359375 22  C 2.61836475 22.4151305390625  2.118711515625 21.914469984375  2.118711515625 21.32190375  L 2.118711515625 10.4564785078125  L 21.872294578125 10.4564785078125  Z M 4.6931500546875 13.5681528046875  C 4.6931500546875 14.4333901640625  5.39337928125 15.134626734375  6.2566020234375 15.134626734375  C 7.1203284140625 15.134626734375  7.8200539921875 14.4333901640625  7.8200539921875 13.5681528046875  C 7.8200539921875 12.7033711171875  7.1203284140625 12.002158546875  6.2566020234375 12.002158546875  C 5.39340328125 12.002158546875  4.6931500546875 12.7033951171875  4.6931500546875 13.5681528046875  Z M 10.4183323828125 13.5681528046875  C 10.418332359375 14.4333901640625  11.1180579609375 15.134626734375  11.9817843515625 15.134626734375  C 12.84500709375 15.134626734375  13.5452363203125 14.4333901640625  13.5452363203125 13.5681528046875  C 13.5452363203125 12.7033711171875  12.8450310703125 12.002158546875  11.9817843515625 12.002158546875  C 11.1180579609375 12.002158546875  10.4183323828125 12.7033951171875  10.4183323828125 13.5681528046875  Z M 4.6652329921875 19.2958533984375  C 4.66523296875 20.160611109375  5.3654382421875 20.86184765625  6.2286849609375 20.86184765625  C 7.0924113515625 20.86184765625  7.792112953125 20.1606110859375  7.792112953125 19.2958533984375  C 7.792112953125 18.4305920390625  7.0924113515625 17.7293554921875  6.2286849609375 17.7293554921875  C 5.36546221875 17.7293554921875  4.6652329921875 18.4305920625  4.6652329921875 19.2958533984375  Z M 10.4183323828125 19.2958533984375  C 10.418332359375 20.160611109375  11.1180579609375 20.86184765625  11.9817843515625 20.86184765625  C 12.84500709375 20.86184765625  13.5452363203125 20.1606110859375  13.5452363203125 19.2958533984375  C 13.5452363203125 18.4305920390625  12.8450310703125 17.7293554921875  11.9817843515625 17.7293554921875  C 11.1180579609375 17.7293554921875  10.4183323828125 18.4305920625  10.4183323828125 19.2958533984375  Z M 16.13538421875 13.5681528046875  C 16.1354081953125 14.4333901640625  16.835109796875 15.134626734375  17.6988361875 15.134626734375  C 18.56208290625 15.134626734375  19.26231215625 14.4333901640625  19.26231215625 13.5681528046875  C 19.26231215625 12.7033711171875  18.56208290625 12.002158546875  17.6988361875 12.002158546875  C 16.835109796875 12.002158546875  16.13538421875 12.7033951171875  16.13538421875 13.5681528046875  Z M 6.270800390625 5.7772990078125  C 6.270800390625 6.3470327109375  6.7319117578125 6.8085997734375  7.301093859375 6.8085997734375  C 7.8697962890625 6.8085997734375  8.363885296875 6.3470327109375  8.363885296875 5.777298984375  L 8.363885296875 1.090516640625  C 8.363885296875 0.5207829140625  7.869820265625 0.0587122031249999  7.301093859375 0.0587122031249999  C 6.7319117578125 0.0587122031249999  6.270800390625 0.5207829140625  6.270800390625 1.090516640625  L 6.270800390625 5.7772990078125  Z " fill-rule="nonzero" fill="#666666" stroke="none" transform="matrix(1 0 0 1 20 18 )" />
  </g>
</svg>