<?xml version="1.0" encoding="utf-8"?>
<svg version="1.1" xmlns:xlink="http://www.w3.org/1999/xlink" width="191px" height="48px" xmlns="http://www.w3.org/2000/svg">
  <g transform="matrix(1 0 0 1 -32 -149 )">
    <path d="M 203.996485004729 149.5  C 203.996485004729 149.5  207.540996103528 149.945383593566  207.540996103528 149.945383593566  C 207.540996103528 149.945383593566  222.454579515105 173  222.454579515105 173  C 222.454579515105 173  207.540996103528 196.054616406434  207.540996103528 196.054616406434  C 207.540996103528 196.054616406434  203.996485004729 196.5  203.996485004729 196.5  C 203.996485004729 196.5  32.5 196.5  32.5 196.5  C 32.5 196.5  32.5 149.5  32.5 149.5  C 32.5 149.5  203.996485004729 149.5  203.996485004729 149.5  Z " fill-rule="nonzero" fill="#ffffff" stroke="none" />
    <path d="M 203.996485004729 149.5  C 203.996485004729 149.5  207.540996103528 149.945383593566  207.540996103528 149.945383593566  C 207.540996103528 149.945383593566  222.454579515105 173  222.454579515105 173  C 222.454579515105 173  207.540996103528 196.054616406434  207.540996103528 196.054616406434  C 207.540996103528 196.054616406434  203.996485004729 196.5  203.996485004729 196.5  C 203.996485004729 196.5  32.5 196.5  32.5 196.5  C 32.5 196.5  32.5 149.5  32.5 149.5  C 32.5 149.5  203.996485004729 149.5  203.996485004729 149.5  Z " stroke-width="1" stroke="#cccccc" fill="none" />
  </g>
</svg>