<?xml version="1.0" encoding="utf-8"?>
<svg version="1.1" xmlns:xlink="http://www.w3.org/1999/xlink" width="16px" height="16px" xmlns="http://www.w3.org/2000/svg">
  <g transform="matrix(1 0 0 1 -313 -119 )">
    <path d="M 15.2818035546875 14.267786609375  L 9.0619943515625 8.02927025  L 15.2795054375 1.844012890625  C 15.573498171875 1.5515118828125  15.574989921875 1.0775030234375  15.2824889140625 0.783510265625001  C 14.989221875 0.488751500000001  14.515979046875 0.488025781250001  14.2219862890625 0.780526789062501  L 8.0029834765625 6.9665098671875  L 1.8380056484375 0.782744257812499  C 1.546270671875 0.49024325  1.07149578125 0.4887515234375  0.7775030234375 0.78125253125  C 0.484235984375 1.0737535390625  0.483510289062501 1.5484881171875  0.776011296875001 1.8425211875  L 6.9394973984375 8.0247547578125  L 0.7250101015625 14.206262609375  C 0.431017367187501 14.4987636171875  0.4295256171875 14.9727724765625  0.722026625 15.266765234375  C 0.8682569609375 15.4137616015625  1.0610133125 15.488025828125  1.2537696640625 15.488025828125  C 1.4450342890625 15.488025828125  1.636258578125 15.4152936640625  1.78252925 15.2697890234375  L 7.998548609375 9.086789421875  L 14.219809203125 15.326797484375  C 14.3660395390625 15.4737938515625  14.5580701953125 15.547292046875  14.750826546875 15.547292046875  C 14.9428168671875 15.547292046875  15.1340814921875 15.4737938515625  15.280311828125 15.328289234375  C 15.5735788671875 15.0357882265625  15.5743045625 14.5617793671875  15.2818035546875 14.267786609375  Z " fill-rule="nonzero" fill="#999999" stroke="none" transform="matrix(1 0 0 1 313 119 )" />
  </g>
</svg>