<?xml version="1.0" encoding="utf-8"?>
<svg version="1.1" xmlns:xlink="http://www.w3.org/1999/xlink" width="22px" height="22px" xmlns="http://www.w3.org/2000/svg">
  <g transform="matrix(1 0 0 1 -88 -116 )">
    <path d="M 21.3067361328125 21.3470519375  C 21.613136234375 21.0648412578125  21.629262546875 20.589114734375  21.3470519140625 20.2867461875  L 17.7710398203125 16.4607760859375  C 19.2224088828125 14.7151016328125  20.0166302890625 12.5380480390625  20.0166302890625 10.2481102109375  C 20.0166302890625 4.874013125  15.6423652109375 0.499748046875001  10.264236546875 0.499748046875001  C 4.8901394609375 0.499748046875001  0.515874382812501 4.874013125  0.515874382812501 10.2481102109375  C 0.515874382812501 15.622207296875  4.8901394609375 19.996472375  10.264236546875 19.996472375  C 11.6712582265625 19.996472375  13.029900921875 19.702166984375  14.2998488515625 19.121619359375  C 14.6788174296875 18.9482613828125  14.84411225 18.5047875078125  14.6707542734375 18.1298505078125  C 14.497396296875 17.7508819296875  14.053922421875 17.585587109375  13.678985421875 17.7589450859375  C 12.602553359375 18.24676634375  11.4535528671875 18.4967243515625  10.264236546875 18.4967243515625  C 5.7166134921875 18.4967243515625  2.01562240625 14.795733265625  2.01562240625 10.2481102109375  C 2.01562240625 5.70048715625  5.7166134921875 1.9994960703125  10.264236546875 1.9994960703125  C 14.8118596015625 1.9994960703125  18.5128506875 5.70048715625  18.5128506875 10.2481102109375  C 18.5128506875 12.388879578125  17.6944398125 14.4167646640625  16.2148496796875 15.96086009375  C 15.9286074453125 16.2591970625  15.9366706015625 16.7349235859375  16.23500759375 17.0211658203125  C 16.2591970859375 17.041323734375  16.2874181328125 17.049386890625  16.311607625 17.06954478125  C 16.3317655390625 17.0977658515625  16.3438602734375 17.134050078125  16.368049765625 17.1622711484375  L 20.24643040625 21.3107677109375  C 20.3915673125 21.4679993515625  20.593146359375 21.548630984375  20.7947253828125 21.548630984375  C 20.98017809375 21.548630984375  21.1615992265625 21.480094109375  21.3067361328125 21.3470519375  Z " fill-rule="nonzero" fill="#999999" stroke="none" transform="matrix(1 0 0 1 88 116 )" />
  </g>
</svg>