<?xml version="1.0" encoding="utf-8"?>
<svg version="1.1" xmlns:xlink="http://www.w3.org/1999/xlink" width="22px" height="22px" xmlns="http://www.w3.org/2000/svg">
  <g transform="matrix(1 0 0 1 -15 -11 )">
    <path d="M 21.5 10.999953125  C 21.5 5.200953125  16.798953125 0.5  10.999953125 0.5  C 5.200953125 0.5  0.5 5.200953125  0.5 10.999953125  C 0.5 16.798953125  5.200953125 21.5  10.999953125 21.5  C 16.798953125 21.5  21.5 16.798953125  21.5 10.999953125  Z M 19.81709375 12.8151171875  C 19.6982704246014 13.3933790909418  19.5228394065686 13.9585469112862  19.2933359375 14.502453125  C 17.366421875 19.064515625  12.1060625 21.20075  7.5439765625 19.2738359375  C 2.981890625 17.346921875  0.8456796875 12.0865625  2.77259375 7.5244765625  C 4.6995078125 2.962390625  9.9598671875 0.8261796875  14.521953125 2.75309375  C 18.4596640625 4.4162890625  20.6759375 8.62775  19.81709375 12.8151171875  Z " fill-rule="nonzero" fill="#999999" stroke="none" transform="matrix(1 0 0 1 15 11 )" />
  </g>
</svg>