<?xml version="1.0" encoding="utf-8"?>
<svg version="1.1" xmlns:xlink="http://www.w3.org/1999/xlink" width="146px" height="111px" xmlns="http://www.w3.org/2000/svg">
  <g>
    <path d="M 140.923841059603 100.351744186047  C 140.923841059603 104.247786216441  142.983994141427 107.393801621292  145.758278145695 107.992854919092  L 145.758278145695 110.677325581395  L 0.241721854304623 110.677325581395  L 0.241721854304623 70.9852219467775  C 6.51730711378269 70.8151548172352  11.6026490066225 63.7794884877908  11.6026490066225 54.8546511627908  C 11.6026490066225 45.9298108450337  6.51730370325669 38.8941427898199  0.241721854304623 38.7240614939174  L 0.241721854304623 0.322674418604606  L 144.369903172458 0.321928599288526  C 142.323891644354 1.50765957029068  140.923841059603 4.20973191251267  140.923841059603 7.42151162790697  C 140.923841059603 11.3175606850639  142.984001572671 14.4635804112336  145.758278145695 15.0627509722326  L 145.758243548708 15.2686647909225  C 142.983983784774 15.8678421011302  140.923841059603 19.0138514834991  140.923841059603 22.9098837209301  C 140.923841059603 26.8059149422027  142.983982710126 29.9519236996532  145.758278145695 30.5507989573557  L 145.758264181517 30.7570324277756  C 142.983993999284 31.3561985957701  140.923841059603 34.5022139179653  140.923841059603 38.3982558139535  C 140.923841059603 42.2942899111893  142.983985751628 45.4403004373028  145.758278145695 46.039223064884  L 145.758274112091 46.2454023760795  C 142.983998915534 46.8445631813001  140.923841059603 49.9905813623282  140.923841059603 53.8866279069766  C 140.923841059603 57.7826815728999  142.984006446739 60.9287041333655  145.758278145695 61.5279490950604  L 145.758234401683 61.7337830455522  C 142.983979256438 62.332965295351  140.923841059603 65.4789720444453  140.923841059603 69.375  C 140.923841059603 73.2710662611009  142.984019766982 76.4170965673293  145.758278145695 77.0165490141833  L 145.758276625972 77.2221460192031  C 142.984000160061 77.8213054668583  140.923841059603 80.9673243715872  140.923841059603 84.8633720930234  C 140.923841059603 88.7594169836309  142.983997166281 91.9054341474575  145.758278145695 92.5045345586836  L 145.758337823355 92.7105048958886  C 142.984030456626 93.3096312949442  140.923841059603 96.4556678172044  140.923841059603 100.351744186047  Z " fill-rule="nonzero" fill="#2ab795" stroke="none" />
  </g>
</svg>