<?xml version="1.0" encoding="utf-8"?>
<svg version="1.1" xmlns:xlink="http://www.w3.org/1999/xlink" width="48px" height="48px" xmlns="http://www.w3.org/2000/svg">
  <g transform="matrix(1 0 0 1 -287 -32 )">
    <path d="M 35.430012375 26.13230146875  C 34.37507878125 31.66261603125  29.549096765625 35.632964484375  23.97182671875 35.632964484375  C 21.257798765625 35.632964484375  18.644985984375 34.676115703125  16.584161203125 32.9679789375  L 16.08225909375 33.571096265625  C 18.3116049039793 35.3866994070932  21.0977389395935 36.3800103577336  23.97287015625 36.384252515625  C 29.9529140625 36.384252515625  35.07836784375 32.112345375  36.23451665625 26.28255909375  L 35.430012375 26.13230146875  Z M 31.35844875 14.977761375  L 31.86243778125 14.32455815625  C 29.6330213966413 12.508955369131  26.8470112829036 11.5153201830408  23.97182671875 11.51035846875  C 17.9917828125 11.51035846875  12.864242109375 15.781222125  11.70913678125 21.613095375  L 12.513641015625 21.763352953125  C 13.51744528125 16.28521115625  18.342383859375 12.314862703125  23.97182671875 12.314862703125  C 26.684811234375 12.314862703125  29.299710890625 13.2696245625  31.35844875 14.977761375  Z M 40.151648859375 32.667463734375  L 38.896371796875 32.61633440625  L 38.0918675625 31.914088828125  L 37.791352359375 33.019108265625  L 36.785461171875 33.623269078125  L 37.741266515625 34.225342921875  L 37.941609984375 35.33140584375  L 38.845242515625 34.62707334375  L 39.952348875 34.727245078125  C 36.484946015625 39.85478578125  30.6551596875 43.272102796875  24.020869125 43.272102796875  C 13.417273546875 43.272102796875  4.823373421875 34.6771591875  4.823373421875 24.073563609375  C 4.823373421875 13.46996803125  13.417273546875 4.87711134375  24.020869125 4.87711134375  C 34.624464703125 4.87711134375  43.219408265625 13.46996803125  43.219408265625 24.073563609375  C 43.219408265625 27.99382621875  42.013173609375 31.66261603125  40.00243471875 34.72620159375  L 39.64974675 33.722397328125  L 40.151648859375 32.667463734375  Z M 44.072954953125 23.973391875  C 44.0228690625 12.866850703125  35.0272385625 3.871220203125  23.97182671875 3.871220203125  C 12.864242109375 3.871220203125  3.869655046875 12.86685075  3.869655 23.973391875  C 3.869654953125 35.079933  12.865285546875 44.07660703125  23.97182671875 44.07660703125  C 35.07732440625 44.07660703125  44.072954953125 35.079933046875  44.072954953125 23.973391875  Z M 46.336210078125 23.9723484375  C 46.336210078125 36.285124265625  36.2835590625 46.33673184375  23.97182671875 46.336731796875  C 11.659050890625 46.336731796875  1.6074433125 36.28512421875  1.6074433125 23.9723484375  C 1.6074433125 11.66061609375  11.659050890625 1.609008515625  23.97182671875 1.609008515625  C 36.2835590625 1.609008515625  46.336210125 11.609486765625  46.336210078125 23.9723484375  Z M 47.944175109375 23.9723484375  C 47.9441750625 10.755940078125  37.18823503125 0.0010434375  23.97182671875 0.00104343750000346  C 10.754374921875 0.0010434375  0.00052171875 10.755940078125  0.00052171875 23.973391875  C 0.00052171875 37.189800234375  10.754374921875 47.944696875  23.97182671875 47.944696875  C 37.188235078125 47.944696875  47.94417515625 37.188756796875  47.944175109375 23.9723484375  Z M 16.985891625 38.043346875  L 16.985891625 38.044390359375  L 16.18138734375 37.239886078125  L 15.830786296875 38.29586315625  L 14.824895109375 38.797765265625  L 15.729571078125 39.502097765625  L 15.93095803125 40.60711725  L 16.835634 39.954957515625  L 17.940653484375 40.1542575  L 17.590052390625 39.0492380625  L 18.0919545 38.043346875  L 16.985891625 38.043346875  Z M 25.329362390625 40.40781721875  L 25.479620015625 39.300710859375  L 24.37355709375 39.6022695  L 23.368709390625 39.0502815  L 23.368709390625 40.155300984375  L 22.564205109375 40.909719375  L 23.671311515625 41.3124931875  L 24.173213625 42.3173409375  L 24.826416796875 41.4627508125  L 25.93143628125 41.3124931875  L 25.329362390625 40.40781721875  Z M 32.7660703125 38.396034890625  L 32.514597515625 37.341101296875  L 31.661050828125 38.044390359375  L 30.5049020625 37.943175140625  L 30.95880525 38.948022890625  L 30.5049020625 39.954957515625  L 31.661050828125 39.853742296875  L 32.514597515625 40.557031359375  L 32.7660703125 39.502097765625  L 33.770918015625 38.948022890625  L 32.7660703125 38.396034890625  Z M 9.699441328125 15.6831373125  L 10.80550425 15.630964546875  L 11.608965 16.43546878125  L 12.011738859375 15.3805351875  L 13.066672453125 14.878633078125  L 12.161996484375 14.225429859375  L 12.010695421875 13.120410421875  L 11.0559335625 13.77361359375  L 9.950914125 13.622312578125  L 10.252472765625 14.678289609375  L 9.699441328125 15.6831373125  Z M 22.9179365625 7.84261209375  L 22.715506171875 8.946588140625  L 23.82052565625 8.645029453125  L 24.8765026875 9.198060890625  L 24.8765026875 8.093041453125  L 25.681006921875 7.3386230625  L 24.575987484375 6.9368926875  L 24.022956 5.933088421875  L 23.369752828125 6.7866350625  L 22.2146475 6.9368926875  L 22.9179365625 7.84261209375  Z M 31.7612225625 10.25508140625  L 31.7612225625 10.25403796875  L 32.56572684375 11.058542203125  L 32.9184148125 10.003608609375  L 33.924306 9.500663015625  L 32.968500703125 8.797373953125  L 32.768157234375 7.691311078125  L 31.864524703125 8.34451425  L 30.757418296875 8.14417078125  L 31.1101063125 9.24919021875  L 30.60820415625 10.25508140625  L 31.7612225625 10.25508140625  Z M 15.377926546875 10.35316621875  L 15.630442828125 11.459229140625  L 16.535118796875 10.754896640625  L 17.690224125 10.8561118125  L 17.237364421875 9.851264109375  L 17.690224125 8.846416359375  L 16.535118796875 8.947631578125  L 15.630442828125 8.244342515625  L 15.377926546875 9.24814678125  L 14.37412228125 9.80117821875  L 15.377926546875 10.35316621875  Z M 16.183474265625 22.567857234375  L 17.639094796875 26.73750571875  L 11.508793265625 28.948588078125  L 12.513641015625 31.7116584375  C 12.663898640625 32.06330296875  12.915371390625 32.21460403125  13.267015921875 32.06330296875  L 18.242212125 30.25499446875  C 18.3935131875 30.204908578125  18.543770765625 30.0536075625  18.644985984375 29.9033499375  C 18.74515771875 29.70300646875  18.644985984375 29.0487598125  18.293341453125 27.99382621875  L 19.348275046875 27.942696890625  C 19.699919578125 29.25014671875  19.8000913125 30.052564078125  19.650877171875 30.355166203125  C 19.499576109375 30.657768328125  19.196973984375 30.907154203125  18.846372890625 31.059498703125  L 13.319188734375 33.019108265625  C 12.5146845 33.32066690625  11.911567171875 33.019108265625  11.608965 32.164518140625  L 9.75057065625 26.988978515625  L 10.705332515625 26.637333984375  L 11.2082780625 27.99486965625  L 16.383817734375 26.135431828125  L 15.53027109375 23.824177734375  L 8.947109859375 26.18551771875  L 8.644507734375 25.280841703125  L 16.183474265625 22.567857234375  Z M 22.26160303125 30.25499446875  L 20.403208640625 24.978239625  C 20.251907578125 25.431099328125  20.10165 25.831786265625  19.901306484375 26.28464596875  L 19.2481033125 25.3810134375  C 19.8000913125 23.874263578125  20.051564109375 22.2652550625  19.951392375 20.556074859375  L 21.00632596875 20.65624659375  C 21.056411859375 21.460750828125  21.00632596875 22.314297515625  20.85502490625 23.168887640625  L 23.21636484375 29.9033499375  L 22.26160303125 30.25499446875  Z M 21.56040084375 22.112910609375  L 21.257798765625 21.258320484375  L 23.770439765625 20.354687953125  L 23.418795234375 19.39888265625  L 24.37460053125 19.0482815625  L 24.7262450625 20.003043421875  L 27.389143734375 19.0482815625  L 27.690702375 19.95295753125  L 25.026760265625 20.907719390625  L 25.328318953125 21.712223625  L 27.64061653125 20.907719390625  L 28.695550078125 23.873220140625  L 26.334210140625 24.727810265625  C 26.533510171875 25.582400390625  26.63472534375 26.28464596875  26.584639453125 26.838720890625  C 27.690702375 26.988978515625  28.89693703125 26.88880678125  30.15325753125 26.486032921875  L 30.253429265625 27.490880625  C 28.846851140625 27.893654484375  27.538357875 27.99382621875  26.334210140625 27.7924393125  C 25.981522171875 28.4967718125  25.277189625 29.098845703125  24.1721701875 29.70300646875  L 23.468881125 28.998673921875  C 24.37355709375 28.596943546875  24.976674421875 28.095041390625  25.328318953125 27.59209584375  C 24.6357986961216 27.3837779525604  23.9761042002448 27.0788712254913  23.368709390625 26.686376390625  L 23.921740828125 25.9330014375  C 24.473728828125 26.28360253125  25.02780375 26.535075328125  25.630921078125 26.686376390625  C 25.623771072636 26.1641320079035  25.5731626657113 25.6433889552836  25.479620015625 25.129540640625  L 23.217408328125 25.781700375  L 22.162474734375 22.817243109375  L 24.37460053125 22.012738875  L 24.071998453125 21.20823459375  L 21.56040084375 22.112910609375  Z M 23.770439765625 24.677724375  L 25.126932 24.17373534375  L 24.67511578125 22.91741484375  L 23.3186235 23.421403875  L 23.770439765625 24.677724375  Z M 26.08273734375 23.823134296875  L 27.48931546875 23.31914521875  L 27.03645571875 22.06282471875  L 25.62987759375 22.56681375  L 26.08273734375 23.823134296875  Z M 34.1747353125 22.416556171875  L 31.86243778125 23.218973484375  C 32.2140823125 24.525379875  32.2140823125 25.681528640625  31.86243778125 26.73750571875  L 30.905589 26.335775296875  C 31.208191125 25.27875478125  31.108019390625 24.073563609375  30.656203125 22.76715721875  L 28.89693703125 17.892132796875  L 36.535031859375 15.128018953125  L 39.2490598125 22.616899640625  C 39.500532609375 23.37131803125  39.2490598125 23.873220140625  38.494641421875 24.17373534375  L 37.34057953125 24.576509203125  L 36.736418765625 23.721919078125  C 37.18823503125 23.62174734375  37.540923 23.47148971875  37.8424816875 23.37131803125  C 38.1450838125 23.269059375  38.245255546875 23.0196735  38.1450838125 22.616899640625  L 37.591008890625 21.1591921875  L 35.128453734375 22.06386815625  L 36.135388359375 24.878067890625  L 35.1806265 25.229712375  L 34.1747353125 22.416556171875  Z M 33.016499625 19.09836740625  L 32.464511625 17.590574109375  L 30.15325753125 18.395078390625  L 30.70524553125 19.9028716875  L 33.016499625 19.09836740625  Z M 33.31910175 19.954001015625  L 31.00784765625 20.75850525  L 31.55983565625 22.265255109375  L 33.87108975 21.460750875  L 33.31910175 19.954001015625  Z M 33.97334840625 18.746722875  L 36.4359035625 17.84204690625  L 35.881828640625 16.334253609375  L 33.419273484375 17.238929578125  L 33.97334840625 18.746722875  Z M 34.82793853125 21.108062859375  L 37.28945025 20.25451621875  L 36.736418765625 18.746722875  L 34.273863609375 19.6002695625  L 34.82793853125 21.108062859375  Z " fill-rule="nonzero" fill="#999999" stroke="none" transform="matrix(1 0 0 1 287 32 )" />
  </g>
</svg>