<?xml version="1.0" encoding="utf-8"?>
<svg version="1.1" xmlns:xlink="http://www.w3.org/1999/xlink" width="43px" height="43px" xmlns="http://www.w3.org/2000/svg">
  <g transform="matrix(1 0 0 1 -290 -35 )">
    <path d="M 38.745703125 9.44619140625  C 32.084765625 -0.0762695312499999  18.96865234375 -2.40185546875  9.44619140625 4.254296875  C -0.0762695312499999 10.915234375  -2.40185546875 24.03134765625  4.254296875 33.55380859375  C 10.91044921875 43.07626953125  24.0265625 45.40185546875  33.55380859375 38.745703125  C 43.0810546875 32.08955078125  45.40185546875 18.96865234375  38.745703125 9.44619140625  Z M 37.92744140625 10.015625  C 44.2677734375 19.08828125  42.05224609375 31.58232421875  32.984375 37.92744140625  C 23.91171875 44.2677734375  11.41767578125 42.05224609375  5.07255859375 32.984375  C -1.2677734375 23.91171875  0.94775390625 11.41767578125  10.015625 5.07255859375  C 19.08828125 -1.2677734375  31.58232421875 0.94775390625  37.92744140625 10.015625  Z " fill-rule="nonzero" fill="#999999" stroke="none" transform="matrix(1 0 0 1 290 35 )" />
  </g>
</svg>