<?xml version="1.0" encoding="utf-8"?>
<svg version="1.1" xmlns:xlink="http://www.w3.org/1999/xlink" width="49px" height="49px" xmlns="http://www.w3.org/2000/svg">
  <g transform="matrix(1 0 0 1 -287 -32 )">
    <path d="M 44.578515625 10.46513671875  C 36.8265625 -0.6220703125  21.55234375 -3.33046875  10.46513671875 4.421484375  C -0.6220703125 12.1734375  -3.33046875 27.44765625  4.421484375 38.53486328125  C 12.1734375 49.6220703125  27.44765625 52.33046875  38.53486328125 44.578515625  C 49.6220703125 36.8265625  52.33046875 21.55234375  44.578515625 10.46513671875  Z M 42.93720703125 11.61357421875  C 50.052734375 21.79638671875  47.56923828125 35.81689453125  37.38642578125 42.93720703125  C 27.20361328125 50.052734375  13.18310546875 47.56923828125  6.06279296875 37.38642578125  C -1.052734375 27.20361328125  1.43076171875 13.1783203125  11.61357421875 6.06279296875  C 21.79638671875 -1.052734375  35.81689453125 1.43076171875  42.93720703125 11.61357421875  Z " fill-rule="nonzero" fill="#999999" stroke="none" transform="matrix(1 0 0 1 287 32 )" />
  </g>
</svg>