<?xml version="1.0" encoding="utf-8"?>
<svg version="1.1" xmlns:xlink="http://www.w3.org/1999/xlink" width="13px" height="12px" xmlns="http://www.w3.org/2000/svg">
  <g transform="matrix(1 0 0 1 -296 -56 )">
    <path d="M 7.3078125 0.863671875000001  L 9.834375 4.462109375  L 4.53720703125 8.17060546875  L 6.19765625 10.5392578125  C 6.42255859375 10.85986328125  6.69052734375 10.90771484375  7.00634765625 10.68759765625  L 11.31298828125 7.67294921875  C 11.461328125 7.56767578125  11.56181640625 7.42412109375  11.60966796875 7.2375  C 11.652734375 7.0173828125  11.37998046875 6.4431640625  10.79619140625 5.50527343749999  L 11.77236328125 5.20380859375  C 12.42314453125 6.35224609375  12.72939453125 7.08916015625  12.6958984375 7.41933593749999  C 12.62412109375 7.75429687499999  12.418359375 8.04619140625  12.08818359375 8.30458984374999  L 7.326953125 11.63984375  C 6.61875 12.1375  6.00146484375 12.0130859375  5.4798828125 11.27138671875  L 2.350390625 6.79726562499999  L 3.1734375 6.21826171874999  L 3.99169921875 7.390625  L 8.46103515625 4.2611328125  L 7.0302734375 2.21787109375  L 1.34072265625 6.20390625  L 0.795214843749999 5.42392578125  L 7.3078125 0.863671875000001  Z " fill-rule="nonzero" fill="#999999" stroke="none" transform="matrix(1 0 0 1 296 56 )" />
  </g>
</svg>