<?xml version="1.0" encoding="utf-8"?>
<svg version="1.1" xmlns:xlink="http://www.w3.org/1999/xlink" width="14px" height="13px" xmlns="http://www.w3.org/2000/svg">
  <g transform="matrix(1 0 0 1 -313 -44 )">
    <path d="M 5.59638671875 10.490234375  L 6.46728515625 10.35625  C 6.5869140625 11.1697265625  6.59169921875 11.9544921875  6.4912109375 12.70576171875  L 5.524609375 12.69140625  C 5.65380859375 11.99755859375  5.677734375 11.2654296875  5.59638671875 10.490234375  Z M 1.581640625 5.743359375  L 0.96435546875 4.85810546875  L 1.75390625 4.30302734375  L 2.37119140625 5.18828125  L 3.85458984375 4.14990234375  L 3.246875 3.2837890625  L 4.03642578125 2.7287109375  L 4.644140625 3.59482421875  L 5.08916015625 3.2837890625  L 5.6203125 4.03984375  L 5.17529296875 4.35087890625  L 7.58701171875 7.79140625  L 8.07509765625 7.446875  L 8.60625 8.2029296875  L 4.49580078125 11.08359375  L 3.9646484375 10.3275390625  L 4.52451171875001 9.93515625  L 2.11279296875 6.4994140625  L 1.6486328125 6.8248046875  L 1.11748046875 6.06875  L 1.581640625 5.743359375  Z M 4.85947265625 5.58544921875  L 4.3857421875 4.90595703125  L 2.90234375 5.9443359375  L 3.37607421875 6.623828125  L 4.85947265625 5.58544921875  Z M 3.87373046875 7.33681640625  L 4.34267578125 8.00673828125  L 5.82607421875 6.968359375  L 5.35712890625 6.2984375  L 3.87373046875 7.33681640625  Z M 4.8451171875 8.71494140625  L 5.3140625 9.38486328125  L 6.7974609375 8.346484375  L 6.328515625 7.6765625  L 4.8451171875 8.71494140625  Z M 7.09414062499999 10.01171875  L 7.438671875 9.17431640625  C 8.09423828125 9.3705078125  8.6541015625 9.571484375  9.1134765625 9.77724609375  C 9.065625 8.67666015625  8.65888671875 7.5712890625  7.89326171875 6.4611328125  L 5.02216796875 2.36025390625  L 8.0607421875 0.230859375000001  L 12.77412109375 6.9587890625  C 13.16650390625 7.51865234375  13.08037109375 7.99716796875  12.5205078125 8.38955078125  L 11.62568359375 9.01640625  L 10.845703125 8.3751953125  C 11.27158203125 8.1072265625  11.56826171875 7.92060546875  11.726171875 7.810546875  C 11.91279296875 7.6765625  11.92236328125 7.48994140625  11.75009765625 7.24111328125  L 10.66865234375 5.6955078125  L 9.2091796875 6.71953125  C 9.87431640625 7.925390625  10.19013671875 9.1025390625  10.15185546875 10.25576171875  L 9.1900390625 10.12177734375  L 8.9412109375 10.8060546875  C 8.45791015624999 10.5380859375  7.84062499999999 10.27490234375  7.09414062499999 10.01171875  Z M 7.29990234375 3.8771484375  L 8.70673828125 2.89140625  L 7.78798828124999 1.5802734375  L 6.38115234375 2.566015625  L 7.29990234375 3.8771484375  Z M 9.22353515625 3.6283203125  L 7.81669921875 4.6140625  L 8.740234375 5.934765625  L 10.1470703125 4.9490234375  L 9.22353515625 3.6283203125  Z " fill-rule="nonzero" fill="#999999" stroke="none" transform="matrix(1 0 0 1 313 44 )" />
  </g>
</svg>