<?xml version="1.0" encoding="utf-8"?>
<svg version="1.1" xmlns:xlink="http://www.w3.org/1999/xlink" width="13px" height="13px" xmlns="http://www.w3.org/2000/svg">
  <g transform="matrix(1 0 0 1 -305 -50 )">
    <path d="M 12.90732421875 7.61972656250001  L 11.09375 8.892578125  C 10.7970703125 9.103125  10.2611328125 9.466796875  9.4859375 9.9931640625  C 8.9021484375 10.39033203125  8.394921875 10.67744140625  7.95947265625 10.844921875  C 7.53359375 10.9884765625  7.07900390625 11.01240234375  6.595703125 10.90712890625  C 6.3755859375 10.84970703125  6.212890625 10.85927734375  6.10283203125 10.9310546875  C 5.92099609375 11.06025390625  5.88271484375 11.6775390625  5.9927734375 12.78291015625  L 5.00224609375 12.644140625  C 4.9400390625 11.6296875  5.02138671875 10.90712890625  5.24150390625 10.48125  L 3.54755859375 8.05996093749999  L 2.37998046875 8.87822265625  L 1.83447265625 8.11259765625  L 3.78203125 6.748828125  L 6.059765625 10.002734375  C 6.1267578125 9.99794921875  6.2033203125 10.0123046875  6.289453125 10.03623046875  C 6.653125 10.11279296875  6.9880859375 10.13193359375  7.2943359375 10.08408203125  C 7.6484375 10.01708984375  8.09345703125 9.80654296875  8.62939453125 9.45244140625  C 9.313671875 8.99306640625  9.92138671875 8.57197265625  10.4525390625 8.203515625  L 11.6296875 7.36611328125  C 12.0220703125 7.0646484375  12.32353515625 6.83017578125  12.529296875 6.65791015625  L 12.90732421875 7.61972656250001  Z M 0.375000000000004 5.72958984375  L 0.556835937500001 4.81083984375  C 1.446875 4.85390625  2.25078125 4.95439453125  2.96376953125 5.121875  L 2.78671875 6.1267578125  C 2.09765625 5.92578125  1.29375 5.791796875  0.375000000000004 5.72958984375  Z M 10.0123046875 7.93076171875001  L 8.854296875 8.7490234375  L 8.12216796875001 8.08388671875  C 8.5193359375 7.858984375  8.8830078125 7.629296875  9.21318359375 7.39482421875  C 9.428515625 7.24169921875  9.4763671875 7.07421875  9.34716796875 6.8923828125  L 6.92109375 3.42314453125  L 3.85859375 5.56689453125  L 3.303515625 4.77734375  L 6.366015625 2.63359375  L 5.44248046875 1.312890625  L 6.26552734374999 0.73388671875  L 7.1890625 2.05458984375  L 8.3375 1.25068359375  L 8.89257812499999 2.040234375  L 7.74414062499999 2.844140625  L 10.308984375 6.5095703125  C 10.691796875 7.055078125  10.59130859375 7.52880859375  10.0123046875 7.93076171875001  Z M 5.00703125 6.327734375  L 5.36591796875 5.447265625  C 6.29423828125 5.7248046875  7.055078125 6.00234375  7.6484375 6.2798828125  L 7.29912109375 7.24169921875  C 6.68662109375001 6.92587890625  5.92578125 6.6244140625  5.00703125 6.327734375  Z " fill-rule="nonzero" fill="#999999" stroke="none" transform="matrix(1 0 0 1 305 50 )" />
  </g>
</svg>