<?xml version="1.0" encoding="utf-8"?>
<svg version="1.1" xmlns:xlink="http://www.w3.org/1999/xlink" width="8px" height="11px" xmlns="http://www.w3.org/2000/svg">
  <g transform="matrix(1 0 0 1 -384 -120 )">
    <path d="M 3.839734375 0.4188671875  C 1.7738125 0.4188671875  0.0922656249999996 2.085109375  0.0922656249999996 4.1324921875  C 0.0922656249999996 4.5461171875  0.428523437499999 4.882046875  0.841820312499999 4.882046875  C 1.256078125 4.882046875  1.59146875 4.546140625  1.59146875 4.1324921875  C 1.59146875 2.890609375  2.5797578125 1.9176953125  3.840203125 1.9176953125  C 5.0794140625 1.9176953125  6.08846875 2.9340859375  6.08846875 4.1835625  C 6.08846875 4.68334375  5.4614453125 5.309921875  4.854859375 5.9171171875  C 4.0273046875 6.7436875  3.0904375 7.680484375  3.0904375 8.906875  L 3.0904375 10.1740703125  C 3.0904375 10.588046875  3.4265546875 10.92371875  3.8401796875 10.92371875  C 4.2534765625 10.92371875  4.5894765625 10.5870859375  4.5894765625 10.17334375  L 4.5894765625 8.9060546875  C 4.5894765625 8.301203125  5.262578125 7.6281484375  5.9146328125 6.9775703125  C 6.7366796875 6.1555234375  7.587671875 5.3053984375  7.587671875 4.183328125  C 7.587625 2.1073984375  5.90678125 0.418867187500002  3.8396875 0.418867187500002  Z " fill-rule="nonzero" fill="#666666" stroke="none" transform="matrix(1 0 0 1 384 120 )" />
  </g>
</svg>