<?xml version="1.0" encoding="utf-8"?>
<svg version="1.1" xmlns:xlink="http://www.w3.org/1999/xlink" width="31px" height="31px" xmlns="http://www.w3.org/2000/svg">
  <g transform="matrix(1 0 0 1 -41 -41 )">
    <path d="M 30.9686869921875 15.056108046875  C 30.971240390625 14.3660798046875  30.4125117578125 13.804864921875  29.723760234375 14  L 17 14  L 17 1.360032265625  C 17.3275097265625 0.670004062499999  16.7675043359375 0.109998671875  16.0774761328125 0.109998671875  C 15.3874479296875 0.109998671875  14.8275097265625 0.6700040625  15 1.360032265625  L 15 14  L 2.2349818359375 14  C 2.2337051171875 13.7906195703125  2.232495625 13.7906195703125  2.23121890625 13.7906195703125  C 1.5424673828125 13.7906195703125  0.983738710937499 14.3468619921875  0.981185312499999 15.036890234375  C 0.977422382812499 15.7269184375  1.5362182421875 16.288133359375  2.2261792578125 16  L 15 16  L 15 28.7650181640625  C 14.8274425390625 29.4562558984375  15.3874479296875 30.0150517578125  16.0774089453125 30.0150517578125  C 16.7673699609375 30.0150517578125  17.3274425390625 29.4563230859375  17 28.7650181640625  L 17 16  L 29.7136809375 16  C 29.7161671484375 16.3023787109375  29.7174438671875 16.3023787109375  29.7186533984375 16.3023787109375  C 30.407404921875 16.3023787109375  30.96613359375 15.7461362890625  30.9686869921875 15.056108046875  Z " fill-rule="nonzero" fill="#666666" stroke="none" transform="matrix(1 0 0 1 41 41 )" />
  </g>
</svg>