<?xml version="1.0" encoding="utf-8"?>
<svg version="1.1" xmlns:xlink="http://www.w3.org/1999/xlink" width="50px" height="40px" xmlns="http://www.w3.org/2000/svg">
  <g transform="matrix(1 0 0 1 -31 -36 )">
    <path d="M 44.9959428267045 0.483876826298697  L 44.9959428267045 1  L 4.85397560813211 1  C 2.29322398792614 0.483876826298697  0.218246182528404 2.36338930600649  1 4.6811236810065  L 1 35.4408669845779  C 0.218246182528404 37.758557224026  2.29327226118609 39.6381138392857  4.85397560813211 39  L 44.9959910999645 39  C 47.5568392666904 39.6381138392857  49.6317205255682 37.7586013595779  49 35.4408669845779  L 49 4.6811236810065  C 49.6316722523083 2.36047635957792  47.5566944469105 0.483876826298697  44.9959428267045 0.483876826298697  Z M 4.84895518909801 3.28114397321428  L 4.84905173561791 4  L 44.9975358442827 4  C 45.8516346324574 3.28114397321428  46.5417008833452 3.90469105113635  46 4.67821073457794  L 46 21.1491573660714  C 44.0532626065341 19.2993039772727  39.7409157492898 16.8050715300325  34.5646706321023 16.8050715300325  C 29.7938243519176 16.8050715300325  25.0873263272372 20.1551364650974  20.5384404962713 23.393317775974  C 17.052773215554 25.8728530844156  13.4481123490767 28.4405712256493  10.9195107199929 28.4405712256493  C 7.37118474786931 28.4405712256493  4.33585870916193 26.0787012987013  4 25.1757761769481  L 4 4.67825487012985  C 3.30479015003551 3.90760399756493  3.99649769176136 3.28114397321428  4.84895518909801 3.28114397321428  Z M 44.9975841175426 36.8379778814935  L 4.84910000887784 36.8379778814935  C 3.99659423828125 36.8379778814935  3.30493496981534 36.2114737215909  3.30493496981534 35.4408669845779  L 3.30493496981534 28.8023503449675  C 5.15635930841619 29.9876105925325  7.83446322354403 31.237750101461  10.9196555397727 31.237750101461  C 14.5163030450994 31.237750101461  18.3687022816051 28.493533887987  22.4478892933239 25.5934309050325  C 26.5850042169744 22.6492365056818  30.8620633212003 19.6052074878247  34.5648154518821 19.6052074878247  C 41.1999750310724 19.6052074878247  46.464560213956 24.8963981331169  46.5193020907315 24.9492725243506  L 46 24.9286612215909  L 46 35.440822849026  C 46.5434387207031 36.2143425324676  45.8517311789773 36.8408908279221  44.9976806640625 36.8408908279221  L 44.9976806640625 36.8379778814935  Z M 15.6437733043324 20.0727795251623  C 19.0602167302912 20.0727795251623  21.830136385831 17.5668511566559  21.830136385831 14.4755970982143  C 21.830136385831 11.3813418222403  19.0603132768111 8.87241223620131  15.6437733043324 8.87241223620131  C 12.2289228959517 8.87241223620131  9.45905151367187 11.3813418222403  9.45905151367187 14.4755970982143  C 9.45905151367187 17.5668070211039  12.2289228959517 20.0727795251623  15.6437733043324 20.0727795251623  Z M 15.6663651899858 11.669591112013  C 17.3665494051847 11.669591112013  18.7466336337003 12.9166852678571  18.7466336337003 14.4579428774351  C 18.7466336337003 15.999200487013  17.3665494051847 17.2462946428571  15.6663651899858 17.2462946428571  C 13.9645879572088 17.2462946428571  12.5860967462713 15.999200487013  12.5860967462713 14.4579428774351  C 12.5860967462713 12.9196864853896  13.9661809747869 11.669591112013  15.6663651899858 11.669591112013  Z " fill-rule="nonzero" fill="#ffffff" stroke="none" transform="matrix(1 0 0 1 31 36 )" />
  </g>
</svg>