<?xml version="1.0" encoding="utf-8"?>
<svg version="1.1" xmlns:xlink="http://www.w3.org/1999/xlink" width="70px" height="70px" xmlns="http://www.w3.org/2000/svg">
  <g transform="matrix(1 0 0 1 -185 -180 )">
    <path d="M 69.845047734375 35  C 69.845047734375 15.78752859375  54.21502484375 0.154952265625  35 0.154952265625  C 15.78752859375 0.154952265625  0.154952265624999 15.787394140625  0.154952265624999 35  C 0.154952265624999 54.21502484375  15.784975078125 69.845047734375  35 69.845047734375  C 54.215024921875 69.845047734375  69.845047734375 54.21502484375  69.845047734375 35  Z M 51.797204609375 25.71509203125  C 52.775030234375 26.68754203125  52.78497515625 28.269990625  51.81494421875 29.25251984375  L 31.7974734375 49.487434453125  C 31.792501015625 49.492406875  31.78242171875 49.4949603125  31.77744921875 49.502486171875  C 31.769923359375 49.50745859375  31.769923359375 49.517537890625  31.7623975 49.522510390625  C 31.602338359375 49.67746265625  31.404918671875 49.772476796875  31.219862890625 49.87757015625  C 31.1274021875 49.930116875  31.052412265625 50.01007921875  30.954844765625 50.04757421875  C 30.654885078125 50.167585  30.337320234375 50.2300765625  30.019889765625 50.2300765625  C 29.699905859375 50.2300765625  29.37736859375 50.167585  29.07485546875 50.042601796875  C 28.97486890625 50.000134375  28.8949065625 49.91506515625  28.799892421875 49.862652890625  C 28.614836640625 49.75769390625  28.422389375 49.665098828125  28.262330234375 49.507593125  C 28.2573578125 49.502620703125  28.254804375 49.49254140625  28.249831953125 49.48756890625  C 28.24485953125 49.480043046875  28.234780234375 49.480043046875  28.229807734375 49.4725171875  L 18.38476 39.35505984375  C 17.422254921875 38.365004765625  17.444698203125 36.782556171875  18.43475328125 35.82005109375  C 19.424808359375 34.860099453125  21.00470359375 34.877570234375  21.96976203125 35.870044375  L 30.03722609375 44.160059140625  L 48.262195859375 25.73511625  C 49.232226796875 24.75258703125  50.81722875 24.742642109375  51.797204609375 25.71509203125  Z " fill-rule="nonzero" fill="#2ab795" stroke="none" transform="matrix(1 0 0 1 185 180 )" />
  </g>
</svg>