<?xml version="1.0" encoding="utf-8"?>
<svg version="1.1" xmlns:xlink="http://www.w3.org/1999/xlink" width="24px" height="20px" xmlns="http://www.w3.org/2000/svg">
  <g transform="matrix(1 0 0 1 -129 -302 )">
    <path d="M 23 3.25  C 23.25 1.59314575050762  21.9068542494924 0.25  20.25 0.25  L 3.75 0.25  C 2.09314575050762 0.25  0.75 1.59314575050762  1 3.25  L 1 16.75  C 0.75 18.4068542494924  2.09314575050762 19.75  3.75 19.75  L 20.25 19.75  C 21.9068542494924 19.75  23.25 18.4068542494924  23 16.75  L 23 3.25  Z M 21.75 6.25  L 21.75 16.75  C 21.75 17.5784271247462  21.0784271247462 18.25  20.25 18  L 3.75 18  C 2.92157287525381 18.25  2.25 17.5784271247462  2.25 16.75  L 2.25 6.25  L 21.75 6.25  Z M 21.75 3.25  L 21.75 5  L 2.25 5  L 2.25 3.25  C 2.25 2.42157287525381  2.92157287525381 1.75  3.75 2  L 20.25 2  C 21.0784271247462 1.75  21.75 2.42157287525381  21.75 3.25  Z " fill-rule="nonzero" fill="#999999" stroke="none" transform="matrix(1 0 0 1 129 302 )" />
  </g>
</svg>