<?xml version="1.0" encoding="utf-8"?>
<svg version="1.1" xmlns:xlink="http://www.w3.org/1999/xlink" width="8px" height="11px" xmlns="http://www.w3.org/2000/svg">
  <g transform="matrix(1 0 0 1 -137 -309 )">
    <path d="M 3.25 6.75  L 1 6.75  C 0.585786437626904 6.75  0.25 7.0857864376269  0.25 7.5  C 0.25 7.9142135623731  0.585786437626904 8.25  1 8.25  L 3.25 8.25  L 3.25 9.75  C 3.25 10.1642135623731  3.5857864376269 10.5  4 10.5  C 4.4142135623731 10.5  4.75 10.1642135623731  4.75 9.75  L 4.75 8.25  L 7 8.25  C 7.4142135623731 8.25  7.75 7.9142135623731  7.75 7.5  C 7.75 7.0857864376269  7.4142135623731 6.75  7 6.75  L 4.75 6.75  L 4.75 5.25  L 7 5.25  C 7.4142135623731 5.25  7.75 4.9142135623731  7.75 4.5  C 7.75 4.0857864376269  7.4142135623731 3.75  7 3.75  L 5.134 3.75  L 5.1085 3.7245  L 7.5085 1.3245  C 7.64180131071484 1.17967843491835  7.71579215820249 0.990039051596645  7.71579215820249 0.793207841797505  C 7.71579215820249 0.359940455555249  7.36455954444475 0.00870784179750572  6.93129215820249 0.00870784179750572  C 6.73446094840336 0.00870784179750572  6.54482156508165 0.0826986892851593  6.4 0.216000000000001  L 4 2.616  L 1.6 0.216000000000001  C 1.45517843491836 0.0826986892851753  1.26553905159666 0.00870784179753237  1.06870784179753 0.00870784179753237  C 0.635440455555274 0.00870784179753237  0.284207841797532 0.359940455555275  0.284207841797532 0.793207841797532  C 0.284207841797532 0.990039051596657  0.358198689285176 1.17967843491835  0.4915 1.3245  L 2.8915 3.7245  L 2.866 3.75  L 1 3.75  C 0.585786437626904 3.75  0.25 4.0857864376269  0.25 4.5  C 0.25 4.9142135623731  0.585786437626904 5.25  1 5.25  L 3.25 5.25  L 3.25 6.75  Z " fill-rule="nonzero" fill="#999999" stroke="none" transform="matrix(1 0 0 1 137 309 )" />
  </g>
</svg>