<?xml version="1.0" encoding="utf-8"?>
<svg version="1.1" xmlns:xlink="http://www.w3.org/1999/xlink" width="24px" height="24px" xmlns="http://www.w3.org/2000/svg">
  <g transform="matrix(1 0 0 1 -129 -335 )">
    <path d="M 23.568 12.00159375  C 23.568 5.6208046875  18.3776015625 0.43359375  12 0.43359375  C 5.6223984375 0.43359375  0.43359375 5.6208046875  0.43359375 12.00159375  C 0.43359375 18.3791953125  5.6223984375 23.568  12 23.568  C 18.3791953125 23.568  23.568 18.3807890625  23.568 12.00159375  Z M 21.9679921875 12  C 21.9679921875 17.496  17.496 21.9663984375  12 21.9663984375  C 6.504 21.9663984375  2.0336015625 17.49440625  2.0336015625 12  C 2.0336015625 6.50240625  6.504 2.0320078125  12 2.0320078125  C 17.49759375 2.0320078125  21.9679921875 6.504  21.9679921875 12  Z M 14.7903984375 5.9696015625  L 12.95840625 9.3423984375  C 12.4704140625 10.257609375  12.1712109375 10.8671953125  12.0624140625 11.1648046875  L 12.030421875 11.1648046875  C 11.7088125 10.4351953125  10.8000234375 8.7040078125  9.30403125 5.9696015625  L 7.5840234375 5.9696015625  L 10.7856328125 11.47040625  L 8.1600234375 11.47040625  L 8.1600234375 12.6896015625  L 11.235234375 12.6896015625  L 11.235234375 14.3583984375  L 8.1600234375 14.3583984375  L 8.1600234375 15.5951953125  L 11.235234375 15.5951953125  L 11.235234375 18.0319921875  L 12.7648359375 18.0319921875  L 12.7648359375 15.5951953125  L 15.73284375 15.5951953125  L 15.73284375 14.3583984375  L 12.7648359375 14.3583984375  L 12.7648359375 12.6896015625  L 15.73284375 12.6896015625  L 15.73284375 11.47040625  L 13.1856328125 11.47040625  L 16.419234375 5.9696015625  L 14.7904453125 5.9696015625  Z " fill-rule="nonzero" fill="#999999" stroke="none" transform="matrix(1 0 0 1 129 335 )" />
  </g>
</svg>