<?xml version="1.0" encoding="utf-8"?>
<svg version="1.1" xmlns:xlink="http://www.w3.org/1999/xlink" width="24px" height="23px" xmlns="http://www.w3.org/2000/svg">
  <g transform="matrix(1 0 0 1 -29 -40 )">
    <path d="M 23.5 11.5  C 23.5 5.175  18.325 0  12 0  C 5.675 0  0.5 5.175  0.5 11.5  C 0.5 17.825  5.675 23  12 23  C 18.325 23  23.5 17.825  23.5 11.5  Z M 22.0625 11.5  C 22.0625 17.10625  17.60625 21.5625  12 21.5625  C 6.39375 21.5625  1.9375 16.9625  1.9375 11.5  C 1.9375 6.0375  6.5375 1.4375  12 1.4375  C 17.60625 1.4375  22.0625 5.89375  22.0625 11.5  Z M 18.325 12.21875  C 18.325 11.5  17.75 10.925  17.03125 10.925  L 12.71875 10.925  L 12.71875 4.8875  C 12.71875 4.16875  12.14375 3.7375  11.56875 3.7375  C 10.85 3.7375  10.41875 4.3125  10.41875 4.8875  L 10.41875 12.21875  C 10.41875 12.9375  10.85 13.36875  11.56875 13.36875  L 17.175 13.36875  C 17.89375 13.36875  18.325 12.9375  18.325 12.21875  Z " fill-rule="nonzero" fill="#ffffff" stroke="none" transform="matrix(1 0 0 1 29 40 )" />
  </g>
</svg>