<?xml version="1.0" encoding="utf-8"?>
<svg version="1.1" xmlns:xlink="http://www.w3.org/1999/xlink" width="12px" height="19px" xmlns="http://www.w3.org/2000/svg">
  <g transform="matrix(1 0 0 1 -29 -45 )">
    <path d="M 10.5358236866512 18.8381502890173  L 10.5554617427653 18.8381502890173  C 10.4235168251308 18.8371762271269  10.2944010804899 18.7998006157264  10.1823388153261 18.730141017341  L 0.363314735164071 12.6914406936416  C 0.143312939660946 12.5667987855861  0.00525784700001276 12.3354631985986  0 12.0826611560694  L 0 0.908610797687862  C 0 0.90729564373246  0 0.905980472343502  0 0.904665298464034  C 0 0.508793770266684  0.320917253443907 0.18787648921548  0.71678874758593 0.18787648921548  C 0.833120310183215 0.18787648921548  0.947703857911589 0.216190582517383  1.05064642170027 0.270374173410405  L 10.8696705018622 5.49409542196532  C 11.1033116650677 5.61705543308338  11.2504421825335 5.85850040992066  11.2526124342371 6.12251301734104  L 11.2526124342371 18.1213614797688  C 11.2526124342371 18.5172330079661  10.9316951807932 18.8381502890173  10.5358236866512 18.8381502890173  Z M 1.43358837719652 2.09671280924856  L 1.43358837719652 11.680081132948  L 9.81903491594388 16.8448882312139  L 9.81903491594388 6.55455010404624  L 1.43358837719652 2.09671280924856  Z " fill-rule="nonzero" fill="#ffffff" stroke="none" transform="matrix(1 0 0 1 29 45 )" />
  </g>
</svg>