<?xml version="1.0" encoding="utf-8"?>
<svg version="1.1" xmlns:xlink="http://www.w3.org/1999/xlink" width="18px" height="7px" xmlns="http://www.w3.org/2000/svg">
  <g transform="matrix(1 0 0 1 -31 -49 )">
    <path d="M 6.02118099764164 3.26160116538836  C 6.02118099764164 3.65326485393056  5.70680267643055 3.97241228031545  5.31518337572254 3.97830873988439  C 5.20156960534016 3.98913047398044  5.0870247440056 3.97228563443146  4.98133653179191 3.92921359537572  L 0.680603630057804 1.61192372254335  C 0.428084175298296 1.49421768910664  0.26664623511243 1.2408524647825  0.26664623511243 0.96224739422663  C 0.26664623511243 0.566375866029279  0.587563516163634 0.245458584978074  0.983435044360985 0.245458584978074  C 1.11179898310823 0.245458584978074  1.23780771312886 0.279929254926074  1.34829731791908 0.345269502890174  L 5.64903024277456 2.63310231213873  C 5.87852353860093 2.75894521950164  6.02118099764164 2.99986922205167  6.02118099764164 3.26160116538836  Z M 16.8525376647399 6.4919790982659  L 16.8525376647399 6.55089324855492  C 16.7638936149834 6.55250862352139  16.676215190098 6.53227514146638  16.5972430057803 6.4919790982659  L 14.7218092485549 5.51007662427746  C 14.538654507855 5.41483615980356  14.4237428154212 5.22556278782135  14.4237428154212 5.01912537572255  C 14.4237428154212 4.71351248979454  14.6714910100258 4.46576429519001  14.9771038959538 4.46576429519001  C 15.0659791555905 4.46576429519001  15.1535469196672 4.4871712831483  15.2323985433526 4.52817412716763  L 17.1078323236994 5.51007662427746  C 17.253796424779 5.61091068504257  17.3409276975965 5.77700251377463  17.3409276975965 5.95440890208785  C 17.3409276975965 6.23265900580677  17.1295119542935 6.4653640058204  16.8525376647399 6.4919790982659  Z " fill-rule="nonzero" fill="#ffffff" stroke="none" transform="matrix(1 0 0 1 31 49 )" />
  </g>
</svg>