<?xml version="1.0" encoding="utf-8"?>
<svg version="1.1" xmlns:xlink="http://www.w3.org/1999/xlink" width="12px" height="12px" xmlns="http://www.w3.org/2000/svg">
  <g transform="matrix(1 0 0 1 -42 -49 )">
    <path d="M 11.0075257572254 6.01084689017341  C 11.0021225490964 8.85562710755354  8.69731788214425 11.160431764168  5.85253766473988 11.1658349595376  C 3.00551635570078 11.1658349595376  0.697549572254335 8.85786817609112  0.697549572254335 6.01084686705202  C 0.697549572254335 3.16382555801292  3.00551635570078 0.855858774566475  5.85253766473988 0.855858774566475  C 8.69955897377898 0.855858774566475  11.0075257572254 3.16382555801292  11.0075257572254 6.01084686705202  Z M 5.85253766473988 2.27961741040462  L 5.85253766473988 2.32871253179191  C 3.7918365249445 2.32871253179191  2.1213081849711 3.99924087176531  2.1213081849711 6.05994201156069  C 2.1213081849711 8.12064315135608  3.7918365249445 9.79117149132948  5.85253766473988 9.79117149132948  C 7.91323880453526 9.79117149132948  9.58376714450867 8.12064315135608  9.58376714450867 6.05994201156069  C 9.58398248108697 6.04357785190436  9.5840901528715 6.02721245259815  9.5840901528715 6.01084687619217  C 9.5840901528715 3.95014573639679  7.9135618128981 2.27961739642339  5.85286067310271 2.27961739642339  Z " fill-rule="nonzero" fill="#ffffff" stroke="none" transform="matrix(1 0 0 1 42 49 )" />
  </g>
</svg>