<?xml version="1.0" encoding="utf-8"?>
<svg version="1.1" xmlns:xlink="http://www.w3.org/1999/xlink" width="22px" height="24px" xmlns="http://www.w3.org/2000/svg">
  <g transform="matrix(1 0 0 1 -29 -40 )">
    <path d="M 10.9285845549133 23.730141017341  C 10.8167348079942 23.8002765762683  10.68748113443 23.8376921135634  10.5554616184971 23.8381502890173  C 10.1616412109672 23.8352771241324  9.84390209039081 23.5152114430977  9.84390209039081 23.1213805549446  C 9.84390209039081 22.8735913721631  9.97188096972928 22.6433758032875  10.1823386589595 22.5125819190751  L 13.8448349595376 20.2640252254335  C 13.9683012729164 20.1725436030073  14.1178983579022 20.1231612280351  14.2715629855206 20.1231612280351  C 14.6674345137179 20.1231612280351  14.9883517947691 20.4440785090863  14.9883517947691 20.8399500372837  C 14.9883517947691 21.1118682841474  14.8344887627459 21.3603732298651  14.5910808554913 21.481584300578  L 10.9285845549133 23.730141017341  Z M 10.8696704046243 11.7607496416185  C 10.7722989264655 11.8105630777211  10.6648192454972 11.8374330019177  10.5554616184971 11.839301849711  C 10.439462405301 11.8405185595759  10.3249010212412 11.813562938397  10.2216147514451 11.7607496416185  L 0.382951791907514 6.53702839306358  C 0.151176101071392 6.4118861597323  0.00670934868337385 6.16970499851477  0.00670934868337385 5.90630312034056  C 0.00670934868337385 5.63891132671814  0.155543091327337 5.39374911276794  0.392770820809249 5.2703741734104  L 10.2117957456647 0.243033410404625  C 10.4177291003424 0.134786654291711  10.6637370499466 0.134786654291711  10.8696704046243 0.243033410404625  L 20.6886953294798 5.46675465895954  C 20.9231759590559 5.59103660177098  21.0698012987995 5.83470059583785  21.0698012987995 6.10008176878613  C 21.0698012987995 6.3654629417344  20.9231759590559 6.60912693580127  20.6886953294798 6.73340887861272  L 10.8696704046243 11.7607496416185  Z M 10.5456425895954 1.68643008092486  L 2.26820457803468 5.94788689017341  L 10.5652806242775 10.3468100578035  L 18.8427186358381 6.05589616184971  L 10.5456425895954 1.68643008092486  Z " fill-rule="nonzero" fill="#ffffff" stroke="none" transform="matrix(1 0 0 1 29 40 )" />
  </g>
</svg>