<?xml version="1.0" encoding="utf-8"?>
<svg version="1.1" xmlns:xlink="http://www.w3.org/1999/xlink" width="24px" height="22px" xmlns="http://www.w3.org/2000/svg">
  <g transform="matrix(1 0 0 1 -18 -121 )">
    <path d="M 24 1.3555625  C 23.9998964979739 0.956199952281391  23.6761750477186 0.632478502026134  23.2768125 1  L 9.955875 1  C 9.55651245228139 0.632478502026133  9.23279100202613 0.956199952281391  9.2326875 1.3555625  L 9.2326875 3.4625  L 4.35375 3.446375  L 4.3513125 3.446375  C 4.09711103859134 3.44646687719403  3.86162331511585 3.58001432859669  3.7310625 3.798125  L 0.103125 9.8444375  C 0.0356458362565457 9.957132009357  0 10.0860224592771  0 10.217375  L 0 15.7720625  C 0 17.3061875  1.24875 18.5549375  2.783625 18.5549375  L 3.918375 18.5549375  C 3.9298125 20.107625  5.1954375 21.367625  6.750375 21.367625  C 8.3053125 21.367625  9.5709375 20.107625  9.582375 18.5549375  L 14.58675 18.5549375  C 14.598375 20.107625  15.863625 21.367625  17.41875 21.367625  C 18.973875 21.367625  20.2393125 20.107625  20.25075 18.5549375  L 21.2158125 18.5549375  C 22.750875 18.5549375  23.999625 17.3061875  23.999625 15.7720625  L 23.999625 11.6639375  C 23.999625 11.6474375  23.9956875 11.6320625  23.9949375 11.6159375  C 23.995875 11.599625  23.999625 11.58425  24 11.56775  L 24 1.3555625  Z M 10.67925 2  L 22.5534375 2  L 22.5534375 11  L 10.6839375 11  L 10.67925 10.5426875  L 10.67925 2  Z M 8.1369375 18.5339375  C 8.1369375 19.298375  7.5151875 19.9210625  6.750375 19.9210625  C 5.98575 19.9210625  5.3638125 19.2981875  5.3638125 18.5339375  C 5.3638125 17.7696875  5.98575 17.1479375  6.750375 17.1479375  C 7.515 17.1479375  8.1369375 17.7695  8.1369375 18.5339375  Z M 18.8056875 18.5339375  C 18.8056875 19.298375  18.183375 19.9210625  17.4189375 19.9210625  C 16.6546875 19.9210625  16.032375 19.2981875  16.032375 18.5339375  C 16.032375 17.7696875  16.6545 17.1479375  17.4189375 17.1479375  C 18.183375 17.1479375  18.8056875 17.7695  18.8056875 18.5339375  Z M 22.5534375 12  L 22.5534375 15.7720625  C 22.5534375 16.5095  21.9538125 17.108375  21.2161875 17.108375  L 19.863375 17.108375  C 19.371375 16.268375  18.4610625 15.701375  17.4189375 15.701375  C 16.3708125 15.701375  15.456 16.274375  14.9660625 17.12225  C 14.920420375929 17.11323555872  14.8740233016858 17.1085895729366  14.8275 17.108375  L 9.1948125 17.108375  C 8.702625 16.268375  7.7925 15.701375  6.750375 15.701375  C 5.70825 15.701375  4.798125 16.2681875  4.306125 17.108375  L 2.783625 17.108375  C 2.0461875 17.108375  1.4465625 16.5095  1.4465625 15.7720625  L 1.4465625 10.418  L 4.7595 4.8944375  L 9.1426875 4.90925  L 9.2325 10.562  L 9.2325 11.56775  C 9.2325 11.631875  9.2435625 11.6928125  9.259125 11.751875  C 9.303375 12.1090625  9.6050625 12.387125  9.9735 12  L 22.5534375 12  Z " fill-rule="nonzero" fill="#666666" stroke="none" transform="matrix(1 0 0 1 18 121 )" />
  </g>
</svg>