<?xml version="1.0" encoding="utf-8"?>
<svg version="1.1" xmlns:xlink="http://www.w3.org/1999/xlink" width="22px" height="22px" xmlns="http://www.w3.org/2000/svg">
  <g transform="matrix(1 0 0 1 -35 -41 )">
    <path d="M 21.5 11  C 21.5 16.78998790625  16.78998790625 21.5  11 21.5  C 5.21001209375 21.5  0.5 16.78998790625  0.5 11  C 0.5 5.21001209375  5.21001209375 0.5  11 0.5  C 16.78998790625 0.5  21.5 5.21001209375  21.5 11  Z M 19.9932670390625 11  C 19.9932670390625 6.040989125  15.9582448671875 2.0067329609375  11 2.0067329609375  C 6.040989125 2.0067329609375  2.0067329609375 6.0409891015625  2.0067329609375 11  C 2.0067329609375 15.9582448671875  6.0409891015625 19.9932670390625  11 19.9932670390625  C 15.9582448671875 19.9932670390625  19.9932670390625 15.9582851796875  19.9932670390625 11  Z M 16.04383821875 9.2764413359375  C 16.335492546875 8.9809971875  16.3325090703125 8.506262609375  16.0385163359375 8.215253328125  C 15.7445236015625 7.9235183515625  15.2690229921875 7.9265018046875  14.9780137109375 8.22126059375  L 9.51052278125 13.7487434609375  L 7.0902835625 11.26173903125  C 6.80076603125 10.9639967890625  6.326031453125 10.9587555546875  6.0297809375 11.246741046875  C 5.7327644140625 11.5354925703125  5.726031453125 12.01099315625  6.014782953125 12.307243671875  L 8.9682972734375 15.342480875  C 8.969789 15.3447386328125  8.9728127890625 15.3447386328125  8.9743045390625 15.346996390625  C 8.975796265625 15.3484881171875  8.976562296875 15.35151190625  8.9780540234375 15.35300365625  C 9.025305734375 15.3994893359375  9.0838059453125 15.427993578125  9.1393226796875 15.4595215859375  C 9.1685526171875 15.4752856015625  9.191815625 15.5015320625  9.22181159375 15.5135062578125  C 9.31256553125 15.55100121875  9.4093267109375 15.5697486875  9.5053218828125 15.5697486875  C 9.6005913359375 15.5697486875  9.6958204765625 15.55100121875  9.7858083828125 15.514997984375  C 9.8150383203125 15.5029834765625  9.837575609375 15.47899475  9.8653138203125 15.463996765625  C 9.92155625 15.4325090703125  9.9800564609375 15.404730546875  10.028074203125 15.3574788359375  C 10.0295659296875 15.355987109375  10.0303319609375 15.3529633203125  10.03258971875 15.3514715703125  C 10.0340814453125 15.3492138125  10.036339203125 15.34848809375  10.038596984375 15.3469560546875  L 16.04383821875 9.2764413359375  Z " fill-rule="nonzero" fill="#ffffff" stroke="none" transform="matrix(1 0 0 1 35 41 )" />
  </g>
</svg>