<?xml version="1.0" encoding="utf-8"?>
<svg version="1.1" xmlns:xlink="http://www.w3.org/1999/xlink" width="28px" height="28px" xmlns="http://www.w3.org/2000/svg">
  <g transform="matrix(1 0 0 1 -27 -38 )">
    <path d="M 27.0668929003906 14  C 27.0668929003906 21.2056343457031  21.2056343164063 27.0668929003906  14 27.0668929003906  C 6.79532322265625 27.0668929003906  0.933107099609375 21.2056343457031  0.933107099609375 14  C 0.933107099609375 6.79532322265625  6.79527280273437 0.933107099609375  14 0.933107099609375  C 21.2056343164063 0.933107099609375  27.0668929003906 6.79436565429688  27.0668929003906 14  Z M 25.1918929003906 14  C 25.1918929003906 7.82840005859375  20.1706423730469 2.80810709960937  14 2.80810709960937  C 7.82845047851563 2.80810709960937  2.80810709960937 7.82840005859375  2.80810709960937 14  C 2.80810709960937 20.1706423730469  7.82840005859375 25.1918929003906  14 25.1918929003906  C 20.1706423730469 25.1918929003906  25.1918929003906 20.1715999414062  25.1918929003906 14  Z M 14 6.5  C 13.2233402832031 6.5  12.5937374023438 7.12960288085937  12.5937374023438 7.90626259765625  C 12.5937374023438 8.68292231445312  13.2233402832031 9.3125251953125  14 9.3125251953125  C 14.7766597167969 9.3125251953125  15.4062625976563 8.68292231445312  15.4062625976563 7.90626259765625  C 15.4062625976563 7.12960288085937  14.7766597167969 6.5  14 6.5  Z M 14.9375251953125 20.5624748046875  C 14.9375251953125 21.0809534960938  14.5175211523438 21.5  14 21.5  C 13.4824788476562 21.5  13.0624748046875 21.0809534960938  13.0624748046875 20.5624748046875  L 13.0624748046875 12.125  C 13.0624748046875 11.6074788476562  13.4824788476562 11.1874748046875  14 11.1874748046875  C 14.5175211523438 11.1874748046875  14.9375251953125 11.6074788476562  14.9375251953125 12.125  L 14.9375251953125 20.5624748046875  Z " fill-rule="nonzero" fill="#ffffff" stroke="none" transform="matrix(1 0 0 1 27 38 )" />
  </g>
</svg>