<?xml version="1.0" encoding="utf-8"?>
<svg version="1.1" xmlns:xlink="http://www.w3.org/1999/xlink" width="24px" height="20px" xmlns="http://www.w3.org/2000/svg">
  <g transform="matrix(1 0 0 1 -138 -88 )">
    <path d="M 20.6320000078125 12.2816000078125  L 13.1071999921875 19.4852000078125  C 12.4882546443227 20.077956007333  11.5121167311692 20.0776032220125  10.8936 19.4843999921875  L 3.3768 12.2776  C 3.3664000078125 12.2692  0.4000000078125 9.6496  0.4000000078125 6.3680000078125  C 0.4000000078125 2.4836000078125  2.8600000078125 0.0707999921875002  6.8215999921875 0.0707999921875002  C 8.9148 0.0707999921875002  10.8552 1.501999984375  12 2.5559999921875  C 13.1440000078125 1.501999984375  15.0844000078125 0.0707999921875002  17.1784000078125 0.0707999921875002  C 21.1392 0.0707999921875002  23.5999999921875 2.4836000078125  23.5999999921875 6.3680000078125  C 23.5999999921875 9.2204000078125  21.327999984375 11.6152  20.6320000078125 12.2816000078125  Z " fill-rule="nonzero" fill="#666666" stroke="none" transform="matrix(1 0 0 1 138 88 )" />
  </g>
</svg>