<?xml version="1.0" encoding="utf-8"?>
<svg version="1.1" xmlns:xlink="http://www.w3.org/1999/xlink" width="16px" height="15px" xmlns="http://www.w3.org/2000/svg">
  <g transform="matrix(1 0 0 1 -283 -91 )">
    <path d="M 15.2396484375 3.2056640625  C 15.23759765625 1.91572265625  14.24296875 0.8677734375  13.02275390625 1  L 2.53095703125 1  C 1.30869140625 0.8677734375  0.31611328125 1.91572265625  0.31611328125 3.20361328125  L 0.31611328125 9.61845703125  C 0.31611328125 10.94736328125  1.34765625 12.069140625  2.569921875 12.069140625  L 5.0349609375 12.069140625  C 5.6583984375 12.741796875  7.28671875 14.4685546875  7.28671875 14.4685546875  C 7.4138671875 14.60595703125  7.59228515625 14.68388671875  7.77685546875 14.68388671875  C 7.96142578125 14.68388671875  8.13779296875 14.60595703125  8.28134765625 14.4521484375  C 8.29365234375 14.43779296875  9.5548828125 12.9755859375  10.44697265625 12.069140625  L 12.9837890625 12.069140625  C 14.2060546875 12.069140625  15.2396484375 10.94736328125  15.2396484375 9.61845703125  L 15.2396484375 3.2056640625  Z M 5.11083984375 6.515625  C 5.11083984375 7.032421875  4.69248046875 7.45078125  4.17568359375 7.45078125  C 3.65888671875 7.45078125  3.24052734375 7.032421875  3.24052734375 6.515625  C 3.24052734375 5.998828125  3.65888671875 5.58046875  4.17568359375 5.58046875  C 4.69248046875 5.58046875  5.11083984375 5.998828125  5.11083984375 6.515625  Z M 8.78994140625 6.515625  C 8.78994140625 7.032421875  8.37158203125 7.45078125  7.85478515625 7.45078125  C 7.33798828125 7.45078125  6.91962890625 7.032421875  6.91962890625 6.515625  C 6.91962890625 5.998828125  7.33798828125 5.58046875  7.85478515625 5.58046875  C 8.37158203125 5.58046875  8.78994140625 5.998828125  8.78994140625 6.515625  Z M 12.46904296875 6.515625  C 12.46904296875 7.032421875  12.05068359375 7.45078125  11.53388671875 7.45078125  C 11.01708984375 7.45078125  10.59873046875 7.032421875  10.59873046875 6.515625  C 10.59873046875 5.998828125  11.01708984375 5.58046875  11.53388671875 5.58046875  C 12.05068359375 5.58046875  12.46904296875 5.998828125  12.46904296875 6.515625  Z " fill-rule="nonzero" fill="#666666" stroke="none" transform="matrix(1 0 0 1 283 91 )" />
  </g>
</svg>