<?xml version="1.0" encoding="utf-8"?>
<svg version="1.1" xmlns:xlink="http://www.w3.org/1999/xlink" width="19px" height="13px" xmlns="http://www.w3.org/2000/svg">
  <g transform="matrix(1 0 0 1 -211 -93 )">
    <path d="M 7.02894097167969 6.16224160351562  C 7.02894097167969 6.49311590136719  7.09430837304688 6.82396561035156  7.22000575976563 7.12965699121094  C 7.34568676074219 7.43545082910156  7.531751046875 7.71586909960937  7.76416846484375 7.94993423828125  C 7.99649981152344 8.18393789453125  8.27490148730469 8.37131377832031  8.57849018164062 8.49792109667969  C 8.88199690625 8.62461040527343  9.21048981640625 8.69033849804687  9.53908928515625 8.69033849804687  C 9.86762316992187 8.69033849804687  10.1961119785156 8.62461040527344  10.499618703125 8.49792109667969  C 10.8032114990234 8.37131377832031  11.0816295605469 8.18393787402344  11.3140469990234 7.94993423828125  C 11.5463824472656 7.71586499804687  11.7324221240234 7.43544672753906  11.8581236328125 7.12965699121094  C 11.9839111923828 6.82396971191406  12.04927859375 6.4930954140625  12.04927859375 6.16224160351562  C 12.04927859375 5.8312607265625  11.9839111923828 5.50041101757813  11.8581236328125 5.19474424609375  C 11.7324221445313 4.88895040820312  11.5463783457031 4.60853213769531  11.3140469990234 4.37452848144531  C 11.0816295810547 4.14043875390625  10.8032115195312 3.95305876855469  10.499618703125 3.82645555175781  C 10.1961119785156 3.69978675097656  9.86759858105469 3.63403815039063  9.53908928515625 3.63403815039063  C 9.21049391796875 3.63403815039063  8.8820010078125 3.69978673046875  8.57849018164062 3.82645555175781  C 8.27489738574219 3.95306287011719  7.99650391308594 4.14043877441406  7.76416846484375 4.37452848144531  C 7.531751046875 4.60851162988281  7.34568265917969 4.88892992089844  7.22000575976563 5.19474424609375  C 7.09430427148438 5.50040693652344  7.02894097167969 5.8312607265625  7.02894097167969 6.16224160351562  Z M 18.5716727978516 5.55137531054688  C 18.5716727978516 5.55137531054688  18.5612577822266 5.31060456835938  16.3483450478516 3.2273486640625  C 13.1852072304687 0.472306225585939  10.3656991396484 0.0767490361328136  8.26862211816406 0.338128448242188  C 6.1715287109375 0.599507880859376  4.59344376171875 1.73678913085938  4.46725043457031 1.80749725878906  C 3.471282921875 2.36556713183594  0.658804232421875 5.14171009960938  0.490545075195312 5.48785236132813  C 0.0907333349609374 6.31432286523438  0.63783076953125 7.14077290234375  0.63783076953125 7.14077290234375  C 0.63783076953125 7.14077290234375  5.17565549316406 12.054304421875  9.29964652636719 12.054304421875  C 13.4236375595703 12.054304421875  15.3804993037109 10.2701203457031  16.2080846738281 9.62032790722656  C 17.0356700644531 8.97040840234375  18.0525659433594 7.79066783886719  18.5716645947266 7.09139896972657  C 18.9364317441406 6.307244265625  18.5716727978516 5.55137531054688  18.5716727978516 5.55137531054688  Z M 9.53908928515625 10.4069623134766  C 7.21147619140625 10.4069623134766  5.32456021777344 8.50651214746094  5.32456021777344 6.16223750195313  C 5.32456021777344 3.81788088671875  7.21147211035156 1.91742661914063  9.53908518359375 1.91742661914063  C 11.8666572822266 1.91742661914063  13.75353228125 3.81787678515625  13.75353228125 6.16223750195313  C 13.75353228125 8.50651214746094  11.8666613837891 10.4069623134766  9.53908928515625 10.4069623134766  Z " fill-rule="nonzero" fill="#666666" stroke="none" transform="matrix(1 0 0 1 211 93 )" />
  </g>
</svg>