<?xml version="1.0" encoding="utf-8"?>
<svg version="1.1" xmlns:xlink="http://www.w3.org/1999/xlink" width="20px" height="20px" xmlns="http://www.w3.org/2000/svg">
  <g transform="matrix(1 0 0 1 -8 -32 )">
    <path d="M 19.5031948366477 10  C 19.5031948366477 4.76023507102273  15.2404613210227 0.496805163352278  10 0.496805163352278  C 4.76023507102273 0.496805163352278  0.496805163352272 4.76019840198864  0.496805163352272 10  C 0.496805163352272 15.2404613210227  4.75953865767045 19.5031948366477  10 19.5031948366477  C 15.2404613423295 19.5031948366477  19.5031948366477 15.2404613210227  19.5031948366477 10  Z M 14.5810558025568 7.46775237215909  C 14.8477355184659 7.73296600852272  14.8504477698864 8.16454289772727  14.5858938778409 8.43250541193181  L 9.12658366477272 13.9511184872159  C 9.12522754971591 13.9524746022727  9.12247865056818 13.9531709943182  9.12112251420454 13.9552235014205  C 9.11907000710227 13.9565796164773  9.11907000710227 13.959328515625  9.1170175 13.9606846519886  C 9.07336500710227 14.0029443607955  9.01952327414773 14.0288573082386  8.969053515625 14.0575191335227  C 8.94383696022727 14.0718500568182  8.92338516335227 14.09365796875  8.89677584517046 14.1038838778409  C 8.81496865767046 14.1366140909091  8.72836006392046 14.1536572443182  8.64178811789773 14.1536572443182  C 8.55451977982954 14.1536572443182  8.46655507102273 14.1366140909091  8.38405149147727 14.1025277627841  C 8.35678242897728 14.0909457386364  8.33497451704546 14.0677450426136  8.30906156960227 14.0534507883523  C 8.25859181107955 14.0248256107955  8.20610619318182 13.9995724076705  8.16245370028409 13.9566163068182  C 8.16109758522727 13.9552601917614  8.16040119318182 13.9525112926136  8.159045078125 13.95115515625  C 8.15768896306819 13.9491026491477  8.15494006392046 13.9491026491477  8.15358392755682 13.9470501420455  L 5.46857090909091 11.18774359375  C 5.20606952414773 10.9177285724432  5.21219041903409 10.4861516832386  5.48220544034091 10.2236502982955  C 5.75222046164773 9.96184530539773  6.18310098011364 9.96661006392046  6.44629873579546 10.2372848295455  L 8.64651620738637 12.4981979474432  L 13.6169625071023 7.47321352272728  C 13.8815163991477 7.20525100852273  14.3137896590909 7.20253875710227  14.5810558025568 7.46775237215909  Z " fill-rule="nonzero" fill="#fc4024" stroke="none" transform="matrix(1 0 0 1 8 32 )" />
  </g>
</svg>