<?xml version="1.0" encoding="utf-8"?>
<svg version="1.1" xmlns:xlink="http://www.w3.org/1999/xlink" width="44px" height="30px" xmlns="http://www.w3.org/2000/svg">
  <g transform="matrix(1 0 0 1 -58 -29 )">
    <path d="M 39.5964296875 0.362907619724023  L 4.27149853515625 0.362907619724023  C 2.018037109375 0.362907619724023  0.192056640624997 1.77254197950487  1 3.51084276075487  L 1 26.5806502384334  C 0.192056640624997 28.3189179180195  2.01807958984376 29.7285853794643  4.27149853515625 29.7285853794643  L 39.5964721679687 29.7285853794643  C 41.8500185546875 29.7285853794643  43.6759140625 28.3189510196834  43 26.5806502384334  L 43 3.51084276075487  C 43.6758715820313 1.77035726968343  41.8498911132813 0.362907619724023  39.5964296875 0.362907619724023  Z M 4.26708056640625 2.46085797991071  L 4.26716552734375 3  L 39.5978315429687 3  C 40.3494384765625 2.46085797991071  40.9566967773438 2.92851828835227  41 3.50865805093346  L 41 15.8618680245536  C 38.76687109375 14.4744779829545  34.972005859375 12.6038036475243  30.41691015625 12.6038036475243  C 26.2185654296875 12.6038036475243  22.0768471679688 15.116352348823  18.0738276367188 17.5449883319805  C 15.0064404296875 19.4046398133117  11.8343388671875 21.330428419237  9.60916943359375 21.330428419237  C 6.48664257812499 21.330428419237  3.8155556640625 19.559025974026  3 18.881832132711  L 3 3.50869115259739  C 2.90821533203125 2.9307029981737  3.51691796874999 2.46085797991071  4.26708056640625 2.46085797991071  Z M 39.5978740234375 27.6284834111201  L 4.2672080078125 27.6284834111201  C 3.5170029296875 27.6284834111201  2.9083427734375 27.1586052911932  2.9083427734375 26.5806502384334  L 2.9083427734375 21.6017627587257  C 4.53759619140625 22.4907079443993  6.89432763671876 23.4283125760958  9.609296875 23.4283125760958  C 12.7743466796875 23.4283125760958  16.1644580078125 21.3701504159903  19.754142578125 19.1950731787744  C 23.3948037109375 16.9869273792613  27.1586157226562 14.7039056158685  30.4170375976562 14.7039056158685  C 36.2559780273437 14.7039056158685  40.8888129882813 18.6722985998377  40.9369858398437 18.711954393263  L 40.9582260742188 18.6964959161932  L 40.9582260742188 26.5806171367695  C 40.9582260742188 27.1607568993507  40.3495234375 27.6306681209416  39.597958984375 27.6306681209416  L 39.597958984375 27.6284834111201  Z M 13.7665205078125 15.0545846438717  C 16.7729907226563 15.0545846438717  19.2105200195313 13.1751383674919  19.2105200195313 10.8566978236607  C 19.2105200195313 8.5360063666802  16.7730756835938 6.65430917715099  13.7665205078125 6.65430917715099  C 10.7614521484375 6.65430917715099  8.32396533203125 8.5360063666802  8.32396533203125 10.8566978236607  C 8.32396533203125 13.1751052658279  10.7614521484375 15.0545846438717  13.7665205078125 15.0545846438717  Z M 13.7864013671875 8.75219333400973  C 15.2825634765625 8.75219333400973  16.4970375976562 9.68751395089286  16.4970375976562 10.8434571580763  C 16.4970375976562 11.9994003652597  15.2825634765625 12.9347209821429  13.7864013671875 12.9347209821429  C 12.2888374023437 12.9347209821429  11.0757651367187 11.9994003652597  11.0757651367187 10.8434571580763  C 11.0757651367187 9.68976486404222  12.2902392578125 8.75219333400973  13.7864013671875 8.75219333400973  Z " fill-rule="nonzero" fill="#ffffff" stroke="none" transform="matrix(1 0 0 1 58 29 )" />
  </g>
</svg>