<?xml version="1.0" encoding="utf-8"?>
<svg version="1.1" xmlns:xlink="http://www.w3.org/1999/xlink" width="15px" height="15px" xmlns="http://www.w3.org/2000/svg">
  <g transform="matrix(1 0 0 1 -349 -60 )">
    <path d="M 14.9851675226151 7.13184065378289  C 14.9863770271381 6.80498517064144  14.7217160958059 6.5391465419408  14.3954653741777 6.53796886307566  L 8.52355723889804 6.53981497327302  L 8.52355723889804 0.644225810032893  C 8.52355723889804 0.317370345394735  8.25829152754932 0.0521046340460529  7.93143606291119 0.0521046340460529  C 7.604580598273 0.0521046340460529  7.33934671258226 0.317370345394735  7.33934671258226 0.644225810032893  L 7.33934671258226 6.53567715666118  L 1.37446508018093 6.53239874383223  C 1.37386031866777 6.53239874383223  1.37328740131579 6.53239874383223  1.37268263980263 6.53239874383223  C 1.04643191817433 6.53239874383223  0.781770968338776 6.79588199629934  0.780561463815786 7.12273747944079  C 0.778779023437494 7.44959294407894  1.04347179893091 7.71543159128289  1.37029543791118 7.71660927014803  L 7.33931488692434 7.71988768297698  L 7.33931488692434 13.6255349198191  C 7.33931488692434 13.9529633203125  7.604580598273 14.2176560958059  7.93140423725328 14.2176560958059  C 8.25822787623355 14.2176560958059  8.52352541324012 13.9529951459704  8.52352541324012 13.6255349198191  L 8.52352541324012 7.72402549958882  L 14.3906909703948 7.72217938939144  C 14.3918686492599 7.72217938939144  14.3924734107731 7.72217938939144  14.3930463466283 7.72217938939144  C 14.7192970682566 7.72217938939144  14.9839580180921 7.45869613692435  14.9851675226151 7.13184065378289  Z " fill-rule="nonzero" fill="#999999" stroke="none" transform="matrix(1 0 0 1 349 60 )" />
  </g>
</svg>