<?xml version="1.0" encoding="utf-8"?>
<svg version="1.1" xmlns:xlink="http://www.w3.org/1999/xlink" width="28px" height="28px" xmlns="http://www.w3.org/2000/svg">
  <g transform="matrix(1 0 0 1 -230 -357 )">
    <path d="M 27.1231353417969 13.9990928515625  C 27.1240424609375 10.5078282617187  25.7590545605469 7.2265656640625  23.2784404003906 4.75905456054687  C 20.7996908984375 2.29250099609375  17.5053252148437 0.934064638671875  14 0.934064638671875  C 10.4946747851563 0.934064638671875  7.1993515625 2.29250099609375  4.72060206054687 4.75905456054687  C 2.24094543945312 7.2265656640625  0.875 10.5087353808594  0.875 14  C 0.875 17.4921717382813  2.24094543945312 20.7734343359375  4.71969494140625 23.2409454394531  C 7.19844444335937 25.7074990039062  10.4937676367188 27.0659353613281  13.9990928808594 27.0659353613281  C 17.504418125 27.0659353613281  20.7997413183594 25.7074990039062  23.27753328125 23.2409454394531  C 25.7581474414062 20.7725272167969  27.1240928808594 17.4903070800781  27.1231353417969 13.9990928515625  Z M 21.50010078125 14.000050390625  C 21.50010078125 14.5175715429687  21.0809534960938 14.9375251953125  20.5625251953125 14.9375251953125  L 14.9375251953125 14.9375251953125  L 14.9375251953125 20.5625251953125  C 14.9375251953125 21.0809534960938  14.5175211523438 21.500050390625  14 21.500050390625  C 13.4824788476562 21.500050390625  13.0624748046875 21.0810038867188  13.0624748046875 20.5625251953125  L 13.0624748046875 14.9375251953125  L 7.4375251953125 14.9375251953125  C 6.92000404296875 14.9375251953125  6.5 14.5175211523438  6.5 14  C 6.5 13.4824788476562  6.92000404296875 13.0624748046875  7.4375251953125 13.0624748046875  L 13.0625251953125 13.0624748046875  L 13.0625251953125 7.4375251953125  C 13.0625251953125 6.92000404296875  13.4825292382813 6.5  14.000050390625 6.5  C 14.5175715429687 6.5  14.9375755859375 6.92000404296875  14.9375755859375 7.4375251953125  L 14.9375755859375 13.0625251953125  L 20.5625755859375 13.0625251953125  C 21.0810038867188 13.0625251953125  21.50010078125 13.4825292382813  21.50010078125 14.000050390625  Z " fill-rule="nonzero" fill="#2ab795" stroke="none" transform="matrix(1 0 0 1 230 357 )" />
  </g>
</svg>