<?xml version="1.0" encoding="utf-8"?>
<svg version="1.1" xmlns:xlink="http://www.w3.org/1999/xlink" width="26px" height="26px" xmlns="http://www.w3.org/2000/svg">
  <g transform="matrix(1 0 0 1 -30 -358 )">
    <path d="M 25.1860029003906 12.9995502929687  C 25.1860029003906 6.26365723632813  19.7289228027344 0.80393892578125  12.9995652929688 0.80393892578125  C 6.2693383984375 0.80393892578125  0.813937158203125 6.26365723632813  0.813937158203125 12.9995502929687  C 0.813937158203125 19.7354133789063  6.2693383984375 25.1960310742187  12.9995652929688 25.1960310742187  C 19.7289228027344 25.1960310742187  25.1860029003906 19.7353833789062  25.1860029003906 12.9995502929687  Z M 20.3706377148438 12.9995802929688  C 20.3706377148437 13.4658541503906  20.0267108886719 13.8428785351562  19.6035178222656 13.8428785351562  C 19.5869390722656 13.8428785351562  19.5729985058594 13.8437479492187  19.5582185253906 13.8428785351562  L 6.30939124023438 13.8333450097656  C 6.27629368164063 13.8376920507812  6.24934196289063 13.8333450097656  6.21447560546875 13.8333450097656  C 5.7912525390625 13.8333450097656  5.4473257421875 13.4762870898437  5.4473257421875 13.01040296875  C 5.4473257421875 12.5458979101563  5.7912825390625 12.1684238183594  6.21447560546875 12.1684238183594  L 19.5529720996094 12.1570615234375  C 19.5712297070313 12.156192109375  19.5851702734375 12.1570615234375  19.6035178222656 12.1570615234375  C 20.0266809179688 12.1570615234375  20.3706377148438 12.5349852929688  20.3706377148438 12.9995802929688  Z " fill-rule="nonzero" fill="#2ab795" stroke="none" transform="matrix(1 0 0 1 30 358 )" />
  </g>
</svg>