<?xml version="1.0" encoding="utf-8"?>
<svg version="1.1" xmlns:xlink="http://www.w3.org/1999/xlink" width="20px" height="20px" xmlns="http://www.w3.org/2000/svg">
  <g transform="matrix(1 0 0 1 -275 -5 )">
    <path d="M 19.1022544433594 17.8347332617188  L 11.3274929394531 10.0365878125  L 19.099381796875 2.30501611328125  C 19.4668727148437 1.93938985351563  19.4687374023437 1.34687877929688  19.1031111425781 0.979387832031251  C 18.73652734375 0.610939375000001  18.1449738085937 0.610032226562501  17.7774828613281 0.975658486328125  L 10.0037293457031 8.70813733398438  L 2.29750706054688 0.978430322265624  C 1.93283833984375 0.6128040625  1.3393697265625 0.610939404296874  0.971878779296875 0.976565664062499  C 0.60529498046875 1.34219192382812  0.604387861328125 1.93561014648437  0.97001412109375 2.303151484375  L 8.67437174804687 10.0309434472656  L 0.906262626953126 17.7578282617187  C 0.538771708984376 18.1234545214844  0.536907021484375 18.7159655957031  0.90253328125 19.0834565429687  C 1.08532120117188 19.2672020019531  1.326266640625 19.3600322851563  1.56721208007813 19.3600322851563  C 1.80629286132813 19.3600322851563  2.04532322265625 19.2691170800781  2.2281615625 19.0872362792969  L 9.99818576171875 11.3584867773437  L 17.7747615039062 19.1584968554688  C 17.9575494238281 19.3422423144531  18.1975877441406 19.4341150585938  18.4385331835937 19.4341150585938  C 18.6785210839844 19.4341150585938  18.9176018652344 19.3422423144531  19.1003897851562 19.1603615429688  C 19.4669735839844 18.7947352832031  19.467880703125 18.2022242089844  19.1022544433594 17.8347332617188  Z " fill-rule="nonzero" fill="#2ab795" stroke="none" transform="matrix(1 0 0 1 275 5 )" />
  </g>
</svg>