<?xml version="1.0" encoding="utf-8"?>
<svg version="1.1" xmlns:xlink="http://www.w3.org/1999/xlink" width="20px" height="20px" xmlns="http://www.w3.org/2000/svg">
  <g transform="matrix(1 0 0 1 -8 -32 )">
    <path d="M 19.5454545454545 10  C 19.5454545454545 15.2636253693182  15.2636253693182 19.5454545454545  10 19.5454545454545  C 4.73637463068182 19.5454545454545  0.454545454545455 15.2636253693182  0.454545454545455 10  C 0.454545454545455 4.73637463068182  4.73637463068182 0.454545454545453  10 0.454545454545453  C 15.2636253693182 0.454545454545453  19.5454545454545 4.73637463068182  19.5454545454545 10  Z M 18.1818181818182 10  C 18.1818181818182 5.48839965198864  14.5116003480114 1.81818181818181  10 1.81818181818181  C 5.48839965198864 1.81818181818181  1.81818181818182 5.48839965198864  1.81818181818182 10  C 1.81818181818182 14.5116003480114  5.48839965198864 18.1818181818182  10 18.1818181818182  C 14.5116003480114 18.1818181818182  18.1818181818182 14.5116003480114  18.1818181818182 10  Z " fill-rule="nonzero" fill="#999999" stroke="none" transform="matrix(1 0 0 1 8 32 )" />
  </g>
</svg>