<?xml version="1.0" encoding="utf-8"?>
<svg version="1.1" xmlns:xlink="http://www.w3.org/1999/xlink" width="71px" height="71px" xmlns="http://www.w3.org/2000/svg">
  <g transform="matrix(1 0 0 1 -152 -27 )">
    <path d="M 36.0339937734375 57.00407215625  C 37.9945640390625 57.00407215625  39.5773386328125 55.416605328125  39.5773386328125 53.460371796875  L 39.5773386328125 46.3830664765625  L 46.7117327109375 46.3830664765625  C 48.6866640234375 46.3830664765625  50.2741308515625 44.7955996484375  50.2741308515625 42.8299816484375  C 50.2741308515625 40.8741036171875  48.6866640234375 39.2772523203125  46.7117327109375 39.2772523203125  L 39.5773386328125 39.277252390625  L 39.5773386328125 35.7241675625  L 46.7117327109375 35.7241675625  C 48.6866640234375 35.7241675625  50.2741308515625 34.14139296875  50.2741308515625 32.17577496875  C 50.2741308515625 30.215204703125  48.6866640234375 28.627737875  46.7117327109375 28.627737875  L 41.3490110625 28.627737875  L 46.2484816171875 23.718527421875  C 47.6330450625 22.3343194765625  47.6330450625 20.0853903359375  46.2484816171875 18.6915135078125  C 44.864273671875 17.3073055625  42.610652296875 17.3073055625  41.2260888515625 18.6965612421875  L 36.5253271875 23.402015140625  L 31.819446703125 18.6965612421875  C 30.4352387578125 17.3073055625  28.1863096171875 17.3073055625  26.7970539375 18.6915135078125  C 25.4081537578125 20.0853903359375  25.4081537578125 22.3343194765625  26.7970539375 23.718527421875  L 31.7012167265625 28.627737875  L 25.4031771796875 28.627737875  C 23.4472280625 28.627737875  21.8504478515625 30.215204703125  21.8504478515625 32.17577496875  C 21.8504478515625 34.1413928984375  23.4472280625 35.7241675625  25.4031771796875 35.7241675625  L 32.4761456953125 35.7241675625  L 32.4761456953125 39.277252390625  L 25.4031771796875 39.277252390625  C 23.4472280625 39.277252390625  21.8504478515625 40.8741747734375  21.8504478515625 42.82998171875  C 21.8504478515625 44.7955996484375  23.4472280625 46.383066546875  25.4031771796875 46.383066546875  L 32.4761456953125 46.383066546875  L 32.4761456953125 53.4603718671875  C 32.480909015625 55.4166052578125  34.073068078125 57.00407215625  36.0339937734375 57.00407215625  Z M 67.2073239375 19.7216713671875  C 67.0797094921875 19.3720291015625  66.9189650625 19.0508245859375  66.7112982890625 18.7624657109375  C 66.6828605390625 18.715330109375  66.654351703125 18.6633601015625  66.6356538515625 18.616082328125  L 66.5978316328125 18.6302301171875  C 65.9788837734375 17.86497003125  65.029489171875 17.378257765625  63.9757990546875 17.378257765625  C 62.0858255625 17.378257765625  60.550328671875 18.899464625  60.550328671875 20.784674796875  C 60.550328671875 21.6541593125  60.8808465703125 22.4479283046875  61.419671015625 23.0477517265625  C 63.3096445078125 26.855994359375  64.372576921875 31.141280375  64.372576921875 35.676960875  C 64.372576921875 51.3723292578125  51.6489543984375 64.0913306328125  35.962970484375 64.0913306328125  C 20.27705765625 64.0913306328125  7.55841178125 51.3770214921875  7.55841178125 35.676960875  C 7.55841178125 19.991048046875  20.27705765625 7.272046671875  35.962970484375 7.272046671875  C 42.0955733671875 7.272046671875  47.7700439765625 9.213848  52.40959340625 12.5164672578125  C 53.047594546875 13.3671828359375  54.072704671875 13.9150363203125  55.216187015625 13.9150363203125  C 57.153296109375 13.9150363203125  58.7216385703125 12.3415750390625  58.7216385703125 10.414277  C 58.7216385703125 9.42663359375  58.3060206796875 8.543072375  57.6587062265625 7.905426734375  L 57.6587062265625 7.900521171875  C 57.640008375 7.886160125  57.6114995390625 7.8673911875  57.602043984375 7.8533855703125  C 57.4556606015625 7.7159600703125  57.2996794921875 7.5981566796875  57.120166125 7.4846189375  C 51.176389921875 2.8969684296875  43.711478015625 0.161398109375  35.6132571328125 0.161398109375  C 16.13346271875 0.161398109375  0.348302109375002 15.951250953125  0.348302109375002 35.4310453671875  C 0.348302109375002 54.9062186328125  16.1380838671875 70.696000390625  35.6132571328125 70.696000390625  C 55.0884303984375 70.696000390625  70.87821215625 54.9062186328125  70.87821215625 35.4310453671875  C 70.8876677109375 29.789775828125  69.5600508515625 24.4509418671875  67.2073239375 19.7216713671875  Z " fill-rule="nonzero" fill="#ffffff" stroke="none" transform="matrix(1 0 0 1 152 27 )" />
  </g>
</svg>