<?xml version="1.0" encoding="utf-8"?>
<svg version="1.1" xmlns:xlink="http://www.w3.org/1999/xlink" width="96px" height="96px" xmlns="http://www.w3.org/2000/svg">
  <g transform="matrix(1 0 0 1 -172 -252 )">
    <path d="M 96 33.19999996875  C 96 43.5999999375  87.6 51.9999999375  77.4 52.00000003125  C 71.4 52.00000003125  66 48.40000003125  62.80000003125 43.60000003125  C 59.4 48.40000003125  54 52.00000003125  48 52.00000003125  C 42 52.00000003125  36.6 48.40000003125  33.40000003125 43.60000003125  C 30 48.40000003125  24.79999996875 52.00000003125  18.6 52.00000003125  C 8.4 52.00000003125  0 43.60000003125  0 33.40000003125  L 0 32.59999996875  L 14.20000003125 0  L 81.79999996875 0  L 96 32.4  L 96 33.19999996875  Z M 47.80000003125 43.99999996875  C 54 43.99999996875  58.60000003125 36.9999999375  58.60000003125 31.39999996875  L 66.6 31.39999996875  C 66.6 37.2  71.4 43.99999996875  77.20000003125 43.99999996875  C 82.8 43.99999996875  87.40000003125 39.6  87.79999996875 34.2  L 76.60000003125 8  L 19.39999996875 8  L 7.99999996875 34.2  C 8.4 39.6  12.9999999375 43.99999996875  18.6 43.99999996875  C 24.6 43.99999996875  29.20000003125 36.9999999375  29.20000003125 31.39999996875  L 37.2 31.39999996875  C 37.2 37.2  42 43.99999996875  47.80000003125 43.99999996875  Z M 90 82.39999996875  C 90 89.7999999375  83.80000003125 95.7999999375  76.00000003125 95  L 19.99999996875 95  C 12.19999996875 95.80000003125  6 89.80000003125  6 82.39999996875  L 6 55.8  L 14 55.8  L 14 82.39999996875  C 13.99999996875 85.39999996875  16.5999999375 87.79999996875  19.99999996875 87  L 76.00000003125 87  C 79.2 87.79999996875  82.00000003125 85.39999996875  82 82.39999996875  L 82 55.8  L 90 55.8  L 90 82.39999996875  Z " fill-rule="nonzero" fill="#2ab795" stroke="none" transform="matrix(1 0 0 1 172 252 )" />
  </g>
</svg>