<?xml version="1.0" encoding="utf-8"?>
<svg version="1.1" xmlns:xlink="http://www.w3.org/1999/xlink" width="71px" height="53px" xmlns="http://www.w3.org/2000/svg">
  <g transform="matrix(1 0 0 1 -153 -79 )">
    <path d="M 63.8942388139205 0.641136794845778  L 63.8942388139205 1  L 6.89264536354759 1  C 3.25637806285513 0.641136794845778  0.309909579190332 3.1314908304586  1 6.20248887733361  L 1 46.9591487545657  C 0.309909579190332 50.0300883218344  3.25644661088424 52.5205008370536  6.89264536354759 52  L 63.8943073619496 52  C 67.5307117587003 52.5205008370536  70.4770431463068 50.0301468014407  70 46.9591487545657  L 70 6.20248887733361  C 70.4769745982777 3.12763117644073  67.5305061146129 0.641136794845778  63.8942388139205 0.641136794845778  Z M 6.88551636851918 4.34751576450893  L 6.88565346457742 5  L 63.8965008988814 5  C 65.1093211780895 4.34751576450893  66.0892152543502 5.17371564275567  66 6.19862922331578  L 66 28.0226335100447  C 62.5556329012784 25.5715777698864  56.4321003639915 22.266719777293  49.0818322975852 22.266719777293  C 42.307230579723 22.266719777293  35.6240033846769 26.705555816254  29.1645855047053 30.9961460531656  C 24.2149379660866 34.2815303368506  19.0963195356889 37.6837568739854  15.5057052223899 37.6837568739854  C 10.4670823419744 37.6837568739854  6.15691936700995 34.5542792207792  5 33.3579034344562  L 5 6.19868770292206  C 4.69280201305043 5.17757529677354  5.67502672230111 4.34751576450893  6.88551636851918 4.34751576450893  Z M 63.8967065429688 48.8103206929789  L 63.8965694469105 48  L 6.88572201260652 48  C 5.67516381835935 48.8103206929789  4.69300765713777 47.9802026811079  4.69300765713777 46.9591487545657  L 4.69300765713777 38.163114207082  C 7.32203021795101 39.7335840351055  11.1249377774325 41.3900188844359  15.5059108664773 41.3900188844359  C 20.6131503240412 41.3900188844359  26.0835572398792 37.7539324015828  31.8760027965199 33.911295949168  C 37.7507059881037 30.0102383700284  43.8241299161044 25.9768999213677  49.0820379416726 25.9768999213677  C 58.5039645441229 25.9768999213677  65.9796755038175 32.9877275263799  66.0574089688388 33.0577860947646  L 66 33.0304761186079  L 66 46.9590902749594  C 66.0916829833985 47.9840038555195  65.1094582741478 48.8141803469967  63.8967065429688 48.8141803469967  L 63.8967065429688 48.8103206929789  Z M 22.214158092152 26.5964328708401  C 27.0655077570135 26.5964328708401  30.99879366788 23.276077782569  30.99879366788 19.1801661551339  C 30.99879366788 15.0802779144684  27.0656448530717 11.7559462129667  22.214158092152 11.7559462129667  C 17.3650705122514 11.7559462129667  13.4318531494141 15.0802779144684  13.4318531494141 19.1801661551339  C 13.4318531494141 23.2760193029626  17.3650705122514 26.5964328708401  22.214158092152 26.5964328708401  Z M 22.2462385697798 15.4622082234172  C 24.6605001553622 15.4622082234172  26.6202197598544 17.1146079799107  26.6202197598544 19.1567743126015  C 26.6202197598544 21.1989406452922  24.6605001553622 22.8513404017857  22.2462385697798 22.8513404017857  C 19.8297148992365 22.8513404017857  17.8722573797052 21.1989406452922  17.8722573797052 19.1567743126015  C 17.8722573797052 17.1185845931413  19.8319769841974 15.4622082234172  22.2462385697798 15.4622082234172  Z " fill-rule="nonzero" fill="#ffffff" stroke="none" transform="matrix(1 0 0 1 153 79 )" />
  </g>
</svg>