<?xml version="1.0" encoding="utf-8"?>
<svg version="1.1" xmlns:xlink="http://www.w3.org/1999/xlink" width="22px" height="22px" xmlns="http://www.w3.org/2000/svg">
  <g transform="matrix(1 0 0 1 -304 -334 )">
    <path d="M 21.4927760703125 11.9016686796875  C 21.49280009375 14.2884584140625  20.2068112578125 16.407565671875  18.2138008203125 17.772887984375  L 18.2138008203125 21.4923581796875  L 14.537710484375 19.229180609375  C 14.0279392109375 19.312428171875  13.504712515625 19.361091171875  12.9673827734375 19.361091171875  C 10.4421753359375 19.361091171875  8.1801762265625 18.3947383671875  6.6191066328125 16.8686530390625  C 6.876246828125 16.8833790546875  7.1317800546875 16.9019664453125  7.393069625 16.9019664453125  C 7.75938828125 16.9019664453125  8.1205981953125 16.884026609375  8.477946546875 16.8552221328125  C 9.7104494375 17.7037428359375  11.268952671875 18.213517203125  12.967358796875 18.213517203125  C 13.5527059296875 18.213517203125  14.118865296875 18.1469143671875  14.66449371875 18.032919640625  L 15.94151225 18.884678140625  C 15.9402170703125 18.88530171875  15.9389698671875 18.8859492734375  15.9376746875 18.886596828125  L 16.902196296875 19.52504403125  L 16.902196296875 18.5151367578125  L 16.902196296875 17.2016672890625  C 18.8746998125 16.0899250390625  20.1811955703125 14.1700027578125  20.1811955703125 11.9836690859375  C 20.1811955703125 10.601030515625  19.653483734375 9.327925671875  18.7709658828125 8.2942984765625  C 18.8292487578125 7.890844015625  18.869591046875 7.4825928125  18.869591046875 7.065347703125  C 18.869591046875 6.8745091015625  18.8491081015625 6.68846721875  18.8362762578125 6.500506671875  C 20.469371984375 7.8594493203125  21.4927760703125 9.77392728125  21.4927760703125 11.9016686796875  Z M 17.557986546875 7.9670403359375  C 17.5579865703125 12.086751171875  13.741057953125 15.4264628515625  9.0325932265625 15.4264628515625  C 8.495287484375 15.4264628515625  7.971725 15.3777998515625  7.462265515625 15.2945283125  L 3.7861991796875 17.5577058828125  L 3.7861991796875 13.83890721875  C 1.7931887421875 12.4729373515625  0.50719990625 10.35383009375  0.50719990625 7.9670403359375  C 0.50719990625 3.8473295  4.3241765 0.507617820312501  9.0325932265625 0.507617820312501  C 13.7410579296875 0.507617820312501  17.557986546875 3.8473295  17.557986546875 7.9670403359375  Z M 16.246406046875 8.0489927890625  C 16.246406046875 4.608765265625  13.0166953671875 1.8191686015625  9.0325932265625 1.8191686015625  C 5.048491109375 1.8191686015625  1.8187804296875 4.6087892421875  1.8187804296875 8.049016765625  C 1.8187804296875 10.2350386484375  3.1252761875 12.154649140625  5.097779703125 13.26701496875  L 5.097779703125 14.5804844375  L 5.097779703125 15.5903917109375  L 6.0622533359375 14.9519206015625  C 6.0606463671875 14.9512970234375  6.0593751640625 14.95062546875  6.058103984375 14.9500019140625  L 7.3357701171875 14.098267390625  C 7.88108675 14.21226209375  8.4472221171875 14.278840953125  9.03259325 14.278840953125  C 13.0166953671875 14.278840953125  16.246406046875 11.4898918671875  16.246406046875 8.0489927890625  Z M 14.2790112734375 8.049016765625  C 14.2789872734375 8.5923923515625  13.8383879375 9.032685828125  13.2953018984375 9.032685828125  C 12.7522158359375 9.032685828125  12.3115925234375 8.592416328125  12.3115925234375 8.049016765625  C 12.3115925234375 7.50595296875  12.7522158359375 7.065347703125  13.2953018984375 7.065347703125  C 13.8384119375 7.065347703125  14.2790112734375 7.50595296875  14.2790112734375 8.049016765625  Z M 10.34419775 8.049016765625  C 10.34419775 8.5923923515625  9.903910203125 9.032685828125  9.360488375 9.032685828125  C 8.8170905234375 9.032685828125  8.376779 8.592416328125  8.376779 8.049016765625  C 8.376779 7.50595296875  8.817066546875 7.065347703125  9.360488375 7.065347703125  C 9.903910203125 7.065347703125  10.34419775 7.50595296875  10.34419775 8.049016765625  Z M 6.409408203125 8.049016765625  C 6.4093842265625 8.5923923515625  5.9690966796875 9.032685828125  5.425698828125 9.032685828125  C 4.8823009765625 9.032685828125  4.4420134296875 8.592416328125  4.4420134296875 8.049016765625  C 4.4420134296875 7.50595296875  4.8823009765625 7.065347703125  5.425698828125 7.065347703125  C 5.9690966796875 7.065347703125  6.409408203125 7.50595296875  6.409408203125 8.049016765625  Z " fill-rule="nonzero" fill="#999999" stroke="none" transform="matrix(1 0 0 1 304 334 )" />
  </g>
</svg>