<?xml version="1.0" encoding="utf-8"?>
<svg version="1.1" xmlns:xlink="http://www.w3.org/1999/xlink" width="24px" height="16px" xmlns="http://www.w3.org/2000/svg">
  <g transform="matrix(1 0 0 1 -20 -188 )">
    <path d="M 8.5918828125 14.408796875  C 8.9645625 14.00253125  9.259359375 13.5189453125  9.4780546875 12.958765625  C 9.6969140625 12.3973671875  9.8055234375 11.84178125  9.8055234375 11.2896875  C 9.8055234375 10.1200390625  9.48196875 9.1211328125  8.8353984375 8.2922890625  C 8.1888984375 7.46365625  7.3397578125 6.97690625  6.2883046875 6.8308203125  L 5.9002734375 6.8070546875  L 5.608921875 6.757390625  C 5.1243046875 6.692609375  4.8811640625 6.50525  4.8811640625 6.1968828125  C 4.8811640625 5.8718984375  5.197078125 5.3599296875  5.82796875 4.661984375  C 6.49153125 3.947140625  7.56740625 3.191421875  9.055640625 2.396046875  C 9.6712734375 2.0715078125  9.978234375 1.6646796875  9.978234375 1.177578125  C 9.978234375 0.868718749999997  9.873796875 0.612757812499996  9.6630703125 0.409460937499997  C 9.4524609375 0.206679687499997  9.1850859375 0.105171874999996  8.861203125 0.105171874999996  C 8.0526328125 0.105171874999996  6.93571875 0.576804687499997  5.51090625 1.518546875  C 3.8277421875 2.623625  2.4886171875 3.9670625  1.4930625 5.5512734375  C 0.498328125 7.1355546875  9.375E-05 8.6982734375  9.375E-05 10.242078125  C 9.375E-05 10.97290625  0.137625 11.6994453125  0.4131328125 12.4230546875  C 0.68859375 13.145234375  1.060265625 13.7581484375  1.5295078125 14.2626640625  C 2.5161796875 15.3506796875  3.6974765625 15.8947578125  5.072859375 15.8947578125  C 6.5131640625 15.8947578125  7.686234375 15.3993359375  8.5918828125 14.408796875  Z M 22.6114453125 14.4088671875  C 22.984125 14.00253125  23.2803984375 13.522765625  23.499 12.9711640625  C 23.7177890625 12.418203125  23.82721875 11.8576953125  23.82721875 11.2897109375  C 23.82721875 10.1200625  23.4984609375 9.1251640625  22.8410859375 8.304453125  C 22.1836171875 7.483953125  21.32784375 6.9933828125  20.272171875 6.8308671875  L 19.90640625 6.8071015625  L 19.5896953125 6.7574375  C 19.1032265625 6.69265625  18.8596171875 6.505296875  18.8596171875 6.1969296875  C 18.8596171875 5.8719453125  19.1848828125 5.3599765625  19.8341953125 4.6620546875  C 20.516390625 3.9142109375  21.5965078125 3.159359375  23.0737734375 2.39609375  C 23.6912578125 2.0715546875  23.99990625 1.6647265625  23.99990625 1.177625  C 23.99990625 0.868765625  23.8945078125 0.612781249999999  23.683921875 0.409507812499999  C 23.4733828125 0.20675  23.2054453125 0.10521875  22.8808359375 0.10521875  C 22.0701328125 0.10521875  20.9511796875 0.576851562499999  19.52428125 1.51859375  C 17.83828125 2.6237421875  16.4926640625 3.967109375  15.4870078125 5.55134375  C 14.4813515625 7.135671875  13.9785234375 8.69834375  13.9785234375 10.2421484375  C 13.9785234375 10.9729765625  14.1168046875 11.699515625  14.392265625 12.423125  C 14.6674453125 13.1453046875  15.040734375 13.75821875  15.510609375 14.262734375  C 16.4998359375 15.35075  17.691328125 15.894828125  19.08496875 15.894828125  C 20.511609375 15.894828125  21.687609375 15.39940625  22.6114453125 14.4088671875  Z " fill-rule="nonzero" fill="#999999" stroke="none" transform="matrix(1 0 0 1 20 188 )" />
  </g>
</svg>