<?xml version="1.0" encoding="utf-8"?>
<svg version="1.1" xmlns:xlink="http://www.w3.org/1999/xlink" width="5px" height="11px" xmlns="http://www.w3.org/2000/svg">
  <g transform="matrix(1 0 0 1 -89 -185 )">
    <path d="M 4.776 9.968  C 4.8 10.208  4.608 10.4  4.392 10.4  L 2.28 10.4  C 1.344 10.4  0.6 9.656  0.6 8.72  L 0.6 2  C 0.6 1.064  1.344 0.32  2.28 0.32  L 4.368 0.32  C 4.608 0.32  4.776 0.512  4.776 0.728  L 4.776 9.968  Z M 3.96 1.16  L 2.28 1.16  C 1.824 1.16  1.44 1.544  1.44 2  L 1.44 8.72  C 1.44 9.176  1.824 9.56  2.28 9.56  L 3.96 9.56  L 3.96 1.16  Z " fill-rule="nonzero" fill="#999999" stroke="none" transform="matrix(1 0 0 1 89 185 )" />
  </g>
</svg>