<?xml version="1.0" encoding="utf-8"?>
<svg version="1.1" xmlns:xlink="http://www.w3.org/1999/xlink" width="15px" height="18px" xmlns="http://www.w3.org/2000/svg">
  <g transform="matrix(1 0 0 1 -92 -178 )">
    <path d="M 10.296 17.424  C 10.248 17.4  10.224 17.4  10.2 17.4  L 3.912 17.4  C 3.672 17.4  3.504 17.208  3.504 16.992  C 3.504 16.752  3.696 16.584  3.912 16.584  L 10.2 16.584  C 10.656 16.584  11.04 16.368  11.28 15.984  C 11.448 15.576  13.152 11.256  13.488 9.984  C 13.776 8.856  13.128 7.704  12 7.416  C 11.832 7.368  11.664 7.344  11.448 7.344  L 8.928 7.344  C 8.784 7.344  8.664 7.272  8.592 7.152  C 8.52 7.032  8.496 6.888  8.544 6.768  C 8.784 6.12  8.928 4.608  8.928 2.712  C 8.928 2.016  8.352 1.464  7.68 1.464  C 6.984 1.464  6.432 2.04  6.432 2.712  L 6.432 3.12  C 6.432 5.904  4.176 8.16  1.392 8.16  C 1.152 8.16  0.983999999999998 7.968  0.983999999999998 7.752  C 0.983999999999998 7.512  1.176 7.344  1.392 7.344  C 3.696 7.344  5.592 5.472  5.592 3.144  L 5.592 2.736  C 5.592 1.584  6.528 0.647999999999996  7.68 0.647999999999996  C 8.832 0.647999999999996  9.768 1.584  9.768 2.736  C 9.768 3.744  9.72 5.4  9.48 6.528  L 11.448 6.528  C 11.736 6.528  11.976 6.552  12.216 6.624  C 13.776 7.032  14.712 8.664  14.304 10.224  C 13.944 11.568  12.12 16.152  12.048 16.344  C 12.048 16.368  12.024 16.392  12.024 16.392  C 11.664 17.016  11.016 17.4  10.296 17.424  Z " fill-rule="nonzero" fill="#999999" stroke="none" transform="matrix(1 0 0 1 92 178 )" />
  </g>
</svg>