<?xml version="1.0" encoding="utf-8"?>
<svg version="1.1" xmlns:xlink="http://www.w3.org/1999/xlink" width="34px" height="34px" xmlns="http://www.w3.org/2000/svg">
  <g transform="matrix(1 0 0 1 -204 -194 )">
    <path d="M 22.792408765625 0.374520078125  L 22.792408765625 3.095187453125  L 31.274545859375 11.577324546875  L 27.9137045 14.778146375  L 22.792408765625 9.6568026875  L 22.792408765625 12.217450578125  L 23.272515265625 12.697557078125  L 22.792408765625 13.177663578125  L 22.792408765625 15.898330953125  L 24.5528631875 14.13787653125  L 26.633404578125 16.218417921875  L 22.79245671875 20.05936578125  L 22.79245671875 22.620013671875  L 33.195019765625 12.217450578125  C 33.675126265625 11.737344078125  33.675126265625 11.257189625  33.195019765625 10.777083125  L 22.95242825 0.534539562499999  C 22.792408765625 0.374520078125  22.792408765625 0.374520078125  22.792408765625 0.374520078125  Z M 22.15223478125 2.455013515625  L 22.792408765625 3.0951875  L 22.792408765625 0.374520125000001  C 22.472321796875 0.0544331562500009  21.8321478125 0.0544331562500009  21.51206084375 0.534539609375001  L 19.271499921875 2.77510053125  L 19.271499921875 5.335748421875  L 22.15223478125 2.455013515625  Z M 22.792408765625 9.6568026875  L 19.271499921875 6.13589384375  L 19.271499921875 8.85656121875  L 19.591586890625 9.1766481875  L 19.271499921875 9.49673515625  L 19.271499921875 12.21740253125  L 21.03195434375 10.456948109375  L 22.792408765625 12.21740253125  L 22.792408765625 9.6568026875  Z M 22.792408765625 13.17771153125  L 22.792408765625 15.89837890625  L 19.271499921875 19.41928775  L 19.271499921875 16.698620375  L 22.792408765625 13.17771153125  Z M 19.271499921875 23.58037053125  L 22.792408765625 20.0594616875  L 22.792408765625 22.620109578125  L 19.271499921875 26.141018421875  L 19.271499921875 23.58037053125  Z M 19.271499921875 6.13594184375  L 18.951412953125 5.815854875  L 19.271499921875 5.335748375  L 19.271499921875 2.775100484375  L 8.868888875 13.17771153125  L 8.868888875 15.89837890625  L 17.511093453125 7.096154796875  L 19.271547875 8.85660921875  L 19.271547875 6.13594184375  Z M 19.271499921875 9.496783203125  L 19.271499921875 12.217450578125  L 8.868888875 22.620109578125  L 8.868888875 19.899442203125  L 19.271499921875 9.496783203125  Z M 19.271499921875 19.419287703125  L 19.271499921875 16.698620328125  L 9.348995375 26.621124875  L 8.868888875 26.141018375  L 8.868888875 28.86168575  L 10.629343296875 30.622140171875  L 8.868888875 30.78215965625  L 8.868888875 32.7026335625  L 12.709836734375 32.38254659375  C 13.029923703125 32.38254659375  13.189943234375 32.222527109375  13.35001071875 32.062459625  C 13.35001071875 32.062459625  13.35001071875 32.062459625  13.510030203125 32.062459625  L 19.271499921875 26.140970421875  L 19.271499921875 23.58032253125  L 12.709836734375 29.981966234375  L 10.789362828125 27.90142484375  L 19.271499921875 19.419287703125  Z M 8.868888875 13.17771153125  L 8.868888875 15.89837890625  L 6.788347484375 17.8188528125  L 6.788347484375 15.0981854375  L 8.868888875 13.17771153125  Z M 8.868888875 19.899394203125  L 8.868888875 22.620061578125  L 7.108434453125 24.380516  L 8.868888875 26.140970421875  L 8.868888875 28.861637796875  L 6.788347484375 26.941163890625  L 6.788347484375 21.979887640625  L 8.868888875 19.899394203125  Z M 8.868888875 30.782159703125  L 8.868888875 32.702633609375  L 7.108434453125 32.702633609375  L 6.788347484375 32.86265309375  L 6.788347484375 30.9421791875  L 6.94836696875 30.9421791875  L 8.868888875 30.782159703125  Z M 6.788347484375 15.0981854375  L 6.788347484375 17.8188528125  L 3.74759309375 21.019674640625  L 5.828134484375 22.940148546875  L 6.7883954375 21.97988759375  L 6.7883954375 26.94116384375  L 3.10741915625 23.10021603125  L 2.7873321875 26.781144359375  L 2.46724521875 31.26226615625  L 6.78834753125 30.9421791875  L 6.78834753125 32.86265309375  L 1.507032265625 33.34275959375  C 1.026925765625 33.34275959375  0.546771312500002 32.86265309375  0.386751828125002 32.382498640625  L 0.386751828125002 32.22247915625  L 0.866858328125002 26.621076921875  L 1.0268778125 26.621076921875  L 1.34696478125 21.0196746875  C 1.34696478125 20.69958771875  1.506984265625 20.5395681875  1.66705175 20.379500703125  L 1.66705175 20.21948121875  L 6.788347484375 15.0981854375  Z " fill-rule="nonzero" fill="#2ab795" stroke="none" transform="matrix(1 0 0 1 204 194 )" />
  </g>
</svg>