<?xml version="1.0" encoding="utf-8"?>
<svg version="1.1" xmlns:xlink="http://www.w3.org/1999/xlink" width="22px" height="16px" xmlns="http://www.w3.org/2000/svg">
  <g transform="matrix(1 0 0 1 -29 -30 )">
    <path d="M 7.88 15.2  L 7.8 15.2  C 7.36 15.2  6.94 15.04  6.64 14.72  L 0.439999999999998 8.52  C 0.119999999999997 8.2  0.119999999999997 7.7  0.439999999999998 7.38  C 0.759999999999998 7.06  1.26 7.06  1.58 7.38  L 7.78 13.58  C 7.8 13.58  7.8 13.6  7.82 13.6  C 7.84 13.6  7.88 13.6  7.92 13.54  L 20.44 1.02  C 20.76 0.699999999999998  21.26 0.699999999999998  21.58 1.02  C 21.9 1.34  21.9 1.84  21.58 2.16  L 9.06 14.68  C 8.74 15  8.32 15.18  7.88 15.2  Z " fill-rule="nonzero" fill="#ffffff" stroke="none" transform="matrix(1 0 0 1 29 30 )" />
  </g>
</svg>