<?xml version="1.0" encoding="utf-8"?>
<svg version="1.1" xmlns:xlink="http://www.w3.org/1999/xlink" width="34px" height="34px" xmlns="http://www.w3.org/2000/svg">
  <g transform="matrix(1 0 0 1 -23 -21 )">
    <path d="M 33.8 32.2  C 33.8 33.08  33.08 33.8  32.2 33.8  L 1.8 33.8  C 0.92 33.8  0.199999999999999 33.08  0.199999999999999 32.2  L 0.199999999999999 1.8  C 0.199999999999999 0.92  0.919999999999999 0.199999999999999  1.8 0.199999999999999  L 24.2 0.199999999999999  C 24.64 0.199999999999999  25 0.559999999999999  25 1  C 25 1.44  24.64 1.8  24.2 2  L 2 2  L 2 32  L 32 32  L 32 17.3  C 32.2 16.86  32.56 16.5  33 16.5  C 33.44 16.5  33.8 16.86  33.8 17.3  L 33.8 32.2  Z " fill-rule="nonzero" fill="#ffffff" stroke="none" transform="matrix(1 0 0 1 23 21 )" />
  </g>
</svg>