<?xml version="1.0" encoding="utf-8"?>
<svg version="1.1" xmlns:xlink="http://www.w3.org/1999/xlink" width="24px" height="20px" xmlns="http://www.w3.org/2000/svg">
  <defs>
    <mask fill="white" id="clip6">
      <path d="M 23.2541576015625 6.60251969531251  C 23.2501259765625 3.29259196875  20.557030078125 0.599496046875004  17.2511338828125 0.599496046875004  C 15.7070384765625 0.599496046875004  14.239543078125 1.18407525000001  13.11876365625 2.2524441328125  C 13.0099109765625 2.35323365625  12.4454896875 2.9257181015625  12.01007896875 3.369192  L 10.90139428125 2.264538890625  C 9.78061483593751 1.1921384296875  8.30908788281249 0.599496046875004  6.75289771874998 0.599496046875004  C 3.44296994531248 0.599496046875004  0.753905625000016 3.29259196875  0.753905625000016 6.59848814062499  C 0.753905625000016 8.5296153046875  1.71745340625 9.98098436718752  2.5479590390625 10.8759952734375  L 9.97413072656252 18.3787669921875  C 10.5627415078125 18.9673777734375  11.2158575859375 19.350377953125  12.0060474140625 19.350377953125  C 12.7962372421875 19.350377953125  13.4493533203125 18.9673777734375  14.0379641015625 18.3787669921875  L 21.4601041875 10.8800268515625  L 21.5125147265625 10.8235847109375  C 22.40752565625 9.70683684375001  23.2541576015625 8.6505626953125  23.2541576015625 6.60251969531251  Z " fill-rule="evenodd" />
    </mask>
  </defs>
  <g transform="matrix(1 0 0 1 -365 -117 )">
    <path d="M 23.2541576015625 6.60251969531251  C 23.2501259765625 3.29259196875  20.557030078125 0.599496046875004  17.2511338828125 0.599496046875004  C 15.7070384765625 0.599496046875004  14.239543078125 1.18407525000001  13.11876365625 2.2524441328125  C 13.0099109765625 2.35323365625  12.4454896875 2.9257181015625  12.01007896875 3.369192  L 10.90139428125 2.264538890625  C 9.78061483593751 1.1921384296875  8.30908788281249 0.599496046875004  6.75289771874998 0.599496046875004  C 3.44296994531248 0.599496046875004  0.753905625000016 3.29259196875  0.753905625000016 6.59848814062499  C 0.753905625000016 8.5296153046875  1.71745340625 9.98098436718752  2.5479590390625 10.8759952734375  L 9.97413072656252 18.3787669921875  C 10.5627415078125 18.9673777734375  11.2158575859375 19.350377953125  12.0060474140625 19.350377953125  C 12.7962372421875 19.350377953125  13.4493533203125 18.9673777734375  14.0379641015625 18.3787669921875  L 21.4601041875 10.8800268515625  L 21.5125147265625 10.8235847109375  C 22.40752565625 9.70683684375001  23.2541576015625 8.6505626953125  23.2541576015625 6.60251969531251  Z " fill-rule="nonzero" fill="#ffffff" stroke="none" transform="matrix(1 0 0 1 365 117 )" />
    <path d="M 23.2541576015625 6.60251969531251  C 23.2501259765625 3.29259196875  20.557030078125 0.599496046875004  17.2511338828125 0.599496046875004  C 15.7070384765625 0.599496046875004  14.239543078125 1.18407525000001  13.11876365625 2.2524441328125  C 13.0099109765625 2.35323365625  12.4454896875 2.9257181015625  12.01007896875 3.369192  L 10.90139428125 2.264538890625  C 9.78061483593751 1.1921384296875  8.30908788281249 0.599496046875004  6.75289771874998 0.599496046875004  C 3.44296994531248 0.599496046875004  0.753905625000016 3.29259196875  0.753905625000016 6.59848814062499  C 0.753905625000016 8.5296153046875  1.71745340625 9.98098436718752  2.5479590390625 10.8759952734375  L 9.97413072656252 18.3787669921875  C 10.5627415078125 18.9673777734375  11.2158575859375 19.350377953125  12.0060474140625 19.350377953125  C 12.7962372421875 19.350377953125  13.4493533203125 18.9673777734375  14.0379641015625 18.3787669921875  L 21.4601041875 10.8800268515625  L 21.5125147265625 10.8235847109375  C 22.40752565625 9.70683684375001  23.2541576015625 8.6505626953125  23.2541576015625 6.60251969531251  Z " stroke-width="4" stroke="#2ab795" fill="none" transform="matrix(1 0 0 1 365 117 )" mask="url(#clip6)" />
  </g>
</svg>