<?xml version="1.0" encoding="utf-8"?>
<svg version="1.1" xmlns:xlink="http://www.w3.org/1999/xlink" width="46px" height="46px" xmlns="http://www.w3.org/2000/svg">
  <g transform="matrix(1 0 0 1 -27 -21 )">
    <path d="M 22.9999996647239 0.5  C 10.573592793531 0.5  0.499999664723873 10.5735931288071  0.499999664723873 23  C 0.499999664723873 35.4264068711929  10.573592793531 45.5  22.9999996647239 45.5  C 35.4264065359167 45.5  45.4999996647239 35.4264068711929  45.4999996647239 23  C 45.4999996647239 10.5735931288072  35.4264065359167 0.5  22.9999996647239 0.5  Z M 22.8560001010299 8.384  C 26.6004907048827 8.384  29.6360001010299 11.4195093961472  29.6360001010299 15.164  C 29.6360001010299 18.9084906038528  26.6004907048827 21.944  22.8560001010299 21.944  C 19.1115094971771 21.944  16.0760001010299 18.9084906038528  16.0760001010299 15.164  C 16.0760001010299 11.4195093961472  19.1115094971771 8.384  22.8560001010299 8.384  Z M 34.997 35.294  C 27.446 38.288  19.487 38.504  11 35.288  C 10.931 28.34  14.327 24.026  18.584 22.331  L 22.955 29.624  L 27.56 22.499  C 31.667 24.299  34.931 28.562  34.997 35.294  Z " fill-rule="nonzero" fill="#999999" stroke="none" transform="matrix(1 0 0 1 27 21 )" />
  </g>
</svg>