<?xml version="1.0" encoding="utf-8"?>
<svg version="1.1" xmlns:xlink="http://www.w3.org/1999/xlink" width="24px" height="24px" xmlns="http://www.w3.org/2000/svg">
  <g transform="matrix(1 0 0 1 -327 -115 )">
    <path d="M 21.365625 15.271875  L 21.365625 20.175  C 21.365625 21.01875  20.653125 21.7265625  19.8140625 21.7265625  L 3.41718750000001 21.7546875  C 2.578125 21.7546875  1.89375000000001 21.0703125  2 20.2265625  L 2 3.82968750000001  C 1.921875 2.99062499999999  2.63437499999998 2.278125  3.47343749999999 2.278125  L 12.54375 2.278125  L 12.54375 0.473437500000003  L 3.47343749999999 0.473437500000003  C 1.55624999999998 0.473437500000003  0.121874999999989 2.4140625  0.121874999999989 4.1484375  L 0.121874999999989 20.2265625  C 0.121874999999989 22.0453125  1.59843749999999 23.5265625  3.421875 23.5265625  L 19.5 23.5265625  C 21.421875 23.5265625  23.1703125 21.928125  23.1703125 20.175  L 23.1703125 15.271875  L 21.365625 15.271875  Z M 17.1140625 1.425  L 23.878125 8.203125  L 17.1140625 14.9765625  L 17.1140625 11.1046875  C 17.1140625 11.1046875  10.4015625 10.359375  6.48281250000002 15.946875  C 6.48281250000002 15.946875  7.71562499999999 5.296875  17.1140625 5.296875  L 17.1140625 1.425  Z " fill-rule="nonzero" fill="#2ab795" stroke="none" transform="matrix(1 0 0 1 327 115 )" />
  </g>
</svg>