<?xml version="1.0" encoding="utf-8"?>
<svg version="1.1" xmlns:xlink="http://www.w3.org/1999/xlink" width="69px" height="53px" xmlns="http://www.w3.org/2000/svg">
  <g transform="matrix(1 0 0 1 -153 -438 )">
    <path d="M 62.0944011008523 0.64113679484575  L 62.0944011008523 1  L 6.69848633922228 1  C 3.16464910333809 0.64113679484575  0.301179731889192 3.13149083045857  1 6.20248887733362  L 1 46.9591487545657  C 0.301179731889192 50.0300883218345  3.16471572043682 52.5205008370536  6.69848633922228 52  L 62.094467717951 52  C 65.6284381880327 52.5205008370536  68.4917743252841 50.0301468014408  68 46.9591487545657  L 68 6.20248887733362  C 68.4917077081854 3.12763117644073  65.6282383367365 0.64113679484575  62.0944011008523 0.64113679484575  Z M 6.69155816095525 4.3475157645089  L 6.6916913951527 5  L 62.0965994651101 5  C 63.2752557927912 4.3475157645089  64.2275472190163 5.17371564275567  64 6.19862922331578  L 64 28.0226335100447  C 60.7935023970171 25.5715777698863  54.8424637340199 22.266719777293  47.6992454723011 22.266719777293  C 41.1154776056463 22.266719777293  34.6205103315874 26.705555816254  28.3430478848544 30.9961460531656  C 23.5328270374645 34.2815303368507  18.5583950417259 37.6837568739854  15.0689247935902 37.6837568739854  C 10.1722349520596 37.6837568739854  5.98348501864348 34.5542792207792  5 33.3579034344562  L 5 6.19868770292203  C 4.56061040704901 5.17757529677351  5.51516681463067 4.3475157645089  6.69155816095525 4.3475157645089  Z M 62.0967993164063 48.8103206929788  L 62.0966660822088 48  L 6.69175801225143 48  C 5.5153000488281 48.8103206929788  4.56081025834516 47.9802026811079  4.56081025834516 46.9591487545657  L 4.56081025834516 38.163114207082  C 7.11577584561437 39.7335840351055  10.8115592484908 41.3900188844358  15.0691246448864 41.3900188844358  C 20.0324982022372 41.3900188844358  25.348809148615 37.7539324015828  30.9780872247869 33.911295949168  C 36.6873058194247 30.0102383700284  42.5896473832564 25.9768999213677  47.6994453235973 25.9768999213677  C 56.85596554288 25.9768999213677  64.1210930952592 32.9877275263799  64.1966368852095 33.0577860947646  L 64 33.0304761186079  L 64 46.9590902749594  C 64.2299454345703 47.9840038555195  63.2753890269887 48.8141803469967  62.0967993164063 48.8141803469967  L 62.0967993164063 48.8103206929788  Z M 21.5884071599787 26.5964328708401  C 26.3030990878018 26.5964328708401  30.1255882124468 23.276077782569  30.1255882124468 19.1801661551339  C 30.1255882124468 15.0802779144684  26.3032323219993 11.7559462129668  21.5884071599787 11.7559462129668  C 16.8759135964134 11.7559462129668  13.0534910888672 15.0802779144684  13.0534910888672 19.1801661551339  C 13.0534910888672 23.2760193029627  16.8759135964134 26.5964328708401  21.5884071599787 26.5964328708401  Z M 21.6195839621804 15.4622082234172  C 23.9658381791548 15.4622082234172  25.8703544145064 17.1146079799107  25.8703544145064 19.1567743126014  C 25.8703544145064 21.1989406452922  23.9658381791548 22.8513404017857  21.6195839621804 22.8513404017857  C 19.2711313809481 22.8513404017857  17.3688135098544 21.1989406452922  17.3688135098544 19.1567743126014  C 17.3688135098544 17.1185845931412  19.2733297452059 15.4622082234172  21.6195839621804 15.4622082234172  Z " fill-rule="nonzero" fill="#ffffff" stroke="none" transform="matrix(1 0 0 1 153 438 )" />
  </g>
</svg>