<?xml version="1.0" encoding="utf-8"?>
<svg version="1.1" xmlns:xlink="http://www.w3.org/1999/xlink" width="20px" height="18px" xmlns="http://www.w3.org/2000/svg">
  <g>
    <path d="M 19.3784646679687 5.94226772578125  C 19.3751049804687 2.963332771875  17.1308583984375 0.5395464421875  14.3759449023437 0.5395464421875  C 13.0891987304688 0.5395464421875  11.8662858984375 1.065667725  10.932303046875 2.02719971953125  C 10.8415924804687 2.117910290625  10.37124140625 2.63314629140625  10.008399140625 3.0322728  L 9.084495234375 2.0380850015625  C 8.15051236328125 1.07292458671875  6.92423990234375 0.5395464421875  5.627414765625 0.5395464421875  C 2.86914162109375 0.5395464421875  0.628254687499997 2.963332771875  0.628254687499997 5.9386393265625  C 0.628254687499997 7.67665377421875  1.431211171875 8.98288593046875  2.12329919921875 9.78839574609375  L 8.31177560546875 16.5408902929688  C 8.80228458984375 17.0706399960937  9.34654798828125 17.4153401578125  10.0050395117187 17.4153401578125  C 10.6635310351562 17.4153401578125  11.2077944335937 17.0706399960938  11.6983034179687 16.5408902929688  L 17.88342015625 9.79202416640625  L 17.9270956054687 9.74122623984375  C 18.672938046875 8.736153159375  19.3784646679687 7.78550642578125  19.3784646679687 5.94226772578125  Z " fill-rule="nonzero" fill="#fb0017" stroke="none" />
  </g>
</svg>