<?xml version="1.0" encoding="utf-8"?>
<svg version="1.1" xmlns:xlink="http://www.w3.org/1999/xlink" width="24px" height="18px" xmlns="http://www.w3.org/2000/svg">
  <g transform="matrix(1 0 0 1 -20 -795 )">
    <path d="M 10.3425 3.5565  C 13.8165 3.513  17.292 3.513  20.766 3.5565  C 21.135 3.57  21.498 3.639  21.8445 3.7755  C 22.6839628396286 4.11035447755718  23.342335046386 4.78507698746254  23.6565 5.6325  C 23.775 5.9565  23.835 6.294  23.8485 6.639  C 23.8695 8.403  23.8695 10.167  23.8485 11.931  C 23.8359864968073 12.300664264608  23.7619732873773 12.6656609138516  23.6295 13.011  C 23.2840452817821 13.8752376571276  22.5792276685372 14.5461013527181  21.699 14.8485  C 21.3728549289014 14.9568295883045  21.0316596989183 15.0130204941326  20.688 15.015  L 18.768 15.015  L 18.7185 16.74  L 18.714 16.8  C 18.7017253767544 16.879340015907  18.6758453088512 16.955965314993  18.6375 17.0265  C 18.5104325751726 17.2390702724072  18.2672943302245 17.3535231535657  18.0225 17.316  C 17.9433663165748 17.3015214417275  17.8675923127344 17.2725340711309  17.799 17.2305  L 14.2935 15.015  C 12.9765 15.015  11.6595 15.03  10.3425 15.0135  C 9.94769514495839 15.0010739871723  9.55840803928603 14.9172197150627  9.1935 14.766  C 8.38645056316098 14.4216309612782  7.75664841460709 13.7603658285588  7.452 12.9375  C 7.33579559852515 12.6140950159134  7.27100910053209 12.2744720459654  7.26 11.931  C 7.23899996456785 10.1670625002113  7.23899996456785 8.40293749978875  7.26 6.639  C 7.2735 6.294  7.3335 5.9565  7.452 5.6325  C 7.76616495361401 4.78507698746254  8.42453716037143 4.11035447755718  9.264 3.7755  C 9.6105 3.639  9.9735 3.57  10.3425 3.5565  Z M 20.7345 4.7565  C 17.2995 4.713  13.8645 4.755  10.428 4.755  C 10.1967694070564 4.7555849623676  9.96738440534748 4.79618407771431  9.75 4.875  C 9.20791049704822 5.07603974174515  8.78023411777521 5.50316852002037  8.5785 6.045  C 8.50701776051567 6.24563376681652  8.46704387940533 6.45612914076464  8.46 6.669  C 8.4375 8.43  8.3955 10.1925  8.463 11.952  C 8.475 12.1485  8.511 12.3405  8.5785 12.525  C 8.85692927732444 13.2814607744061  9.5682151875593 13.7918990341319  10.374 13.8135  C 11.7375 13.8315  13.1025 13.815  14.4675 13.815  C 14.580021868515 13.8192881764384  14.6897547618277 13.8512292064167  14.787 13.908  L 17.5485 15.654  L 17.5845 14.3985  L 17.589 14.34  C 17.6242436247287 14.0614310741635  17.8479694851502 13.8445603236714  18.1275 13.818  C 19.0125 13.7745  19.9005 13.8465  20.7855 13.812  C 20.982 13.8  21.174 13.764  21.3585 13.6965  C 22.1126785146015 13.4147894307996  22.6221727041896 12.7056446111054  22.6485 11.901  C 22.671 10.14  22.713 8.3775  22.6455 6.6195  C 22.6348901302883 6.42343418242578  22.5959876868491 6.22993241830639  22.53 6.045  C 22.3341630833136 5.51872191675039  21.9249929058424 5.09974473103087  21.4035 4.8915  C 21.1896390018946 4.80933455528624  20.9634887840365 4.76369886109963  20.7345 4.7565  Z M 2.8365 0.706499999999999  C 5.766 0.669  8.6955 0.664499999999999  11.6235 0.706500000000001  C 12.3569695877908 0.727414128207696  13.05180504371 1.04000910021798  13.554 1.575  C 13.6541842626973 1.66792154041171  13.7294786905048 1.78447318893559  13.773 1.914  C 13.785931589273 1.96376811242555  13.7924762625286 2.01497975143182  13.7924762625286 2.06640047697637  C 13.7924762625286 2.38825372171974  13.5408749915476 2.65396073092622  13.2195 2.6715  C 13.0747455392579 2.67518363084881  12.9331968674732 2.62853088509203  12.819 2.5395  C 12.738 2.469  12.6705 2.3835  12.591 2.31  C 12.3255177514682 2.07340478145029  11.9888012250763 1.93196272961172  11.634 1.908  C 8.69969590844685 1.78949954858901  5.76180409155316 1.78949954858901  2.8275 1.908  C 2.21685590945435 1.93942586389472  1.68087092325816 2.32470172377535  1.4565 2.8935  C 1.39624589308039 3.05055683355708  1.36082133494301 3.21604012657025  1.3515 3.384  C 1.29449945640356 4.87645595077524  1.29449945640356 6.37054404922476  1.3515 7.863  C 1.3605 8.019  1.389 8.172  1.443 8.319  C 1.65191334594521 8.87634768866268  2.15640788287387 9.26892562142211  2.748 9.3345  C 2.8215 9.342  2.895 9.3405  2.97 9.345  C 3.0225 9.3525  3.0225 9.3525  3.0765 9.366  C 3.32446871155704 9.44398649176224  3.49712991305001 9.66880576453954  3.5085 9.9285  L 3.5205 10.488  L 5.325 9.6255  C 5.3745 9.6045  5.373 9.6045  5.4255 9.588  C 5.51266590679281 9.56526882261475  5.60364639139531 9.56117981207082  5.6925 9.576  C 5.97711605903214 9.63148835845196  6.18253830144462 9.8808269671533  6.18253830144462 10.1708015504924  C 6.18253830144462 10.2326088419633  6.17308282619514 10.2940523974231  6.1545 10.353  C 6.10748177280112 10.4899254902262  6.01410119591045 10.6061206398799  5.8905 10.6815  C 5.013 11.151  4.098 11.5425  3.201 11.9715  C 3.12143620006188 12.0083151849082  3.03481679329287 12.0273839326496  2.94714834913869 12.0273839326496  C 2.62131670408837 12.0273839326496  2.35411226987467 11.7691421016614  2.343 11.4435  L 2.3205 10.479  C 2.241 10.4625  2.1645 10.44  2.088 10.4175  C 1.78939072019492 10.3230263248693  1.50856313375546 10.1795710776448  1.257 9.993  C 0.581691793763678 9.48563492069984  0.174230592385864 8.69831829039528  0.15 7.854  C 0.1305 6.3675  0.1305 4.8795  0.15 3.393  C 0.162 3.0705  0.222 2.754  0.3405 2.4525  C 0.627 1.725  1.2255 1.1415  1.959 0.873  C 2.2425 0.7695  2.5365 0.717  2.8365 0.706499999999999  Z M 11.751 8.505  C 12.2481776205066 8.505413969709  12.6510003122397 8.9085722071497  12.6510003122397 9.40575  C 12.6510003122397 9.90322066085534  12.2477206608553 10.3065003122397  11.75025 10.3065003122397  C 11.2523223794934 10.306086030291  10.8494996877603 9.9029277928503  10.8494996877603 9.40575  C 10.8494996877603 8.90827933914466  11.2527793391447 8.50499968776025  11.75025 8.50499968776025  Z M 15.5535 8.505  C 16.0505562748477 8.505  16.4535 8.90794372515229  16.4535 9.405  C 16.4535 9.90205627484771  16.0505562748477 10.305  15.5535 10.305  C 15.0564437251523 10.305  14.6535 9.90205627484771  14.6535 9.405  C 14.6535 8.90794372515229  15.0564437251523 8.505  15.5535 8.505  Z M 19.3575 8.505  C 19.8546776205066 8.505413969709  20.2575003122397 8.9085722071497  20.2575003122397 9.40575  C 20.2575003122397 9.90322066085534  19.8542206608553 10.3065003122397  19.35675 10.3065003122397  C 18.8588223794934 10.306086030291  18.4559996877603 9.9029277928503  18.4559996877603 9.40575  C 18.4559996877603 8.90827933914466  18.8592793391447 8.50499968776025  19.35675 8.50499968776025  Z " fill-rule="nonzero" fill="#666666" stroke="none" transform="matrix(1 0 0 1 20 795 )" />
  </g>
</svg>