<?xml version="1.0" encoding="utf-8"?>
<svg version="1.1" xmlns:xlink="http://www.w3.org/1999/xlink" width="19px" height="18px" xmlns="http://www.w3.org/2000/svg">
  <g transform="matrix(1 0 0 1 -36 -31 )">
    <path d="M 17.0984582741477 0.217744571834373  L 1.8445107310902 0.217744571834373  C 0.871425115411931 0.217744571834373  0.0829335493607921 1.06352518770291  0 2.1065056564529  L 0 15.94839014306  C 0.0829335493607921 16.9913507508116  0.871443459250713 17.8371512276786  1.8445107310902 17.8371512276786  L 17.0984766179865 17.8371512276786  C 18.0715989213423 17.8371512276786  18.8600537997159 16.9913706118101  18.8600537997159 15.94839014306  L 18.8600537997159 2.1065056564529  C 18.8600354558771 1.06221436180999  18.071543889826 0.217744571834373  17.0984582741477 0.217744571834373  Z M 1.8426396595348 1.47651478794637  L 17.0990636208274 1.47651478794637  C 17.4236211603338 1.47651478794637  17.6858463356712 1.75711097301132  17.6858463356712 2.10519483056009  L 17.6858463356712 9.51712081473215  C 16.740239790483 8.68468678977274  15.1015479847301 7.56228218851459  13.1345748401989 7.56228218851459  C 11.3216532537287 7.56228218851459  9.53318400435015 9.06981140929383  7.8046073885831 10.5269929991883  C 6.48005382191051 11.642783887987  5.11028269264915 12.7982570515422  4.1494140735973 12.7982570515422  C 2.80105020419034 12.7982570515422  1.64762630948153 11.7354155844156  1.25582025701349 11.3290992796266  L 1.25582025701349 2.10521469155844  C 1.25582025701349 1.75842179890424  1.51866912286932 1.47651478794637  1.84260297185724 1.47651478794637  Z M 17.0990819646662 16.5770900466721  L 1.84265800337358 16.5770900466721  C 1.51870581054688 16.5770900466721  1.25587528852983 16.295163174716  1.25587528852983 15.94839014306  L 1.25587528852983 12.9610576552354  C 1.95941653719816 13.4944247666397  2.97709602494673 14.0569875456574  4.14946910511364 14.0569875456574  C 5.51619515713778 14.0569875456574  6.98010686700994 12.8220902495941  8.53019793146307 11.5170439072647  C 10.1023016024503 10.1921564275568  11.7275840620561 8.82234336952115  13.1346298717152 8.82234336952115  C 15.6559905118075 8.82234336952115  17.6565328813033 11.2033791599026  17.677334794478 11.2271726359578  L 17.6865067138672 11.2178975497159  L 17.6865067138672 15.9483702820617  C 17.6865067138672 16.2964541396104  17.4236578480114 16.5784008725649  17.0991186523438 16.5784008725649  L 17.0991186523438 16.5770900466721  Z M 5.9446338556463 9.03275078632305  C 7.24288235751065 9.03275078632305  8.29545182661577 7.90508302049511  8.29545182661577 6.51401869419647  C 8.29545182661577 5.12160382000809  7.24291904518822 3.99258550629054  5.9446338556463 3.99258550629054  C 4.64699070046165 3.99258550629054  3.59443957519531 5.12160382000809  3.59443957519531 6.51401869419647  C 3.59443957519531 7.90506315949676  4.64699070046165 9.03275078632305  5.9446338556463 9.03275078632305  Z M 5.9532187721946 5.25131600040584  C 6.59928877397017 5.25131600040584  7.1237207808061 5.81250837053574  7.1237207808061 6.5060742948458  C 7.1237207808061 7.19964021915587  6.59928877397017 7.76083258928577  5.9532187721946 7.76083258928577  C 5.30654342373934 7.76083258928577  4.7827167635831 7.19964021915587  4.7827167635831 6.5060742948458  C 4.7827167635831 5.81385891842535  5.30714877041903 5.25131600040584  5.9532187721946 5.25131600040584  Z " fill-rule="nonzero" fill="#ffffff" stroke="none" transform="matrix(1 0 0 1 36 31 )" />
  </g>
</svg>