<?xml version="1.0" encoding="utf-8"?>
<svg version="1.1" xmlns:xlink="http://www.w3.org/1999/xlink" width="38px" height="38px" xmlns="http://www.w3.org/2000/svg">
  <g transform="matrix(1 0 0 1 -28 -97 )">
    <path d="M 18.9999997206032 0.25  C 8.64466066127585 0.25  0.249999720603227 8.64466094067262  0.249999720603227 19  C 0.249999720603227 29.3553390593274  8.64466066127585 37.75  18.9999997206032 37.75  C 29.3553387799306 37.75  37.7499997206032 29.3553390593274  37.7499997206032 19  C 37.7499997206032 8.64466094067263  29.3553387799306 0.25  18.9999997206032 0.25  Z M 18.8800000841916 6.82  C 22.0004089207355 6.82  24.5300000841916 9.34959116345602  24.5300000841916 12.47  C 24.5300000841916 15.590408836544  22.0004089207355 18.12  18.8800000841916 18.12  C 15.7595912476476 18.12  13.2300000841916 15.590408836544  13.2300000841916 12.47  C 13.2300000841916 9.34959116345602  15.7595912476476 6.82  18.8800000841916 6.82  Z M 28.9975 29.245  C 22.705 31.74  16.0725 31.92  9 29.24  C 8.9425 23.45  11.7725 19.855  15.32 18.4425  L 18.9625 24.52  L 22.8 18.5825  C 26.2225 20.0825  28.9425 23.635  28.9975 29.245  Z " fill-rule="nonzero" fill="#999999" stroke="none" transform="matrix(1 0 0 1 28 97 )" />
  </g>
</svg>