<?xml version="1.0" encoding="utf-8"?>
<svg version="1.1" xmlns:xlink="http://www.w3.org/1999/xlink" width="18px" height="22px" xmlns="http://www.w3.org/2000/svg">
  <g transform="matrix(1 0 0 1 -35 -876 )">
    <path d="M 16.3892109375 8.7090546875  C 15.396515625 7.0558671875  15.565265625 5.9129140625  15.5731640625 5.869390625  C 15.629859375 5.56090625  15.5111953125 5.2484609375  15.26465625 5.05334375  C 15.020765625 4.8621875  14.6766796875 4.822625  14.4011484375 4.947875  C 14.341828125 4.9742421875  12.9470390625 5.6109921875  12.410484375 7.485640625  C 12.33796875 7.741390625  12.273375 8.015609375  12.221953125 8.3043125  C 12.1415390625 8.15534375  12.072984375 8.019546875  12.0162890625 7.89828125  C 10.68084375 5.00721875  11.27803125 1.5980234375  11.3030859375 1.454328125  C 11.35978125 1.1695625  11.2608984375 0.8703125  11.0446875 0.672570312500001  C 10.831125 0.477453125000001  10.523953125 0.406250000000001  10.2444609375 0.484039062500001  C 10.07175 0.532812500000001  5.9981484375 1.7601640625  5.03709375 6.92140625  C 4.7180390625 8.6339140625  4.880203125 10.23565625  5.070046875 11.266578125  C 4.8446015625 11.04509375  4.6310625 10.7722109375  4.4148515625 10.4320859375  C 3.900703125 9.622625  3.51046875 8.15665625  3.50653125 8.1395234375  C 3.4181953125 7.807296875  3.1400390625 7.5634296875  2.794640625 7.51859375  C 2.4505546875 7.484328125  2.1209765625 7.6504296875  1.9575 7.94309375  C 1.89290625 8.057796875  0.383414062500005 10.757703125  0.383414062500005 13.2968046875  C 0.383414062500005 18.0770234375  3.97715625000001 21.546875  8.9274609375 21.546875  C 13.9621171875 21.546875  17.616515625 18.0770703125  17.616515625 13.2968046875  C 17.616515625 11.324609375  17.342296875 10.2949765625  16.3891640625 8.7090546875  Z M 8.927484375 19.862046875  C 4.9527421875 19.862046875  2.0682421875 17.101484375  2.0682421875 13.2981171875  C 2.0682421875 12.381875  2.3332265625 11.3957890625  2.607421875 10.6219296875  C 2.735296875 10.8948359375  2.863171875 11.1347421875  2.991046875 11.33646875  C 4.222359375 13.2757109375  6.114140625 13.75690625  6.195890625 13.7766875  C 6.4964765625 13.847890625  6.8194453125 13.746359375  7.025109375 13.511703125  C 7.2320859375 13.2757109375  7.29009375 12.94746875  7.1780390625 12.65478125  C 7.1688046875 12.6284140625  6.1945546875 9.9126875  6.69290625 7.2338515625  C 7.16221875 4.7198046875  8.5503984375 3.3764375  9.51675 2.726515625  C 9.3941484375 4.9703046875  9.7224140625 6.9464609375  10.4883515625 8.6062109375  C 10.9906171875 9.689890625  12.0914296875 11.25996875  12.2166796875 11.435328125  C 12.4289296875 11.7372265625  12.836296875 11.8664140625  13.18434375 11.7425  C 13.5402890625 11.61725  13.768359375 11.2679140625  13.7446171875 10.8921875  C 13.7433046875 10.8763671875  13.6496953125 9.2825234375  14.03203125 7.9470546875  C 14.0583984375 7.8613671875  14.084765625 7.77565625  14.11509375 7.6939296875  C 14.295703125 8.32540625  14.573859375 8.9568828125  14.9443125 9.5777890625  C 15.73003125 10.8855546875  15.9330703125 11.6501796875  15.9330703125 13.29809375  C 15.9330703125 17.1014609375  12.986625 19.8620234375  8.9275078125 19.8620234375  Z " fill-rule="nonzero" fill="#666666" stroke="none" transform="matrix(1 0 0 1 35 876 )" />
  </g>
</svg>