<?xml version="1.0" encoding="utf-8"?>
<svg version="1.1" xmlns:xlink="http://www.w3.org/1999/xlink" width="20px" height="20px" xmlns="http://www.w3.org/2000/svg">
  <g transform="matrix(1 0 0 1 -32 -753 )">
    <path d="M 19.7010506875 4.7862709140625  C 19.7010506875 4.4364201015625  19.4177547578125 4.152596546875  19.06790396875 4.152596546875  L 14.8314882578125 4.152596546875  C 15.0921195390625 3.7076742109375  15.22664434375 3.1937506328125  15.22664434375 2.6916750625  C 15.22664434375 1.3687080390625  14.3160777109375 0.0295040078124997  12.5743066328125 0.0295040078124997  C 11.7691964921875 0.0295040078124997  11.0848205078125 0.3098499296875  10.539838 0.8636584609375  C 10.247188421875 1.16028934375  10.02449940625 1.5155364765625  9.850041671875 1.8880279375  C 9.6795892421875 1.516016171875  9.460785578125 1.161752359375  9.173052671875 0.865145453125  C 8.6330108125 0.310305625  7.9520645078125 0.0294800312500003  7.1474340390625 0.0294800312500003  C 6.115677578125 0.0294800312500003  5.4933715 0.4896800078125  5.152874359375 0.87598609375  C 4.728649984375 1.3568840546875  4.495096328125 2.0013510859375  4.495096328125 2.6916510625  C 4.495096328125 3.1937506328125  4.6301008046875 3.7076502109375  4.8907560625 4.152572546875  L 0.9381399296875 4.152572546875  C 0.5883131171875 4.152572546875  0.3049932109375 4.436396125  0.3049932109375 4.7862229375  L 0.3049932109375 10.54467071875  C 0.3049932109375 10.89452153125  0.588289140625 11.178321109375  0.9381399296875 11.178321109375  L 1.79795696875 11.178321109375  L 1.79795696875 19.289501734375  C 1.79795696875 19.6393765234375  2.081276875 19.9231761015625  2.4311036875 19.9231761015625  L 8.261502671875 19.9231761015625  L 11.7450688046875 19.9231761015625  L 17.574940140625 19.9231761015625  C 17.9248149296875 19.9231761015625  18.208110859375 19.6393765234375  18.208110859375 19.289501734375  L 18.20811090625 11.1783690625  L 19.06790396875 11.1783690625  C 19.41775478125 11.1783690625  19.7010506875 10.894569484375  19.7010506875 10.544718671875  L 19.7010506875 4.7862709140625  Z M 10.5555953125 4.1363595390625  C 10.6324871640625 3.3987636484375  10.8625871640625 2.3408648828125  11.4425139765625 1.752543765625  C 11.7445651796875 1.4455998671875  12.1145863046875 1.2957974453125  12.5742826328125 1.2957974453125  C 13.597141140625 1.2957974453125  13.96032690625 2.04768765625  13.96032690625 2.6916750390625  C 13.96032690625 3.0789644453125  13.8302391015625 3.4524632265625  13.6030651328125 3.716044515625  C 13.3542818125 4.0052884140625  13.009347671875 4.1521168515625  12.57675296875 4.1525965234375  L 10.5555953125 4.1363595390625  Z M 7.1474580390625 4.1525965234375  C 6.0536076484375 4.152596546875  5.7618934375 3.2341872109375  5.7618934375 2.6916750390625  C 5.7618934375 2.310333578125  5.8826275703125 1.963432796875  6.103349921875 1.71364215625  C 6.347264546875 1.4367259140625  6.698554375 1.2957974453125  7.1474340390625 1.2957974453125  C 7.602237671875 1.2957974453125  7.9668384765625 1.4431295546875  8.2624860390625 1.7461401015625  C 8.8360091875 2.3339575703125  9.0547888515625 3.407133953125  9.123286421875 4.1525965234375  L 8.26150271875 4.1525965234375  L 7.1474580390625 4.1525965234375  Z M 1.571286671875 9.911571953125  L 1.571286671875 5.4194176328125  L 7.1474580390625 5.4194176328125  L 7.6278763046875 5.4194176328125  L 7.6278763046875 9.911571953125  L 1.571286671875 9.911571953125  Z M 3.0642504296875 18.656450921875  L 3.0642504296875 11.1783690625  L 7.6278523046875 11.1783690625  L 7.6278523046875 18.656450921875  L 3.0642504296875 18.656450921875  Z M 11 18.656450921875  L 9 18.656450921875  L 9 5.4194176328125  L 9.7820477734375 5.4194176328125  L 11 5.4194176328125  L 11 18.656450921875  Z M 16.9413377734375 11.1783690625  L 16.9413377734375 18.656450921875  L 12.37819159375 18.656450921875  L 12.37819159375 11.1783690625  L 16.9413377734375 11.1783690625  Z M 18.434277578125 5.4194176328125  L 18.4342775546875 9.911571953125  L 12.37819159375 9.911571953125  L 12.37819159375 5.4194176328125  L 12.5688623125 5.4194176328125  L 12.5743066328125 5.4194176328125  L 18.434277578125 5.4194176328125  Z " fill-rule="nonzero" fill="#666666" stroke="none" transform="matrix(1 0 0 1 32 753 )" />
  </g>
</svg>