<?xml version="1.0" encoding="utf-8"?>
<svg version="1.1" xmlns:xlink="http://www.w3.org/1999/xlink" width="40px" height="30px" xmlns="http://www.w3.org/2000/svg">
  <g transform="matrix(1 0 0 1 -40 -227 )">
    <path d="M 35.9967542613636 0.362907619724069  L 3.88318048650568 0.362907619724069  C 1.83457919034092 0.362907619724069  0.174596946022724 1.77254197950487  0.174596946022724 3.51084276075488  L 0.174596946022724 26.5806502384334  C 0.174596946022724 28.3189179180195  1.83461780894887 29.7285853794643  3.88318048650568 29.7285853794643  L 35.9967928799716 29.7285853794643  C 38.0454714133523 29.7285853794643  39.7053764204545 28.3189510196835  39 26.5806502384334  L 39 3.51084276075488  C 39.7053378018466 1.77035726968342  38.0453555575284 0.362907619724069  35.9967542613636 0.362907619724069  Z M 3.87916415127841 2.46085797991071  L 3.87924138849432 3  L 35.9980286754261 3  C 36.6813077059659 2.46085797991071  37.2333607066762 2.92851828835228  37 3.50865805093343  L 37 15.8618680245536  C 35.2426100852273 14.4744779829545  31.7927325994318 12.6038036475243  27.6517365056818 12.6038036475243  C 23.8350594815341 12.6038036475243  20.0698610617898 15.1163523488231  16.430752397017 17.5449883319805  C 13.6422185724432 19.4046398133117  10.7584898792614 21.330428419237  8.73560857599429 21.330428419237  C 5.89694779829544 21.330428419237  3.46868696732955 19.559025974026  3 18.881832132711  L 3 3.50869115259735  C 2.64383212002841 2.93070299817367  3.19719815340908 2.46085797991071  3.87916415127841 2.46085797991071  Z M 35.9980672940341 27.6284834111201  L 3.87928000710227 27.6284834111201  C 3.19727539062499 27.6284834111201  2.64394797585226 27.1586052911932  2.64394797585226 26.5806502384334  L 2.64394797585226 21.6017627587257  C 4.12508744673296 22.4907079443993  6.26757057883523 23.4283125760958  8.73572443181818 23.4283125760958  C 11.6130424360795 23.4283125760958  14.6949618252841 21.3701504159903  17.9583114346591 19.1950731787744  C 21.2680033735795 16.9869273792614  24.6896506569602 14.7039056158685  27.6518523615057 14.7039056158685  C 32.959980024858 14.7039056158685  37.1716481711648 18.6722985998377  37.2154416725852 18.711954393263  L 37.2347509765625 18.6964959161932  L 37.2347509765625 26.5806171367695  C 37.2347509765625 27.1607568993506  36.6813849431818 27.6306681209416  35.99814453125 27.6306681209416  L 35.99814453125 27.6284834111201  Z M 12.5150186434659 15.0545846438717  C 15.2481733842329 15.0545846438717  17.4641091086648 13.1751383674919  17.4641091086648 10.8566978236607  C 17.4641091086648 8.53600636668023  15.2482506214489 6.65430917715099  12.5150186434659 6.65430917715099  C 9.78313831676137 6.65430917715099  7.5672412109375 8.53600636668023  7.5672412109375 10.8566978236607  C 7.5672412109375 13.1751052658279  9.78313831676137 15.0545846438717  12.5150186434659 15.0545846438717  Z M 12.5330921519887 8.75219333400975  C 13.8932395241477 8.75219333400975  14.9973069069602 9.68751395089288  14.9973069069602 10.8434571580763  C 14.9973069069602 11.9994003652598  13.8932395241477 12.9347209821428  12.5330921519887 12.9347209821428  C 11.171670365767 12.9347209821428  10.068877397017 11.9994003652598  10.068877397017 10.8434571580763  C 10.068877397017 9.68976486404222  11.1729447798295 8.75219333400975  12.5330921519887 8.75219333400975  Z " fill-rule="nonzero" fill="#ffffff" stroke="none" transform="matrix(1 0 0 1 40 227 )" />
  </g>
</svg>