<?xml version="1.0" encoding="utf-8"?>
<svg version="1.1" xmlns:xlink="http://www.w3.org/1999/xlink" width="12px" height="16px" xmlns="http://www.w3.org/2000/svg">
  <g transform="matrix(1 0 0 1 -130 -255 )">
    <path d="M 11.628888890625 5.708888890625  C 11.628888890625 2.6  9.108888890625 0.0800000000000001  6 0.0800000000000001  C 2.891111109375 0.0800000000000001  0.371111109375 2.6  0.371111109375 5.708888890625  C 0.371111109375 8.9777777890625  4.444444453125 14.11333334375  5.66222221875 15.5733333359375  C 5.837777765625 15.7844444375  6.1644444375 15.7844444375  6.3400000078125 15.5733333359375  C 7.555555546875 14.115555546875  11.628888890625 8.9777777890625  11.628888890625 5.708888890625  Z M 10.7644444453125 5.7288888828125  C 10.7644444453125 8.3777777890625  7.6066666640625 12.5688888828125  6.2422222265625 14.2555555625  C 6.1177777734375 14.408888890625  5.8822222265625 14.408888890625  5.7577777734375 14.2555555625  C 4.3933333359375 12.5688888828125  1.2355555546875 8.3777777890625  1.2355555546875 5.7288888828125  C 1.2355555546875 3.10222221875  3.3733333359375 0.964444437500001  6 0.964444437500001  C 8.6266666640625 0.964444437500001  10.7644444453125 3.10222221875  10.7644444453125 5.7288888828125  Z " fill-rule="nonzero" fill="#999999" stroke="none" transform="matrix(1 0 0 1 130 255 )" />
  </g>
</svg>