<?xml version="1.0" encoding="utf-8"?>
<svg version="1.1" xmlns:xlink="http://www.w3.org/1999/xlink" width="6px" height="7px" xmlns="http://www.w3.org/2000/svg">
  <g transform="matrix(1 0 0 1 -133 -257 )">
    <path d="M 5.6444444296875 3.611111109375  C 5.6311111171875 2.1755555625  4.4577777890625 1.0022222109375  3.02222221875 0.9888888984375  C 1.5444444375 0.975555562499999  0.342222210937498 2.1777777890625  0.355555546874999 3.6555555703125  C 0.366666656249997 5.0911111171875  1.5422222109375 6.26444446875  2.9777777578125 6.27777778125  C 4.4555555390625 6.2911111171875  5.657777765625 5.088888890625  5.6444444296875 3.611111109375  Z M 4.7555555625 3.633333328125  C 4.7555555625 4.602222234375  3.9688888828125 5.388888890625  3 5.388888890625  C 2.0311111171875 5.388888890625  1.2444444375 4.602222234375  1.2444444375 3.633333328125  C 1.2444444375 2.664444421875  2.03111109375 1.877777765625  3 1.877777765625  C 3.96888890625 1.877777765625  4.7555555625 2.664444421875  4.7555555625 3.633333328125  Z " fill-rule="nonzero" fill="#999999" stroke="none" transform="matrix(1 0 0 1 133 257 )" />
  </g>
</svg>