<?xml version="1.0" encoding="utf-8"?>
<svg version="1.1" xmlns:xlink="http://www.w3.org/1999/xlink" width="16px" height="12px" xmlns="http://www.w3.org/2000/svg">
  <g transform="matrix(1 0 0 1 -280 -237 )">
    <path d="M 15.3687004492187 1.707431796875  C 15.6062357226563 1.45686064453125  15.5931326367187 1.06124849609375  15.34188953125 0.824385156250001  C 15.0906464257813 0.58876494140625  14.6943959179688 0.60002015625  14.458775703125 0.85190162109375  L 6.12374009765625 9.72624646484375  L 1.5706222265625 5.23998791015625  C 1.32438515625 4.99748017578125  0.9287394140625 5  0.686231679687499 5.2462370703125  C 0.4437239453125 5.491869375  0.44684853515625 5.8881198828125  0.69311919921875 6.1299892578125  L 5.7024929296875 11.0649778320312  C 5.70437439453125 11.066859296875  5.706860625 11.0674640625  5.70874208984375 11.0693455273437  C 5.7106235546875 11.0712269921875  5.7112283203125 11.0737132226562  5.71310978515625 11.0755946875  C 5.7524862109375 11.1130896484375  5.79999326171875 11.134356953125  5.84561884765625 11.15935359375  C 5.8681292578125 11.1724902734375  5.88748150390625 11.1918425  5.91123501953125 11.20121625  C 5.9849818359375 11.2299758203125  6.063096328125 11.2449603710938  6.14060607421875 11.2449603710938  C 6.222483515625 11.2449603710938  6.3043609375 11.2286991210938  6.380593984375 11.1962101953125  C 6.406228984375 11.1855933398438  6.4262195703125 11.1637212890625  6.44997310546875 11.14994625  C 6.496841796875 11.1224297851562  6.54559197265625 11.099314609375  6.5856067578125 11.058695078125  C 6.58748822265625 11.0568136132813  6.58809298828125 11.0536890234375  6.589974453125 11.0518075585938  C 6.59121755859375 11.04992609375  6.5937373828125 11.049321328125  6.59558525390625 11.0474398632813  L 15.3687004492187 1.707431796875  Z " fill-rule="nonzero" fill="#ffffff" stroke="none" transform="matrix(1 0 0 1 280 237 )" />
  </g>
</svg>