<?xml version="1.0" encoding="utf-8"?>
<svg version="1.1" xmlns:xlink="http://www.w3.org/1999/xlink" width="19px" height="11px" xmlns="http://www.w3.org/2000/svg">
  <g transform="matrix(1 0 0 1 -179 -400 )">
    <path d="M 17.8709850703125 1.817081046875  C 18.1634861015625 1.5222416328125  18.16126865625 1.0475070546875  17.8672355859375 0.755731765625001  C 17.5724768203125 0.464722484375  17.0984679375 0.466214234375  16.8067329609375 0.76024728125  L 9.1230076640625 8.514487296875  L 1.3319983828125 0.793267039062499  C 1.0372396171875 0.501532062499999  0.563230734375 0.503749507812499  0.2707297265625 0.797782554687499  C -0.0210052500000004 1.0925413203125  -0.0187878046875003 1.5672758984375  0.2752452421875 1.8590512109375  L 8.5559870859375 10.0648031328125  C 8.5687273125 10.077543359375  8.5852170234375 10.0805671484375  8.5979975625 10.09254134375  C 8.6009810390625 10.0955248203125  8.601747046875 10.0992743046875  8.6047305234375 10.10229809375  C 8.750960859375 10.247036703125  8.942225484375 10.3198091796875  9.132724078125 10.3198091796875  C 9.3254804296875 10.3198091796875  9.5189624765625 10.2455449765625  9.6652331484375 10.097822890625  L 17.8709850703125 1.817081046875  Z " fill-rule="nonzero" fill="#999999" stroke="none" transform="matrix(1 0 0 1 179 400 )" />
  </g>
</svg>