<?xml version="1.0" encoding="utf-8"?>
<svg version="1.1" xmlns:xlink="http://www.w3.org/1999/xlink" width="16px" height="16px" xmlns="http://www.w3.org/2000/svg">
  <g transform="matrix(1 0 0 1 -282 -234 )">
    <path d="M 15.4843434960938 8.0280540234375  C 15.4856201953125 7.68303990234375  15.2062558789062 7.4024324609375  14.8618801171875 7.40118935546875  L 8.66375486328125 7.40313802734375  L 8.66375486328125 1.1800161328125  C 8.66375486328125 0.83500203125  8.38375216796875 0.5549993359375  8.03873806640625 0.5549993359375  C 7.69372396484375 0.5549993359375  7.41375486328125 0.83500203125  7.41375486328125 1.1800161328125  L 7.41375486328125 7.39877033203125  L 1.11749091796875 7.39530978515625  C 1.11685255859375 7.39530978515625  1.1162478125 7.39530978515625  1.115609453125 7.39530978515625  C 0.77123369140625 7.39530978515625  0.491869355468749 7.67343099609375  0.49059265625 8.0184451171875  C 0.488711191406249 8.36345921875  0.768109121093749 8.6440666796875  1.11308962890625 8.64530978515625  L 7.41372126953125 8.64877033203125  L 7.41372126953125 14.8825090820312  C 7.41372126953125 15.2281279492187  7.69372396484375 15.5075258789063  8.03870447265625 15.5075258789063  C 8.38368498046875 15.5075258789063  8.66372126953125 15.2281615429687  8.66372126953125 14.8825090820312  L 8.66372126953125 8.65313802734375  L 14.85684046875 8.65118935546875  C 14.8580835742187 8.65118935546875  14.8587219335937 8.65118935546875  14.8593266992188 8.65118935546875  C 15.2037024609375 8.65118935546875  15.483066796875 8.37306814453125  15.4843434960938 8.0280540234375  Z " fill-rule="nonzero" fill="#ffffff" stroke="none" transform="matrix(1 0 0 1 282 234 )" />
  </g>
</svg>