<?xml version="1.0" encoding="utf-8"?>
<svg version="1.1" xmlns:xlink="http://www.w3.org/1999/xlink" width="20px" height="10px" xmlns="http://www.w3.org/2000/svg">
  <g transform="matrix(1 0 0 1 -178 -579 )">
    <path d="M 18.80127671875 9.5250504140625  C 19.0930116953125 9.23101734375  19.0907539375 8.7562424296875  18.7967611796875 8.464507453125  L 10.514487296875 0.2579895234375  C 10.5024727890625 0.245975015625  10.4859830546875 0.242225507812499  10.4732428515625 0.230977031249999  C 10.470259375 0.227993554687499  10.4694933671875 0.223478039062499  10.466509890625 0.220494562499999  C 10.171751125 -0.0705147187500001  9.697016546875 -0.0690229687500006  9.405241234375 0.225010078124999  L 1.1994893125 8.5065179296875  C 0.9077543359375 8.8012766953125  0.909971781249999 9.275285578125  1.204004828125 9.5670205546875  C 1.3502351640625 9.7117591640625  1.5414997890625 9.784531640625  1.7319983828125 9.784531640625  C 1.924754734375 9.784531640625  2.11823678125 9.7102674375  2.264507453125 9.5625453515625  L 9.9482730859375 1.8090310546875  L 17.74077409375 9.5295256171875  C 17.8870044296875 9.6742642265625  18.0775433359375 9.747036703125  18.2687676484375 9.747036703125  C 18.46224971875 9.747036703125  18.655006046875 9.6727725  18.80127671875 9.5250504140625  Z " fill-rule="nonzero" fill="#999999" stroke="none" transform="matrix(1 0 0 1 178 579 )" />
  </g>
</svg>