<?xml version="1.0" encoding="utf-8"?>
<svg version="1.1" xmlns:xlink="http://www.w3.org/1999/xlink" width="21px" height="20px" xmlns="http://www.w3.org/2000/svg">
  <g transform="matrix(1 0 0 1 -29 -294 )">
    <path d="M 18.8982959872159 0.241938413149349  L 2.03866975541549 0.241938413149349  C 0.96315407492898 0.241938413149349  0.0916633966619287 1.18169465300324  0 2.34056184050324  L 0 17.720433492289  C 0.0916633966619287 18.879278612013  0.963174349698154 19.8190569196429  2.03866975541549 19.8190569196429  L 18.8983162619851 19.8190569196429  C 19.9738724920099 19.8190569196429  20.8453226207386 18.879300679789  20.8453226207386 17.720433492289  L 20.8453226207386 2.34056184050324  C 20.8453023459695 1.18023817978896  19.9738116677024 0.241938413149349  18.8982959872159 0.241938413149349  Z M 2.03656117942117 1.64057198660714  L 2.03660172895951 2  L 18.8989650545987 2  C 19.2576865456321 1.64057198660714  19.547514371005 1.95234552556818  19.547514371005 2.33910536728897  L 19.547514371005 10.5745786830357  C 18.5023702947443 9.64965198863636  16.6911846147017 8.40253576501623  14.517161665483 8.40253576501623  C 12.5134062278054 8.40253576501623  10.5366770574396 10.0775682325487  8.62614500843395 11.696658887987  C 7.16216475053267 12.9364265422078  5.64820718661222 14.2202856128247  4.58619450239701 14.2202856128247  C 3.09589759410511 14.2202856128247  1.82106065784801 13.0393506493507  1.38801186301491 12.587888088474  L 1.38801186301491 2.33912743506492  C 1.38801186301491 1.95380199878246  1.67852903053977 1.64057198660714  2.03656117942117 1.64057198660714  Z M 18.8989853293679 18.4189889407468  L 2.0366220037287 18.4189889407468  C 1.67856958007813 18.4189889407468  1.38807268732244 18.1057368607955  1.38807268732244 17.720433492289  L 1.38807268732244 14.4011751724838  C 2.1656709095348 14.9938052962662  3.29047455388849 15.6188750507305  4.58625532670454 15.6188750507305  C 6.09684727894177 15.6188750507305  7.71485495827415 14.2467669439935  9.42811350319602 12.7967154525162  C 11.1657017711293 11.3246182528409  12.9620665949041 9.80260374391234  14.5172224897905 9.80260374391234  C 17.3039895130504 9.80260374391234  19.5151152898615 12.4481990665584  19.5381068781072 12.4746362621753  L 19.5482442626953 12.4643306107954  L 19.5482442626953 17.720411424513  C 19.5482442626953 18.1071712662338  19.2577270951705 18.420445413961  18.8990258789063 18.420445413961  L 18.8990258789063 18.4189889407468  Z M 6.5703847878196 10.0363897625812  C 8.0052910267223 10.0363897625812  9.168657282049 8.78342557832792  9.168657282049 7.23779854910714  C 9.168657282049 5.69067091112014  8.00533157626066 4.43620611810066  6.5703847878196 4.43620611810066  C 5.13614761629971 4.43620611810066  3.97280163574219 5.69067091112014  3.97280163574219 7.23779854910714  C 3.97280163574219 8.78340351055194  5.13614761629971 10.0363897625812  6.5703847878196 10.0363897625812  Z M 6.57987337979404 5.83479555600649  C 7.29395075017756 5.83479555600649  7.87358612615412 6.45834263392857  7.87358612615412 7.22897143871754  C 7.87358612615412 7.99960024350649  7.29395075017756 8.62314732142857  6.57987337979404 8.62314732142857  C 5.86512694202769 8.62314732142857  5.28616063343395 7.99960024350649  5.28616063343395 7.22897143871754  C 5.28616063343395 6.45984324269481  5.86579600941051 5.83479555600649  6.57987337979404 5.83479555600649  Z " fill-rule="nonzero" fill="#ffffff" stroke="none" transform="matrix(1 0 0 1 29 294 )" />
  </g>
</svg>