<?xml version="1.0" encoding="utf-8"?>
<svg version="1.1" xmlns:xlink="http://www.w3.org/1999/xlink" width="22px" height="22px" xmlns="http://www.w3.org/2000/svg">
  <g transform="matrix(1 0 0 1 -180 -103 )">
    <path d="M 7.2728036328125 18.4967243515625  C 6.442298 18.4967243515625  5.773055609375 19.1659667421875  5.773055609375 19.996472375  C 5.773055609375 20.8269780078125  6.442298 21.4962203984375  7.2728036328125 21.4962203984375  C 8.103309265625 21.4962203984375  8.77255165625 20.8269780078125  8.77255165625 19.996472375  C 8.77255165625 19.1659667421875  8.103309265625 18.4967243515625  7.2728036328125 18.4967243515625  Z M 17.7750713984375 18.4967243515625  C 16.944565765625 18.4967243515625  16.275323375 19.1659667421875  16.275323375 19.996472375  C 16.275323375 20.8269780078125  16.944565765625 21.4962203984375  17.7750713984375 21.4962203984375  C 18.60557703125 21.4962203984375  19.274819421875 20.8269780078125  19.274819421875 19.996472375  C 19.274819421875 19.1659667421875  18.6015454296875 18.4967243515625  17.7750713984375 18.4967243515625  Z M 21.5204098671875 5.329581734375  C 21.605073078125 4.60792878125  21.407525609375 3.9104653203125  20.9680833125 3.4186124609375  C 20.58508315625 2.9832017421875  20.0569460703125 2.7493700703125  19.484461625 3  L 4.458760296875 3  L 4.4063497578125 2.4429699453125  C 4.2733075859375 1.3504115703125  3.3137913828125 0.499748046875  2.2212330078125 0.499748046875  L 1.273811515625 0.4997480234375  C 0.8585587109375 0.4997480234375  0.5239374921875 0.83436921875  0.5239374921875 1.249622046875  C 0.5239374921875 1.664874875  0.8585586875 1.9994960703125  1.273811515625 1.9994960703125  L 2.21720140625 1.9994960703125  C 2.5437594453125 1.9994960703125  2.878380640625 2.2978330390625  2.9186964453125 2.6606753046875  L 3.6443809765625 6.84545609375  L 4.918360484375 15.7995968515625  C 5.05140265625 16.8921552265625  5.998824125 17.746850328125  7.0833193203125 17.746850328125  L 19.2748193984375 17.746850328125  C 19.690072203125 17.746850328125  20.024693421875 17.4122291328125  20.024693421875 16.9969763046875  C 20.024693421875 16.5817234765625  19.6900722265625 16.24710228125  19.2748193984375 16  L 7.079287765625 16  C 6.7607928828125 16.2471023046875  6.4463296015625 15.9527969140625  6.4019821953125 15.6020493828125  L 6.277003203125 14.7271963671875  L 18.174197890625 13.9934486796875  C 19.25466153125 13.9934486796875  20.206114578125 13.138753578125  20.3310935703125 12.0865110078125  L 21.5204098671875 5.329581734375  Z " fill-rule="nonzero" fill="#2ab795" stroke="none" transform="matrix(1 0 0 1 180 103 )" />
  </g>
</svg>