<?xml version="1.0" encoding="utf-8"?>
<svg version="1.1" xmlns:xlink="http://www.w3.org/1999/xlink" width="15px" height="24px" xmlns="http://www.w3.org/2000/svg">
  <g transform="matrix(1 0 0 1 -49 -111 )">
    <path d="M 13.6803352929687 23.3062424414063  C 13.4065817773437 23.5818606445313  13.0465495214844 23.7187374023437  12.68656765625 23.7187374023437  C 12.3265857910156 23.7187374023437  11.9665535351562 23.5818606445313  11.6918928710937 23.3071999804687  L 1.38032521484375 12.9956322949219  C 0.830953496093749 12.4472181152344  0.830953496093749 11.5565615917969  1.38032521484375 11.0071898730469  L 11.6918929003906 0.69466470703125  C 12.2412646191406 0.14529298828125  13.1309636035156 0.14529298828125  13.6803353222656 0.69466470703125  C 14.2297070410156 1.24307888671875  14.2297070410156 2.13373541015625  13.6803353222656 2.68310712890625  L 4.363442421875 12.0009071484375  L 13.6803352929687 21.3178000195313  C 14.2297070117188 21.8671717382813  14.2297070117188 22.7568707226563  13.6803352929687 23.3062424414063  Z " fill-rule="nonzero" fill="#2ab795" stroke="none" transform="matrix(1 0 0 1 49 111 )" />
  </g>
</svg>