<?xml version="1.0" encoding="utf-8"?>
<svg version="1.1" xmlns:xlink="http://www.w3.org/1999/xlink" width="30px" height="30px" xmlns="http://www.w3.org/2000/svg">
  <g transform="matrix(1 0 0 1 -55 -273 )">
    <path d="M 30 9.75  C 30 8.1  28.65 6.75  27 6.75  L 23.8065 6.75  C 24.395625 6.03675  24.749625 5.122125  24.749625 4.125  C 24.749625 1.846875  22.90275 0  20.624625 0  C 19.0275 0  17.64525 0.909375  16.960125 2.236875  C 16.432875 1.779375  15.748125 1.5  15 1.5  C 14.251875 1.5  13.567125 1.779375  13.04025 2.236875  C 12.35475 0.909375  10.9725 0  9.375375 0  C 7.09725 0  5.250375 1.846875  5.250375 4.125  C 5.250375 5.122125  5.604375 6.03675  6.1935 6.75  L 3 6.75  C 1.35 6.75  0 8.1  0 9.75  L 0 12  C 0 13.2525  0.7785 14.33025  2 14.778  L 2 27  C 1.875 28.65  3.225 30  4.875 30  L 25.125 30  C 26.775 30  28.125 28.65  28 27  L 28 14.778  C 29.2215 14.330625  30 13.2525  30 12  L 30 9.75  Z M 17.999625 4.125  C 17.999625 2.6775  19.177125 1.5  20.624625 1.5  C 22.072125 1.5  23.249625 2.6775  23.249625 4.125  C 23.249625 5.5725  22.072125 6.75  20.624625 6.75  L 18 6.75  L 18 4.5  C 18 4.496625  17.999625 4.49325  17.999625 4.4895  L 17.999625 4.125  Z M 16 27  C 16.5 27.82725  15.82725 28.5  15 28.5  C 14.17275 28.5  13.5 27.82725  14 27  L 14 15  L 16 15  L 16 27  Z M 16.5 13.5  L 13.5 13.5  L 13.5 8.25  L 16.49925 8.25  L 16.5 13.5  Z M 13.50075 4.49475  C 13.503375 3.670125  14.174625 3  15 3  C 15.825375 3  16.496625 3.670125  16.499625 4.49475  L 16.499625 6.75  L 13.50075 6.75  L 13.50075 4.49475  Z M 9.375375 6.75  C 7.92825 6.75  6.750375 5.5725  6.750375 4.125  C 6.750375 2.6775  7.927875 1.5  9.375375 1.5  C 10.822875 1.5  12.000375 2.6775  12.000375 4.125  L 12.000375 4.4895  C 12.000375 4.49325  12 4.496625  12 4.5  L 12 6.75  L 9.375375 6.75  Z M 1.5 12  L 1.5 9.75  C 1.5 8.92275  2.17275 8.25  3 8.25  L 9.375375 8.25  L 12 8.25  L 12 13.5  L 3 13.5  C 2.17275 13.5  1.5 12.82725  1.5 12  Z M 4.875 28.5  C 4.04775 28.5  3.375 27.82725  3.375 27  L 3.375 15  L 12 15  L 12 27  C 12 27.546  12.150375 28.057875  12.408 28.5  L 4.875 28.5  Z M 26.625 15  L 26.625 27  C 26.625 27.82725  25.95225 28.5  25.125 28.5  L 17.592 28.5  C 17.849625 28.057875  18 27.546  18 27  L 18 15  L 26.625 15  Z M 28.5 9.75  L 28.5 12  C 28.5 12.82725  27.82725 13.5  27 13.5  L 18 13.5  L 18 8.25  L 20.624625 8.25  L 27 8.25  C 27.82725 8.25  28.5 8.92275  28.5 9.75  Z " fill-rule="nonzero" fill="#666666" stroke="none" transform="matrix(1 0 0 1 55 273 )" />
  </g>
</svg>