<?xml version="1.0" encoding="utf-8"?>
<svg version="1.1" xmlns:xlink="http://www.w3.org/1999/xlink" width="12px" height="12px" xmlns="http://www.w3.org/2000/svg">
  <g transform="matrix(1 0 0 1 -60 -369 )">
    <path d="M 11.34666665625 5.74000000781251  C 11.21333334375 2.49666666796873  8.19666665625 -0.00333332812499521  4.78666667578125 0.733333335937516  C 2.9733333515625 1.1266666640625  1.143333328125 2.95666665234376  0.75 4.77000001171871  C -0.00333332812500231 8.25666666796872  2.630000015625 11.336666671875  5.9866666640625 11.336666671875  L 11.3533333359375 11.336666671875  L 11.3533333359375 11.1100000195312  L 11.3533333359375 10.0033333359376  L 11.3533333359375 5.74000000781251  L 11.34666665625 5.74000000781251  Z M 10.02 5.97000000000003  L 10.02 10.0033333359376  L 5.9866666640625 10.0033333359376  C 3.74000000390625 10.0033333359376  1.92333333984375 8.16666666796874  1.953333328125 5.91333332812502  C 1.98333331640625 3.74000000390623  3.75666666796875 1.96666665234375  5.9299999921875 1.9366666640625  C 8.18333333203125 1.90666667578125  10.02 3.72333333984375  10.02 5.97000000000003  Z " fill-rule="nonzero" fill="#666666" stroke="none" transform="matrix(1 0 0 1 60 369 )" />
  </g>
</svg>