<?xml version="1.0" encoding="utf-8"?>
<svg version="1.1" xmlns:xlink="http://www.w3.org/1999/xlink" width="12px" height="12px" xmlns="http://www.w3.org/2000/svg">
  <g transform="matrix(1 0 0 1 -72 -369 )">
    <path d="M 6.03666664453125 11.336666671875  C 9.38999998828125 11.336666671875  12.026666671875 8.25666666796872  11.27333334375 4.77000001171871  C 10.880000015625 2.95666668750005  9.05000002734376 1.1266666640625  7.23666666796876 0.733333335937516  C 3.82999999218751 -0.00333332812499521  0.810000000000002 2.49666666796873  0.676666652343755 5.74333334765623  L 0.669999972656257 5.74333334765623  L 0.669999972656257 10.0033333359376  L 0.669999972656257 11.1100000195312  L 0.669999972656257 11.336666671875  L 6.03666664453125 11.336666671875  Z M 2.00333334375 10.0033333359376  L 2.00333334375 5.97000000000003  C 2.00333334375 3.72333333984375  3.84000001171874 1.90666667578125  6.09333335156251 1.9366666640625  C 8.26666667578124 1.96666665234375  10.0400000273438 3.74000000390623  10.070000015625 5.91333332812502  C 10.1000000039062 8.16666666796874  8.28333333984374 10.0033333359376  6.0366666796875 10.0033333359376  L 2.00333334375 10.0033333359376  Z " fill-rule="nonzero" fill="#666666" stroke="none" transform="matrix(1 0 0 1 72 369 )" />
  </g>
</svg>