<?xml version="1.0" encoding="utf-8"?>
<svg version="1.1" xmlns:xlink="http://www.w3.org/1999/xlink" width="12px" height="12px" xmlns="http://www.w3.org/2000/svg">
  <g transform="matrix(1 0 0 1 -60 -381 )">
    <path d="M 5.9866666640625 0.670000007812462  C 2.630000015625 0.670000007812462  -0.00333332812500231 3.75000001171878  0.75 7.23666666796879  C 1.143333328125 9.04999999218751  2.97333331640625 10.880000015625  4.78666667578125 11.27333334375  C 8.1933333515625 12.0100000078126  11.21333334375 9.51000001171877  11.3466666914062 6.26333333203121  L 11.3533333710938 6.26333333203121  L 11.3533333359375 2.00333334375  L 11.3533333359375 0.896666660156257  L 11.3533333359375 0.670000007812462  L 5.9866666640625 0.670000007812462  Z M 10.02 2.00333334375  L 10.02 6.03666667968747  C 10.02 8.28333333984375  8.18333333203125 10.1000000039062  5.9299999921875 10.070000015625  C 3.75666666796875 10.0400000273437  1.98333331640625 8.26666667578127  1.953333328125 6.09333335156248  C 1.92333333984375 3.84000001171876  3.74000000390625 2.00333334375  5.9866666640625 2.00333334375  L 10.02 2.00333334375  Z " fill-rule="nonzero" fill="#666666" stroke="none" transform="matrix(1 0 0 1 60 381 )" />
  </g>
</svg>