<?xml version="1.0" encoding="utf-8"?>
<svg version="1.1" xmlns:xlink="http://www.w3.org/1999/xlink" width="12px" height="12px" xmlns="http://www.w3.org/2000/svg">
  <g transform="matrix(1 0 0 1 -72 -381 )">
    <path d="M 11.2733333789062 7.23666666796879  C 12.026666671875 3.75000001171878  9.38999998828125 0.670000007812462  6.0366666796875 0.670000007812462  L 0.67000000781249 0.670000007812462  L 0.67000000781249 0.896666660156257  L 0.67000000781249 2.00333334375  L 0.67000000781249 6.26333333203121  L 0.676666687499988 6.26333333203121  C 0.813333339843751 9.51000001171877  3.83000002734374 12.0100000078126  7.236666703125 11.27333334375  C 9.05000002734376 10.880000015625  10.8800000507812 9.05000002734374  11.2733333789062 7.23666666796879  Z M 6.03666664453125 2.00333334375  C 8.28333333984375 2.00333334375  10.1000000039063 3.84000001171876  10.070000015625 6.09333331640624  C 10.0399999921875 8.26666667578127  8.26666667578125 10.0399999921875  6.09333331640626 10.070000015625  C 3.8399999765625 10.1000000039062  2.00333330859375 8.28333333984375  2.00333330859375 6.03666667968747  L 2.00333330859375 2.00333334375  L 6.03666664453125 2.00333334375  Z " fill-rule="nonzero" fill="#666666" stroke="none" transform="matrix(1 0 0 1 72 381 )" />
  </g>
</svg>