<?xml version="1.0" encoding="utf-8"?>
<svg version="1.1" xmlns:xlink="http://www.w3.org/1999/xlink" width="28px" height="24px" xmlns="http://www.w3.org/2000/svg">
  <g transform="matrix(1 0 0 1 -50 -456 )">
    <path d="M 22.3669222167969 19.8520962890625  C 22.1890828027344 19.8520962890625  22.0160701074219 19.760298515625  21.9198653222656 19.5957401074219  C 21.7755731445313 19.3490373632813  21.8586168359375 19.0323620800781  22.1053795507813 18.8880998730469  C 23.2891569628906 18.1960490917969  24.281723984375 17.2049510449219  24.9753337109375 16.0219831054688  C 25.6895094921875 14.8039988964844  26.0670135546875 13.4091645996094  26.0670135546875 11.988607734375  C 26.0670135546875 10.5801926367188  25.695595390625 9.19588119140625  24.992781875 7.98524200195313  C 24.3103245898437 6.80994884765625  23.3325375195313 5.82055965820313  22.1649791210938 5.12434168945313  C 21.9195654980469 4.97813083007813  21.8392499609375 4.66052616210938  21.9855807617188 4.4151125390625  C 22.1318515917969 4.16981885742188  22.4494562597656 4.08935340820313  22.6948398828125 4.23574415039063  C 24.0130161523437 5.02193112304688  25.1170476171875 6.138853828125  25.8874952539062 7.4657841796875  C 26.6817167773437 8.83411646484375  27.1016120703125 10.3979461816406  27.1016120703125 11.9886077050781  C 27.1016120703125 13.5929699414063  26.6750013183594 15.1687915429688  25.8678285839844 16.5452782910156  C 25.0846096191406 17.8809027246094  23.9641192871094 18.9999240527344  22.6275055273438 19.7812842773438  C 22.5455111328125 19.8293117285156  22.4556920410156 19.8520962890625  22.3669222167969 19.8520962890625  Z M 19.6365534277344 16.5002188476562  C 19.4587140136719 16.5002188476562  19.2857013183594 16.408541015625  19.1894965332031 16.243982578125  C 19.0452043554688 15.9973398046875  19.128248046875 15.6804246679687  19.3749507910156 15.53634234375  C 19.9823389941406 15.1812930761719  20.4915137597656 14.6727778417969  20.8473425 14.0658393457031  C 21.2136641210937 13.4412428320312  21.4071829296875 12.7258978125  21.4071829296875 11.997211875  C 21.4071829296875 11.2747916894531  21.2167520410156 10.5648730078125  20.8562464648437 9.94405391601562  C 20.5062637402344 9.3411326953125  20.00458390625 8.833486875  19.4056199902344 8.4762491015625  C 19.1601464257812 8.3300082421875  19.0799508007813 8.01243357421875  19.2262216308594 7.76704995117187  C 19.3726123730469 7.52172626953125  19.6901570703125 7.44141073242187  19.93542078125 7.58777150390625  C 20.6850325390625 8.03473845703125  21.3128968554687 8.670007734375  21.75095984375 9.42459612304688  C 22.2028134863281 10.2029583984375  22.4417215039063 11.0926651757812  22.4417215039063 11.997241875  C 22.4417215039063 12.9098231542969  22.1990060644531 13.8060055371094  21.7397774316406 14.5891645605469  C 21.2945193066406 15.3487595507812  20.6573013476562 15.9850481542969  19.8971967089844 16.4295268066406  C 19.8150823730469 16.4773743457031  19.7251433398438 16.5002188476562  19.6365534277344 16.5002188476562  Z M 15.6091440136719 23.5469711425781  C 14.6729087890625 23.5469711425781  13.7420399023438 22.9109823339844  13.6105190820312 22.8177455566406  L 12.6144744042969 22.1229366503906  C 12.3802432226562 21.959577421875  12.3227122167969 21.6372059765625  12.4860714746094 21.4027649414063  C 12.6495806152344 21.1684138183594  12.9719520605469 21.1110327246094  13.206333125 21.2743620117188  L 14.2082238476562 21.9731582226563  C 14.4706658984375 22.1585525390625  15.3362090820312 22.6505489648438  15.8421160742187 22.4783756835938  C 16.0242725585937 22.4163177539063  16.1966556933594 22.357797421875  16 21.4029747949219  L 16 2.6213687109375  C 16.1640377832031 1.72434688476562  15.9724376855469 1.6375557421875  15.7510078027344 1.53718379882812  C 15.2783482519531 1.32306896484375  14.4755225878906 1.82951560546875  14.2316379394531 2.02393376953125  L 14.2182969921875 2.03424676757812  L 8.05036885742188 6.65177610351562  C 6.66293952148437 7.78102048828125  4.7724512890625 7.7337425390625  4.55935575195312 7.72435889648438  C 3.24585631835938 7.7302948828125  2.13429995117187 8.72028366210938  1.96884212890625 10.0329137109375  L 1.93301641601562 10.3885325976563  L 1.93301641601562 13.6260975292969  L 1.96884212890625 13.9819562695313  C 2.13474965820313 15.2974043847656  3.25086291992187 16.2890720507813  4.5681398046875 16.2904810839844  C 4.5862775 16.2901812890625  4.60441522460938 16.2901812890625  4.6224330078125 16.2901812890625  C 6.40865196289062 16.2901812890625  7.9033485546875 17.2700669238281  7.96669560546875 17.3121583886719  C 8.06293036132812 17.3765847070312  10.2971655371094 18.8938560058594  11.4665527050781 21.4253396484375  C 11.5864114355469 21.6846038671875  11.4732381640625 21.9921353613281  11.2138540332031 22.1118142089844  C 10.95455984375 22.2315230566406  10.6472082324219 22.1185296679688  10.5273494726562 21.8591755078125  C 9.49541911132812 19.6250602441406  7.46111837890625 18.2195831542969  7.39351419921875 18.1734144433594  C 7.34476724609375 18.1417858886719  6.04020174804687 17.3077513769531  4.57737353515625 17.3248697460938  L 4.57128766601562 17.3249896582031  C 2.72957635742187 17.3249896582031  1.16910435546875 15.94013859375  0.941528632812499 14.1036437402344  L 0.940059628906249 14.0917118261719  L 0.898387871093749 13.6781122558594  L 0.898387871093749 10.3365778125  L 0.941498632812499 9.91101635742188  C 1.16904435546875 8.07464141601563  2.729546328125 6.68976038085938  4.57125766601562 6.68976038085938  L 4.60000818359375 6.69062979492188  C 4.6154776953125 6.69128935546875  6.27880994140625 6.76527916992188  7.403947109375 5.84394383789063  L 7.42166509765625 5.83018315429688  L 13.5927111523437 1.21016551757813  C 13.6502721289062 1.16507607421875  13.9686262695312 0.92137130859375  14.3902304199219 0.72536419921875  C 15.0605459375 0.41372548828125  15.6787567871094 0.368576103515625  16.1780083203125 0.594892646484375  C 16.4313665527344 0.709654833984375  16.6944081933594 0.8611121484375  16.9008482421875 1.18902981445313  C 17.1042003710938 1.51197084960937  17.21557484375 1.9527919921875  17.2514005566406 2.57660903320313  L 17 2.60619896484375  L 17 21.4140972070313  L 17.2520900878906 21.4196134570312  C 17.2346419238281 22.2344609765625  17.1356190429687 23.1311830078125  16.1752801660156 23.4577516113281  C 15.9907252929687 23.5206190136719  15.7998446972656 23.5469711425781  15.6091440136719 23.5469711425781  Z " fill-rule="nonzero" fill="#666666" stroke="none" transform="matrix(1 0 0 1 50 456 )" />
  </g>
</svg>