<?xml version="1.0" encoding="utf-8"?>
<svg version="1.1" xmlns:xlink="http://www.w3.org/1999/xlink" width="82px" height="84px" xmlns="http://www.w3.org/2000/svg">
  <g transform="matrix(1 0 0 1 -179 -189 )">
    <path d="M 34.5594921875 83.2630233433735  C 36.9641796875 83.2630233433735  39.4743359375 82.4233396084337  42.01953125 80.808015813253  C 48.0875 76.8872383283133  48.78359375 70.4542884036144  48.17890625 66.4195368975904  L 77.5765625 51.4263196536145  C 78.0265625 55.8524491716868  77.9421875 60.4422458584337  76.9859375 61.7444672439759  C 75.10859375 64.3417940512048  60.096875 72.2335165662651  50.02109375 76.9726298945783  C 48.9875 77.4707473644578  48.5234375 78.723157003012  49.00859375 79.769203689759  C 49.5079296875 80.815250376506  50.73828125 81.2849039909639  51.771875 80.765438629518  C 55.96953125 78.8014326054217  77.1125 68.6327202560241  80.3328125 64.2564024849398  C 83.12421875 60.4066660391566  81.6265625 49.9390832078313  81.31015625 47.8895670180723  C 81.2046875 47.2064344879518  80.7758984375 46.6585052710843  80.17109375 46.3454028614458  C 79.6014453125 46.0394164156626  78.90546875 46.0394164156626  78.3076953125 46.3454028614458  L 44.8670703125 63.3953708584337  C 43.9741015625 63.8579085090361  43.5241015625 64.9039551957831  43.8264453125 65.8930741716867  C 43.9037890625 66.1919446536144  45.9006640625 73.3363723644578  39.7975390625 77.3070801957831  C 37.1537890625 78.9722157379518  34.7912890625 79.4703332078313  32.5764453125 78.7943166415662  C 28.0483203125 77.3995877259036  25.0319140625 71.3225545933735  23.9421875 68.7821554969879  C 18.89375 57.0693975903614  7.72109375000002 23.6242488704819  4.76796875000002 14.7791057981927  L 46.21015625 4.87368411144578  L 61.90390625 47.0215380271084  C 62.2765625 48.1173964608434  63.5 48.6368618222891  64.5828125 48.2525997740964  C 65.63046875 47.8327579066265  66.171875 46.6230440512048  65.75703125 45.5556494728916  L 49.4375 1.67150037650603  C 49.0578125 0.689497364457822  48.0453125 0.141568147590363  47.01171875 0.376513554216871  L 1.61796875000002 11.178546686747  C 1.04832031250001 11.3493298192771  0.563281250000017 11.7264759036145  0.282031250000017 12.2174774096385  C -0.00624999999999432 12.7439401355422  -0.0695312499999829 13.356031626506  0.11328125 13.9181927710843  C 0.696875000000006 15.6473719879518  14.2953125 56.8061069277108  20.1453125 70.461641566265  C 21.7766796875 74.275798192771  25.4329296875 80.9363403614458  31.38125 82.7864909638554  C 32.41484375 83.1138253012048  33.490625 83.2633791415662  34.559375 83.2632605421687  Z M 38.58828125 15.8747270331325  C 38.58828125 17.5610918674699  39.95234375 18.8990116716868  41.61875 18.8990116716868  C 43.2569140625 18.8990116716868  44.6140625 17.5613290662651  44.6140625 15.8747270331325  C 44.6140625 14.1883621987952  43.2641796875 12.8433264307229  41.61875 12.8433264307229  C 39.959375 12.8433264307229  38.58828125 14.1882435993976  38.58828125 15.8747270331325  Z M 15.56796875 25.8868881777108  C 15.7508984375 25.8868881777108  15.9828125 25.8513083584337  16.165625 25.8014966114458  L 35.49453125 20.1584186746988  C 36.5984375 19.8524322289157  37.21015625 18.6782981927711  36.9078125 17.5753237951807  C 36.5984375 16.4510015060241  35.45234375 15.8176807228916  34.35546875 16.145015060241  L 15.00546875 21.7879743975903  C 13.89453125 22.1153087349397  13.26171875 23.2680948795181  13.58515625 24.3781852409638  C 13.85234375 25.3103765060241  14.68203125 25.8867695783132  15.56796875 25.8867695783132  Z M 43.43984375 28.6551167168675  C 43.43984375 30.3414815512048  44.76875 31.700749246988  46.44921875 31.700749246988  C 48.1015625 31.700749246988  49.45859375 30.3416001506024  49.45859375 28.6551167168675  C 49.45859375 26.9898625753012  48.10859375 25.6166001506024  46.44921875 25.6166001506024  C 44.76875 25.6166001506024  43.43984375 26.9899811746988  43.43984375 28.6551167168675  Z M 20.39140625 38.6956231174699  C 20.5743359375 38.6956231174699  20.78515625 38.681391189759  20.975 38.6102315512048  L 40.325 32.9743881777108  C 41.421875 32.6470538403615  42.0546875 31.5013836596385  41.73125 30.3770613704819  C 41.42890625 29.2669710090361  40.27578125 28.6051863704819  39.17890625 28.9325207078313  L 19.821875 34.596827936747  C 18.73203125 34.8956984186747  18.08515625 36.0698324548193  18.39453125 37.1870387801205  C 18.67578125 38.0836502259036  19.49140625 38.6956231174699  20.3912890625 38.6956231174699  Z M 48.26328125 41.4638516566265  C 48.26328125 43.1361031626506  49.5921875 44.5023682228916  51.25859375 44.5023682228916  C 52.93203125 44.5023682228916  54.29609375 43.1361031626506  54.29609375 41.4638516566265  C 54.29609375 39.7916001506024  52.9390625 38.418219126506  51.25859375 38.418219126506  C 49.59921875 38.4111031626506  48.26328125 39.7916001506024  48.26328125 41.4639702560241  Z M 23.24609375 49.9674284638554  C 23.50625 50.8926223644578  24.34296875 51.4902447289157  25.221875 51.4902447289157  C 25.4256640625 51.4902447289157  25.6227734375 51.461780873494  25.8125 51.3977371987952  L 45.15546875 45.7404273343373  C 46.23828125 45.4273249246988  46.88515625 44.2674228162651  46.56171875 43.1644484186747  C 46.23828125 42.0472420933735  45.10625 41.3996893825301  44.009375 41.7413742469879  L 24.65234375 47.3772176204819  C 23.5484375 47.7187838855421  22.9016796875 48.8573381024096  23.24609375 49.9674284638554  Z " fill-rule="nonzero" fill="#999999" stroke="none" transform="matrix(1 0 0 1 179 189 )" />
  </g>
</svg>