<?xml version="1.0" encoding="utf-8"?>
<svg version="1.1" xmlns:xlink="http://www.w3.org/1999/xlink" width="22px" height="22px" xmlns="http://www.w3.org/2000/svg">
  <g transform="matrix(1 0 0 1 -137 -730 )">
    <path d="M 7.260708875 18.5007559296875  C 6.4302032421875 18.5007559296875  5.7609608515625 19.1699983203125  5.7609608515625 20.000503953125  C 5.7609608515625 20.8310095859375  6.4302032421875 21.5002519765625  7.260708875 21.5002519765625  C 8.0912145078125 21.5002519765625  8.7604568984375 20.8310095859375  8.7604568984375 20.000503953125  C 8.760456921875 19.1699983203125  8.0912145078125 18.5007559296875  7.260708875 18.5007559296875  Z M 17.762976640625 18.5007559296875  C 16.9324710078125 18.5007559296875  16.2632286171875 19.1699983203125  16.2632286171875 20.000503953125  C 16.2632286171875 20.8310095859375  16.9324710078125 21.5002519765625  17.762976640625 21.5002519765625  C 18.5934822734375 21.5002519765625  19.2627246640625 20.8310095859375  19.2627246640625 20.000503953125  C 19.2627246875 19.1699983203125  18.5894506953125 18.5007559296875  17.762976640625 18.5007559296875  Z M 20.000503953125 17.00100790625  C 20.000503953125 17.416260734375  19.6658827578125 17.75088190625  19.2506299296875 17.75088190625  L 7.0671930078125 17.75088190625  C 5.9867293671875 17.75088190625  5.0352763203125 16.8961868046875  4.90626575 15.8036284296875  L 3.6322862421875 6.849487671875  L 2.9106332890625 2.664706859375  C 2.86628590625 2.297833015625  2.5316647109375 1.999496046875  2.20913825 1.999496046875  L 1.249622046875 1.999496046875  C 0.8343692421875 1.999496046875  0.4997480234375 1.6648748515625  0.4997480234375 1.2496220234375  C 0.4997480234375 0.8343691953125  0.83436921875 0.499748  1.249622046875 0.499748  L 2.205106671875 0.499748  C 3.297665046875 0.499748  4.261212828125 1.3544431015625  4.394255 2.4470014765625  L 5.115907953125 6.6156559296875  L 6.3939190390625 15.6101125390625  C 6.43423484375 15.9568284921875  6.7527297265625 16.2511338828125  7.0671930078125 16  L 19.2506299296875 16  C 19.665882734375 16.2511338828125  20.000503953125 16.585755078125  20.000503953125 17.00100790625  Z M 8.062993484375 14.7473542578125  C 8.042835546875 14.74735428125  8.0226776328125 14.751385859375  8.0065513203125 14.751385859375  C 7.615487984375 14.751385859375  7.2889299453125 14.453048890625  7.2607088984375 14.0579539765625  C 7.22845625 13.64673275  7.5388879765625 13.283890484375  7.95414078125 13.2556694140625  L 18.1298505078125 12.505795390625  C 18.5047875078125 12.5017638125  18.8192508125 12.21149  18.8595666171875 11.8768688046875  L 20.0408197578125 5.11993953125  C 20.069040828125 4.8699815234375  20.000503953125 4.59180246875  19.85133546875 4.4224760703125  C 19.7545775234375 4.313623390625  19.633630109375 4.25718125  19.49252478125 4.25718125  L 6.498740140625 4.25718125  C 6.0834873359375 4.25718125  5.7488661171875 3.9225600546875  5.7488661171875 3.5073072265625  C 5.7488661171875 3.0920543984375  6.087518890625 2.7493700703125  6.498740140625 3  L 19.484461625 3  C 20.05694609375 2.7493700703125  20.58508315625 2.98723334375  20.9680833359375 3.4186124609375  C 21.4075256328125 3.9144968984375  21.605073078125 4.60792878125  21.520409890625 5.3336133125  L 20.33915675 12.0945741640625  C 20.21014615625 13.146816734375  19.2627246875 14.0015118359375  18.1822610703125 14.0015118359375  L 8.062993484375 14.7473542578125  Z " fill-rule="nonzero" fill="#666666" stroke="none" transform="matrix(1 0 0 1 137 730 )" />
  </g>
</svg>