<?xml version="1.0" encoding="utf-8"?>
<svg version="1.1" xmlns:xlink="http://www.w3.org/1999/xlink" width="22px" height="22px" xmlns="http://www.w3.org/2000/svg">
  <g transform="matrix(1 0 0 1 -61 -730 )">
    <path d="M 18.5703125 10.14453125  L 20.0703125 10.14453125  C 20.328125 10.14453125  20.5390625 10.35546875  20.5390625 10.61328125  L 20.5390625 16.47265625  C 20.5390625 16.73046875  20.328125 16.94140625  20.0703125 16.94140625  L 18.5703125 16.94140625  C 18.3125 16.94140625  18.1015625 16.73046875  18.1015625 16.47265625  L 18.1015625 10.61328125  C 18.1015625 10.35546875  18.3125 10.14453125  18.5703125 10.14453125  Z M 21.4765625 10.61328125  C 21.4765625 9.8375  20.8484375 9.20703125  20.0703125 9.20703125  L 18.5703125 9.20703125  C 17.79453125 9.20703125  17.1640625 9.8375  17.1640625 10.61328125  L 17.1640625 16.47265625  C 17.1640625 17.2484375  17.79453125 17.87890625  18.5703125 17.87890625  L 20.0703125 17.87890625  C 20.84609375 17.87890625  21.4765625 17.2484375  21.4765625 16.47265625  L 21.4765625 10.61328125  Z M 1.859375 9.20703125  L 2.796875 9.20703125  L 2.796875 7.52890625  C 2.796875 6.70625  2.95859375 5.90703125  3.275 5.15703125  C 3.58203125 4.43046875  4.0203125 3.77890625  4.58046875 3.21875  C 5.140625 2.65859375  5.7921875 2.2203125  6.51875 1.91328125  C 7.26875 1.596875  8.06796875 1.43515625  8.890625 1.43515625  L 13.109375 1.43515625  C 13.93203125 1.43515625  14.73125 1.596875  15.48125 1.91328125  C 16.2078125 2.2203125  16.859375 2.65859375  17.41953125 3.21875  C 17.9796875 3.77890625  18.41796875 4.43046875  18.725 5.15703125  C 19.04140625 5.90703125  19.203125 6.70625  19.203125 7.52890625  L 19.203125 9.20703125  L 20.140625 9.20703125  L 20.140625 7.52890625  C 20.140625 3.6453125  16.99296875 0.497656249999999  13.109375 0.497656249999999  L 8.890625 0.497656249999999  C 5.00703125 0.497656249999999  1.859375 3.6453125  1.859375 7.52890625  L 1.859375 9.20703125  Z M 4.8359375 10.61328125  C 4.8359375 9.8375  4.20546875 9.20703125  3.4296875 9.20703125  L 1.9296875 9.20703125  C 1.15390625 9.20703125  0.5234375 9.8375  0.5234375 10.61328125  L 0.5234375 15.49765625  L 1.4609375 15.49765625  L 1.4609375 10.61328125  C 1.4609375 10.35546875  1.671875 10.14453125  1.9296875 10.14453125  L 3.4296875 10.14453125  C 3.6875 10.14453125  3.8984375 10.35546875  3.8984375 10.61328125  L 3.8984375 16.47265625  C 3.8984375 16.73046875  3.6875 16.94140625  3.4296875 16.94140625  L 2.6796875 16.94140625  L 2.6796875 17.87890625  L 3.4296875 17.87890625  C 4.20546875 17.87890625  4.8359375 17.2484375  4.8359375 16.47265625  L 4.8359375 10.61328125  Z M 11.85546875 20.1078125  L 11.85546875 19.1703125  L 3.8046875 19.1703125  C 2.51328125 19.1703125  1.4609375 18.11796875  1.4609375 16.8265625  L 1.4609375 13.15625  L 0.5234375 13.15625  L 0.5234375 16.8265625  C 0.5234375 18.63828125  1.99296875 20.1078125  3.8046875 20.1078125  L 11.85546875 20.1078125  Z M 13.015625 18.67109375  L 14.403125 18.67109375  C 14.590625 18.67109375  14.77109375 18.74609375  14.90703125 18.88203125  C 15.04296875 19.01796875  15.11796875 19.19609375  15.11796875 19.3859375  L 15.11796875 19.8359375  C 15.11796875 20.0234375  15.04296875 20.20390625  14.90703125 20.33984375  C 14.77109375 20.47578125  14.59296875 20.55078125  14.403125 20.55078125  L 13.015625 20.55078125  C 12.828125 20.55078125  12.64765625 20.47578125  12.51171875 20.33984375  C 12.37578125 20.20390625  12.30078125 20.02578125  12.30078125 19.8359375  L 12.30078125 19.3859375  C 12.30078125 19.1984375  12.37578125 19.01796875  12.51171875 18.88203125  C 12.64765625 18.74609375  12.82578125 18.67109375  13.015625 18.67109375  Z M 16.053125 19.38359375  C 16.053125 18.4765625  15.31015625 17.73359375  14.403125 17.73359375  L 13.015625 17.73359375  C 12.10859375 17.73359375  11.365625 18.4765625  11.365625 19.38359375  L 11.365625 19.83359375  C 11.365625 20.740625  12.10859375 21.48359375  13.015625 21.48359375  L 14.403125 21.48359375  C 15.31015625 21.48359375  16.053125 20.740625  16.053125 19.83359375  L 16.053125 19.38359375  Z " fill-rule="nonzero" fill="#666666" stroke="none" transform="matrix(1 0 0 1 61 730 )" />
  </g>
</svg>