<?xml version="1.0" encoding="utf-8"?>
<svg version="1.1" xmlns:xlink="http://www.w3.org/1999/xlink" width="145px" height="111px" xmlns="http://www.w3.org/2000/svg">
  <g transform="matrix(1 0 0 1 -115 -94 )">
    <path d="M 131.388153053977 0.528363579339484  L 131.388153053977 1  L 14.1736087757457 1  C 6.69621404474432 0.528363579339484  0.637278852982945 5.82244149445627  1 12.3508718721583  L 1 98.9927428127632  C 0.637278852982945 105.521048872562  6.69635500266335 110.815251105582  14.1736087757457 110  L 131.388294011896 110  C 138.865970658736 110.815251105582  144.924623934659 105.521173190465  145 98.9927428127632  L 145 12.3508718721583  C 144.92448297674 5.81423651283369  138.865547784979 0.528363579339484  131.388153053977 0.528363579339484  Z M 14.1589491521662 8.40750797718347  L 14.1592310680043 9  L 131.392804665305 9  C 133.886773126776 8.40750797718347  135.901766579368 10.1638713160298  136 12.3426668905358  L 136 58.7368652501091  C 128.63552681108 53.5263289660586  116.043473987926 46.50075129277  100.928838245739 46.50075129277  C 86.9979671075994 46.50075129277  73.2549928755327 55.9369774303543  59.9722462491122 65.0580576828893  C 49.7940977894176 72.0422374943548  39.268488059304 79.2748044767586  31.8849713023793 79.2748044767586  C 21.5238594637784 79.2748044767586  12.6607074307528 72.622056195684  10 70.07876052849  L 10 12.3427912084391  C 9.64998723810368 10.1720762976524  11.6697732599432 8.40750797718347  14.1589491521662 8.40750797718347  Z M 131.393227539063 102.928026044019  L 131.392945623224 103  L 14.1593720259233 103  C 11.6700551757812 102.928026044019  9.65041011186079 101.163333405647  10 98.9927428127632  L 10 80.2938383307027  C 15.0565691805753 83.6323956257705  22.8766326127486 87.1537002387958  31.8853941761363 87.1537002387958  C 42.3876048916903 87.1537002387958  53.6366106622869 79.4239859608055  65.5478367365057 71.2551808481037  C 77.6282123135654 62.9621821499327  90.1172248979048 54.3879763543332  100.929261119496 54.3879763543332  C 120.303927090732 54.3879763543332  135.676515824751 69.2918282001422  135.836362104936 69.4407610483824  L 136 69.3827045875075  L 136 98.9926184948598  C 135.906841064453 101.171414069366  133.887055042614 102.936231025641  131.393227539063 102.936231025641  L 131.393227539063 102.928026044019  Z M 45.6798180486506 55.7050002226612  C 55.6558328524503 55.7050002226612  63.7439982466265 48.6464783049789  63.7439982466265 39.9392523527709  C 63.7439982466265 31.2235727831335  55.6561147682884 24.1565972480219  45.6798180486506 24.1565972480219  C 35.708454856179 24.1565972480219  27.6204304199219 31.2235727831335  27.6204304199219 39.9392523527709  C 27.6204304199219 48.6463539870755  35.708454856179 55.7050002226612  45.6798180486506 55.7050002226612  Z M 45.7457863547585 32.0354930100591  C 50.7103242631392 32.0354930100591  54.7401702104048 35.5482196877518  54.7401702104048 39.8895251914219  C 54.7401702104048 44.230830695092  50.7103242631392 47.7435573727847  45.7457863547585 47.7435573727847  C 40.7765968350497 47.7435573727847  36.7514024991122 44.230830695092  36.7514024991122 39.8895251914219  C 36.7514024991122 35.5566733051811  40.7812484463778 32.0354930100591  45.7457863547585 32.0354930100591  Z " fill-rule="nonzero" fill="#ffffff" stroke="none" transform="matrix(1 0 0 1 115 94 )" />
  </g>
</svg>