<?xml version="1.0" encoding="utf-8"?>
<svg version="1.1" xmlns:xlink="http://www.w3.org/1999/xlink" width="11px" height="20px" xmlns="http://www.w3.org/2000/svg">
  <g transform="matrix(1 0 0 1 -340 -481 )">
    <path d="M 10.6962504921875 10.696801515625  C 10.7599919375 10.62999596875  10.793737390625 10.5482327734375  10.8372396171875 10.4717511015625  C 10.849254125 10.44848809375  10.8687273125 10.42901490625  10.87925009375 10.404985890625  C 11.085512703125 9.975970984375  11.0179814375 9.45100121875  10.6527482890625 9.105966953125  L 2.3734981953125 1.275245265625  C 1.9219863125 0.8484881171875  1.2102674375 0.8687273359375  0.7827442578125 1.3195135  C 0.355987109375 1.7710253828125  0.375500609375001 2.4827442578125  0.827012492187501 2.9102674375  L 8.255772078125 9.9377503046875  L 0.8562424296875 17.06949334375  C 0.4092460625 17.5007256953125  0.3957398046875 18.2124848828125  0.827012492187501 18.66024728125  C 1.0475070546875 18.8897325625  1.3422658203125 19.004515515625  1.6370245859375 19.004515515625  C 1.9182771171875 19.004515515625  2.199529625 18.899529625  2.4177664296875 18.68951753125  L 10.6220266015625 10.7822738828125  C 10.6377906171875 10.7665098671875  10.643757546875 10.744778921875  10.6595215625 10.7282892109375  C 10.6715360703125 10.717040734375  10.684276296875 10.7087757109375  10.6962504921875 10.696801515625  Z " fill-rule="nonzero" fill="#666666" stroke="none" transform="matrix(1 0 0 1 340 481 )" />
  </g>
</svg>