<?xml version="1.0" encoding="utf-8"?>
<svg version="1.1" xmlns:xlink="http://www.w3.org/1999/xlink" width="15px" height="15px" xmlns="http://www.w3.org/2000/svg">
  <g>
    <path d="M 14.0625 7.5  C 14.0625 11.1187424414062  11.1187424414062 14.0625  7.5 14.0625  C 3.88125755859375 14.0625  0.9375 11.1187424414062  0.9375 7.5  C 0.9375 3.88125755859375  3.88125755859375 0.9375  7.5 0.9375  C 11.1187424414062 0.9375  14.0625 3.88125755859375  14.0625 7.5  Z M 13.1207918994141 7.5  C 13.1207918994141 4.400618203125  10.5989030419922 1.87920810058594  7.5 1.87920810058594  C 4.400618203125 1.87920810058594  1.87920810058594 4.40061818847656  1.87920810058594 7.5  C 1.87920810058594 10.5989030419922  4.40061818847656 13.1207918994141  7.5 13.1207918994141  C 10.5989030419922 13.1207918994141  13.1207918994141 10.5989282373047  13.1207918994141 7.5  Z M 10.6523988867187 6.42277583496094  C 10.8346828417969 6.2381232421875  10.8328181689453 5.94141413085937  10.6490727099609 5.75953333007813  C 10.4653272509766 5.57719896972656  10.1681393701172 5.57906362792969  9.98625856933594 5.76328787109375  L 6.56907673828125 9.21796466308594  L 5.0564272265625 7.66358689453125  C 4.87547876953125 7.47749799316406  4.57876965820312 7.47422222167969  4.3936130859375 7.65421315429687  C 4.20797775878906 7.83468285644531  4.20376965820312 8.13187072265625  4.38423934570312 8.31702729492187  L 6.23018579589844 10.214050546875  C 6.231118125 10.2154616455078  6.23300799316406 10.2154616455078  6.23394033691406 10.2168727441406  C 6.23487266601562 10.2178050732422  6.23535143554687 10.2196949414063  6.23628376464844 10.2206272851563  C 6.26581608398437 10.2496808349609  6.30237871582031 10.2674959863281  6.33707667480469 10.2872009912109  C 6.35534538574219 10.2970535009766  6.369884765625 10.3134575390625  6.38863224609375 10.3209414111328  C 6.44535345703125 10.3443757617187  6.50582919433594 10.3560929296875  6.56582617675781 10.3560929296875  C 6.62536958496093 10.3560929296875  6.68488779785156 10.3443757617187  6.74113023925781 10.3218737402344  C 6.75939895019531 10.3143646728516  6.77348475585937 10.29937171875  6.79082113769531 10.2899979785156  C 6.82597265625 10.2703181689453  6.86253528808593 10.2529565917969  6.89254637695312 10.2234242724609  C 6.89347870605468 10.2224919433594  6.89395747558594 10.2206020751953  6.89536857421875 10.2196697314453  C 6.89630090332031 10.2182586328125  6.89771200195312 10.2178050585938  6.89912311523437 10.2168475341797  L 10.6523988867187 6.42277583496094  Z " fill-rule="nonzero" fill="#fd994b" stroke="none" />
  </g>
</svg>