<?xml version="1.0" encoding="utf-8"?>
<svg version="1.1" xmlns:xlink="http://www.w3.org/1999/xlink" width="40px" height="40px" xmlns="http://www.w3.org/2000/svg">
  <g transform="matrix(1 0 0 1 -102 -849 )">
    <path d="M 19.9999998509884 0  C 8.95430493666936 0  0 8.95430500338421  0 20  C 0 31.0456949966158  8.95430493666936 40  19.9999998509884 40  C 31.0456947653074 40  39.9999997019768 31.0456949966158  39.9999997019768 20  C 39.9999997019768 8.95430500338421  31.0456947653074 0  19.9999998509884 0  Z M 19.8720002397696 7.00800000000004  C 23.2004363072844 7.00800000000004  25.8986668615341 9.70623057435307  25.8986668615341 13.0346666666667  C 25.8986668615341 16.3631027589802  23.2004363072844 19.0613333333333  19.8720002397696 19.0613333333333  C 16.5435641722548 19.0613333333333  13.8453336180051 16.3631027589802  13.8453336180051 13.0346666666667  C 13.8453336180051 9.70623057435307  16.5435641722548 7.00800000000004  19.8720002397696 7.00800000000004  Z M 30.6640000695586 30.928  C 23.9520001195669 33.5893333333333  16.8773335056106 33.7813333333334  9.33333356181781 30.9226666666666  C 9.27200022894142 24.7466666666667  12.2906668731173 20.912  16.0746668449243 19.4053333333334  L 19.9600001493096 25.8879999999999  L 24.0533334521453 19.5546666666667  C 27.7040000916124 21.1546666666667  30.6053334033291 24.944  30.6640000695586 30.928  Z " fill-rule="nonzero" fill="#cccccc" stroke="none" transform="matrix(1 0 0 1 102 849 )" />
  </g>
</svg>