<?xml version="1.0" encoding="utf-8"?>
<svg version="1.1" xmlns:xlink="http://www.w3.org/1999/xlink" width="32px" height="32px" xmlns="http://www.w3.org/2000/svg">
  <g transform="matrix(1 0 0 1 -241 -853 )">
    <path d="M 20.8 15.8  C 20.9 15.7  20.8 15.4  20.5 15.1  L 12.8 7.4  C 12.4 7  11.8 7  11.4 7.4  C 11 7.8  11 8.4  11.4 8.8  L 18.5 15.9  L 11.4 23  C 11 23.4  11 24  11.4 24.4  C 11.8 24.8  12.4 24.8  12.8 24.4  L 20.5 16.7  C 20.7 16.5  20.8 16.1  20.8 15.8  Z M 32 16  C 32 7.2  24.8 0  16 0  C 7.2 0  0 7.2  0 16  C 0 24.8  7.2 32  16 32  C 24.8 32  32 24.8  32 16  Z M 30 16  C 30 23.7  23.7 30  16 30  C 8.3 30  2 23.7  2 16  C 2 8.3  8.3 2  16 2  C 23.7 2  30 8.3  30 16  Z " fill-rule="nonzero" fill="#cccccc" stroke="none" transform="matrix(1 0 0 1 241 853 )" />
  </g>
</svg>