<?xml version="1.0" encoding="utf-8"?>
<svg version="1.1" xmlns:xlink="http://www.w3.org/1999/xlink" width="46px" height="32px" xmlns="http://www.w3.org/2000/svg">
  <g transform="matrix(1 0 0 1 -47 -948 )">
    <path d="M 41.6817588998824 0.152321031881684  L 4.4964551978228 0.152321031881684  C 2.12431617971197 0.152321031881684  0.202171222325603 1.67854169209545  1 3.56061171089254  L 1 28.5384483784543  C 0.202171222325603 30.4204825578557  2.12436089739663 31.9467390574652  4.4964551978228 32  L 41.6818036175671 32  C 44.0540320710472 31.9467390574652  45.9760875930642 30.4205183972513  46 28.5384483784543  L 46 3.56061171089254  C 45.9760428753796 1.6761762919881  44.0538979179933 0.152321031881684  41.6817588998824 0.152321031881684  Z M 4.49180455861824 2.42378608351237  L 4.49189399398756 3  L 41.6832345834762 3  C 42.4744245781495 2.42378608351237  43.1136638803512 2.9301250640807  43 3.55824631078508  L 43 16.9331503423738  C 40.8085119538597 15.4310137559809  36.8137917478938 13.4056219943121  32.0188038572688 13.4056219943121  C 27.5993550824109 13.4056219943121  23.2395149812035 16.1259754754175  19.025678120408 18.7554760887609  C 15.7967482642291 20.7689333317059  12.4575893153654 22.8539976869935  10.1152322752375 22.8539976869935  C 6.82825886437109 22.8539976869935  4.01650028837673 20.9360882726296  3 20.2028859181232  L 3 3.55828215018062  C 3.06137526174325 2.93249046418805  3.70213496522337 2.42378608351237  4.49180455861824 2.42378608351237  Z M 41.6832793011608 29.6729444451225  L 4.49193871167222 29.6729444451225  C 3.70222440059268 29.6729444451225  3.06150941479723 29.1642042250512  3.06150941479723 28.5384483784543  L 3.06150941479723 23.1477732124548  C 4.77656677452734 24.1102401804023  7.25741448404438 25.1253910598331  10.1153664282915 25.1253910598331  C 13.4471022415017 25.1253910598331  17.0157523480358 22.8970049616737  20.7944861370984 20.5420341183723  C 24.6268811477518 18.1512597188995  28.5889127262319 15.6794166066546  32.0189380103228 15.6794166066546  C 38.1653837667149 15.6794166066546  43.042205020266 19.9760225441851  43.0929148746694 20.0189581400742  L 43.1152737169989 20.0022211423445  L 43.1152737169989 28.5384125390586  C 43.1152737169989 29.1665337857631  42.4745140135188 29.67530984523  41.6833687365302 29.67530984523  L 41.6833687365302 29.6729444451225  Z M 14.4915284843995 16.0590991632897  C 17.6563331807773 16.0590991632897  20.222233926516 14.0242099617957  20.222233926516 11.5140186962943  C 20.222233926516 9.00139035189432  17.6564226161466 6.96406407150175  14.4915284843995 6.96406407150175  C 11.3281994716154 6.96406407150175  8.76234344356141 9.00139035189432  8.76234344356141 11.5140186962943  C 8.76234344356141 14.0241741224002  11.3281994716154 16.0590991632897  14.4915284843995 16.0590991632897  Z M 14.51245636082 9.23545744434136  C 16.0874132145132 9.23545744434136  17.3658471012319 10.248135405478  17.3658471012319 11.4996829380676  C 17.3658471012319 12.7512304706572  16.0874132145132 13.7639084317938  14.51245636082 13.7639084317938  C 12.936023823533 13.7639084317938  11.659065620408 12.7512304706572  11.659065620408 11.4996829380676  C 11.659065620408 10.2505724843766  12.9374995071267 9.23545744434136  14.51245636082 9.23545744434136  Z " fill-rule="nonzero" fill="#ffffff" stroke="none" transform="matrix(1 0 0 1 47 948 )" />
  </g>
</svg>