<?xml version="1.0" encoding="utf-8"?>
<svg version="1.1" xmlns:xlink="http://www.w3.org/1999/xlink" width="102px" height="73px" xmlns="http://www.w3.org/2000/svg">
  <g transform="matrix(1 0 0 1 -137 -191 )">
    <path d="M 92.4247697345219 0.347482353980041  L 92.4247697345219 1  L 9.97040065604182 1  C 4.71044022457875 0.347482353980041  0.448292710374204 3.82917323509287  1 8.12264546547351  L 1 65.1033353633487  C 0.448292710374204 69.3967258351083  4.71053938118388 72.8784984748423  9.97040065604182 72  L 92.4248688911271 72  C 97.6850276358004 72.8784984748423  101.946976836795 69.3968075937294  102 65.1033353633487  L 102 8.12264546547351  C 101.94687768019 3.82377716609784  97.6847301659849 0.347482353980041  92.4247697345219 0.347482353980041  Z M 9.96008836911003 5.52926200301255  L 9.96028668232023 6  L 92.4280419024907 6  C 94.1824197167663 5.52926200301255  95.5998633868657 6.68434780243399  95 8.11724939647846  L 95 38.6287492185402  C 90.4884395498628 35.2020001308313  81.6305817018515 30.5815751745244  70.9982172487265 30.5815751745244  C 61.1985699653458 30.5815751745244  51.5310984365816 36.787381553296  42.1873732235134 42.7859298274857  C 35.0275722380731 47.3791291629541  27.6233502210276 52.1356822234538  22.4294280885702 52.1356822234538  C 15.1409218296924 52.1356822234538  8.90615281335718 47.7604513719363  7 46.0878335007186  L 7 8.11733115509961  C 6.78826688473501 6.68974387142902  8.20908187940827 5.52926200301255  9.96008836911003 5.52926200301255  Z M 92.4283393723061 67.6914045154358  L 92.4281410590958 67  L 9.96038583892533 67  C 8.20928019261851 67.6914045154358  6.78856435455035 66.5308408883982  7 65.1033353633487  L 7 52.8058576409126  C 10.5915176304736 55.0014854115427  16.092527768968 57.3172983552441  22.4297255583855 57.3172983552441  C 29.8174875789822 57.3172983552441  37.7305812934708 52.233792568818  46.1095127387833 46.8615153325367  C 54.6074321102322 41.4075612337395  63.3928064799055 35.7686691339308  70.9985147185418 35.7686691339308  C 84.6275900914112 35.7686691339308  95.4414111318941 45.5703014289223  95.553854722093 45.6682482570443  L 95 45.6300669809734  L 95 65.1032536047276  C 95.6034330246498 66.5361551987721  94.1826180299765 67.6968005844308  92.4283393723061 67.6968005844308  L 92.4283393723061 67.6914045154358  Z M 32.1333892480163 36.6348199662546  C 39.1509996617237 36.6348199662546  44.8406056631441 31.9927289753465  44.8406056631441 26.2663551509214  C 44.8406056631441 20.534421740259  39.1511979749339 15.8867711631135  32.1333892480163 15.8867711631135  C 25.1190510022776 15.8867711631135  19.4295441574623 20.534421740259  19.4295441574623 26.2663551509214  C 19.4295441574623 31.9926472167253  25.1190510022776 36.6348199662546  32.1333892480163 36.6348199662546  Z M 32.1797945392094 21.0683872949038  C 35.6720901713117 21.0683872949038  38.5068783549054 23.3785588937467  38.5068783549054 26.2336517024667  C 38.5068783549054 29.0887445111867  35.6720901713117 31.3989161100295  32.1797945392094 31.3989161100295  C 28.6842267391384 31.3989161100295  25.8527107235134 29.0887445111867  25.8527107235134 26.2336517024667  C 25.8527107235134 23.384118479984  28.6874989071071 21.0683872949038  32.1797945392094 21.0683872949038  Z " fill-rule="nonzero" fill="#ffffff" stroke="none" transform="matrix(1 0 0 1 137 191 )" />
  </g>
</svg>