<?xml version="1.0" encoding="utf-8"?>
<svg version="1.1" xmlns:xlink="http://www.w3.org/1999/xlink" width="16px" height="18px" xmlns="http://www.w3.org/2000/svg">
  <g transform="matrix(1 0 0 1 -119 -1505 )">
    <path d="M 0.718976562500002 7.7197265625  C 0.426476562500002 8.013  0.426476562500002 8.487  0.719703125 8.7802265625  C 1.0129765625 9.0735  1.4869296875 9.0735  1.780203125 8.7802265625  L 7.249953125 3.3104765625  L 7.249953125 16.4999765625  C 7.249953125 16.914  7.585953125 17.25  7.9999765625 17.25  C 8.414 17.25  8.75 16.914  8.75 16.4999765625  L 8.75 3.3104765625  L 14.21975 8.7802265625  C 14.5130234375 9.0735  14.9869765625 9.0735  15.28025 8.7802265625  C 15.5735234375 8.486953125  15.5735234375 8.013  15.28025 7.7197265625  L 8.5302265625 0.970453124999999  C 8.46125 0.900703124999999  8.378 0.845953124999999  8.28575 0.807703124999999  C 8.195 0.769453124999999  8.0975 0.749976562499999  7.9999765625 0.749976562499999  C 7.9025 0.749976562499999  7.804953125 0.769499999999999  7.7134765625 0.807703124999999  C 7.6212265625 0.845953124999999  7.53875 0.900703124999999  7.469 0.970453124999999  L 0.718976562500002 7.7197265625  Z " fill-rule="nonzero" fill="#272636" stroke="none" transform="matrix(1 0 0 1 119 1505 )" />
  </g>
</svg>