<?xml version="1.0" encoding="utf-8"?>
<svg version="1.1" xmlns:xlink="http://www.w3.org/1999/xlink" width="77px" height="53px" xmlns="http://www.w3.org/2000/svg">
  <g transform="matrix(1 0 0 1 -150 -33 )">
    <path d="M 69.293751953125 0.641136794845774  L 69.293751953125 1  L 7.47512243652343 1  C 3.53156494140626 0.641136794845774  0.336099121093753 3.1314908304586  1 6.2024888773336  L 1 46.9591487545657  C 0.336099121093753 50.0300883218344  3.53163928222656 52.5205008370536  7.47512243652343 52  L 69.2938262939453 52  C 73.2375324707031 52.5205008370536  76.432849609375 50.0301468014407  76 46.9591487545657  L 76 6.2024888773336  C 76.4327752685547 3.12763117644073  73.2373094482422 0.641136794845774  69.293751953125 0.641136794845774  Z M 7.46739099121095 4.34751576450893  L 7.46753967285156 5  L 69.2962052001953 5  C 70.6115173339844 4.34751576450893  71.6742193603516 5.17371564275567  71 6.19862922331577  L 71 28.0226335100447  C 67.8420244140625 25.5715777698864  61.2010102539063 22.266719777293  53.2295927734375 22.266719777293  C 45.8824895019531 22.266719777293  38.6344825439453 26.705555816254  31.6291983642578 30.9961460531656  C 26.2612707519531 34.2815303368506  20.7100930175781 37.6837568739854  16.816046508789 37.6837568739854  C 11.3516245117187 37.6837568739854  6.67722241210939 34.5542792207792  5 33.3579034344562  L 5 6.19868770292205  C 5.08937683105469 5.17757529677353  6.15460644531248 4.34751576450893  7.46739099121095 4.34751576450893  Z M 69.2964282226563 48.8103206929789  L 69.2962795410156 48  L 7.46761401367186 48  C 6.15475512695312 48.8103206929789  5.08959985351561 47.9802026811079  5.08959985351561 46.9591487545657  L 5.08959985351561 38.163114207082  C 7.94079333496094 39.7335840351055  12.0650733642578 41.3900188844359  16.81626953125 41.3900188844359  C 22.3551066894531 41.3900188844359  28.2878015136719 37.7539324015828  34.5697495117188 33.911295949168  C 40.9409064941406 30.0102383700284  47.5275775146484 25.9768999213677  53.2298157958984 25.9768999213677  C 63.4479615478515 25.9768999213677  71.5554227294922 32.9877275263799  71.6397252197266 33.0577860947646  L 71 33.0304761186079  L 71 46.9590902749594  C 71.6768956298828 47.9840038555195  70.611666015625 48.8141803469968  69.2964282226563 48.8141803469968  L 69.2964282226563 48.8103206929789  Z M 24.0914108886719 26.5964328708401  C 29.3527337646484 26.5964328708401  33.6184100341797 23.276077782569  33.6184100341797 19.1801661551339  C 33.6184100341797 15.0802779144684  29.3528824462891 11.7559462129667  24.0914108886719 11.7559462129667  C 18.8325412597656 11.7559462129667  14.5669393310547 15.0802779144684  14.5669393310547 19.1801661551339  C 14.5669393310547 23.2760193029626  18.8325412597656 26.5964328708401  24.0914108886719 26.5964328708401  Z M 24.1262023925781 15.4622082234172  C 26.7444860839844 15.4622082234172  28.8698157958984 17.1146079799107  28.8698157958984 19.1567743126015  C 28.8698157958984 21.1989406452922  26.7444860839844 22.8513404017857  24.1262023925781 22.8513404017857  C 21.5054654541015 22.8513404017857  19.3825889892578 21.1989406452922  19.3825889892578 19.1567743126015  C 19.3825889892578 17.1185845931413  21.5079187011719 15.4622082234172  24.1262023925781 15.4622082234172  Z " fill-rule="nonzero" fill="#ffffff" stroke="none" transform="matrix(1 0 0 1 150 33 )" />
  </g>
</svg>